<svg width="92" height="68" viewBox="0 0 92 68" fill="none" xmlns="http://www.w3.org/2000/svg">
<path d="M32.7041 10.406L8.00193 32.012C7.65438 32.316 7.86938 32.8884 8.33111 32.8884H21.3027C21.5471 32.8884 21.7831 32.7988 21.9661 32.6367L33.3999 22.5009L43.3975 33.6181C49.3135 39.5321 52.1382 39.4242 58.0605 33.5102C62.7388 28.8273 73.8027 18.3891 78.481 13.649L83.293 18.4594C83.923 19.0892 85 18.643 85 17.7522V1.00892C85 0.453166 84.5469 0.00402529 83.9911 0.00896186L67.3801 0.156517C66.4939 0.164389 66.0551 1.23589 66.6814 1.86305L71.7905 6.97998L50.6973 28.1547C45.1318 22.6584 39.6722 16.0276 34.0581 10.4461C33.688 10.0781 33.0969 10.0624 32.7041 10.406Z" fill="#084387"/>
<path fill-rule="evenodd" clip-rule="evenodd" d="M19.7696 39.1033C20.3219 39.1033 20.7696 39.551 20.7696 40.1033V66.731C20.7659 67.0658 20.6276 67.3857 20.3844 67.6218C20.1413 67.8579 19.8129 67.9913 19.4701 67.9931H8.29956C7.95612 67.9931 7.62664 67.8603 7.38313 67.6238C7.13962 67.3873 7.00188 67.0663 7 66.731V40.1033C7 39.551 7.44772 39.1033 8 39.1033H19.7696ZM83.3171 22.5473C83.9599 21.9579 84.999 22.414 84.9984 23.2861L84.9687 66.7379C84.965 67.0715 84.8277 67.3904 84.5861 67.6264C84.3445 67.8623 84.0179 67.9964 83.6763 68H72.4987C72.157 67.9946 71.8312 67.8587 71.5909 67.6215C71.3507 67.3843 71.2151 67.0646 71.2133 66.731V34.2978C71.2133 34.0232 71.326 33.7609 71.5254 33.5721C73.5847 31.6225 75.952 29.3902 78.3644 27.1203C80.0023 25.581 81.6616 24.0655 83.3171 22.5473ZM61.9356 42.5449C62.6463 42.157 63.569 42.6446 63.569 43.4542V66.731C63.5653 67.0658 63.427 67.3857 63.1838 67.6218C62.9407 67.8579 62.6123 67.9913 62.2695 67.9931H51.099C50.7561 67.9913 50.4277 67.8579 50.1846 67.6218C49.9415 67.3857 49.8031 67.0658 49.7994 66.731V45.4858C49.7994 44.8403 50.4023 44.365 51.0401 44.4647C51.9743 44.6108 52.9209 44.6756 53.8685 44.658C56.7054 44.6177 59.4765 43.8869 61.9356 42.5449ZM40.7316 39.1471C40.9546 39.3411 41.086 39.6207 41.086 39.9163V66.6963C41.0823 67.0311 40.9439 67.351 40.7008 67.5872C40.4577 67.8233 40.1293 67.9566 39.7864 67.9584H28.6088C28.2666 67.9566 27.939 67.823 27.697 67.5867C27.455 67.3504 27.3182 67.0305 27.3164 66.6963V37.641C27.3164 37.3223 27.4701 37.0248 27.7191 36.8257C27.8061 36.7562 27.892 36.6855 27.9768 36.6138L32.8277 32.3951C33.235 32.0408 33.85 32.0738 34.2171 32.4696L38.0608 36.6138L38.4088 36.9675C39.1955 37.7397 39.9698 38.4842 40.7316 39.1471Z" fill="#F36B1C"/>
</svg>
