<svg width="72" height="72" viewBox="0 0 72 72" fill="none" xmlns="http://www.w3.org/2000/svg">
<path d="M9.77444 30.8865V68.3937C9.77444 69.9876 11.0664 71.2786 12.6591 71.2786C14.2528 71.2786 15.5448 69.9876 15.5448 68.3937V47.3288H16.626V68.3937C16.626 69.9876 17.918 71.2786 19.5112 71.2786C21.1049 71.2786 22.3963 69.9876 22.3963 68.3937V30.8864C23.3251 30.402 24.5951 29.5389 25.8411 28.0472C26.2033 27.6153 26.5599 27.132 26.9036 26.5948V25.0603C26.1867 24.5906 25.3757 23.9637 24.5443 23.1512C24.0462 24.2062 23.4998 25.0222 22.9752 25.6537C22.1684 26.6191 21.3922 27.1714 20.8428 27.4828C20.5998 27.6207 20.4051 27.7083 20.2709 27.7625H11.901C11.4088 27.5628 10.0665 26.9037 8.74885 25.0783C7.28353 23.0366 5.7861 19.4615 5.78128 13.1344C5.78076 12.9276 5.7829 12.7211 5.7861 12.5155C5.80429 11.4845 4.9831 10.6344 3.9527 10.6162C2.92125 10.5977 2.07116 11.4191 2.05352 12.45C2.0487 12.6835 2.04763 12.9118 2.04763 13.1344C2.03906 20.7388 4.08217 25.3651 6.32966 28.0472C7.57563 29.5391 8.84623 30.4021 9.77444 30.8865Z" fill="#084387"/>
<path d="M16.9273 26.3649C19.7896 25.9004 21.7333 23.2035 21.2688 20.3412C20.8043 17.4789 18.1074 15.5351 15.2451 15.9997C12.3828 16.4642 10.4391 19.1611 10.9036 22.0234C11.3681 24.8857 14.065 26.8294 16.9273 26.3649Z" fill="#084387"/>
<path d="M52.7345 27.7625C52.6002 27.7083 52.4055 27.6207 52.1626 27.4828C51.6132 27.1714 50.8369 26.6191 50.0302 25.6537C49.5056 25.022 48.9589 24.2059 48.4608 23.1506C47.63 23.9625 46.8189 24.5899 46.1021 25.0603V26.5952C46.4458 27.1322 46.8023 27.6154 47.1643 28.0472C48.4102 29.5389 49.6803 30.402 50.609 30.8864V68.3937C50.609 69.9876 51.9005 71.2786 53.4942 71.2786C55.0874 71.2786 56.3794 69.9876 56.3794 68.3937V47.3288H57.4606V68.3937C57.4606 69.9876 58.7526 71.2786 60.3463 71.2786C61.9389 71.2786 63.2309 69.9876 63.2309 68.3937V30.8865C64.1591 30.4021 65.4297 29.5391 66.6757 28.0472C68.9232 25.3651 70.9663 20.7388 70.9577 13.1344C70.9577 12.9118 70.9567 12.6835 70.9518 12.45C70.9342 11.4191 70.0841 10.5977 69.0527 10.6162C68.0223 10.6344 67.2011 11.4845 67.2193 12.5155C67.2225 12.7211 67.2246 12.9276 67.2241 13.1344C67.2193 19.4615 65.7218 23.0366 64.2565 25.0783C62.9388 26.9037 61.5966 27.5628 61.1044 27.7625H52.7345Z" fill="#084387"/>
<path d="M56.9198 26.4329C59.8195 26.4329 62.1701 24.0822 62.1701 21.1825C62.1701 18.2829 59.8195 15.9322 56.9198 15.9322C54.0201 15.9322 51.6694 18.2829 51.6694 21.1825C51.6694 24.0822 54.0201 26.4329 56.9198 26.4329Z" fill="#084387"/>
<path d="M29.0946 23.8112V67.8381C29.0946 69.7089 30.6113 71.2245 32.481 71.2245C34.3513 71.2245 35.868 69.7089 35.868 67.8381V43.1116H37.1376V67.8381C37.1376 69.7089 38.6542 71.2245 40.524 71.2245C42.3943 71.2245 43.911 69.7089 43.911 67.8381V23.8109C45.0008 23.2422 46.4918 22.2292 47.9544 20.4784C50.593 17.3302 52.9913 11.8995 52.9806 2.9731C52.9801 2.70735 52.9779 2.44292 52.9747 2.18119C52.9598 0.970635 51.9663 0.00177824 50.7562 0.0168982C49.5465 0.0320182 48.5777 1.02534 48.5927 2.23534C48.5953 2.4888 48.598 2.73543 48.598 2.9731C48.5873 11.1533 46.4682 15.4079 44.5904 17.6688C43.6435 18.8019 42.7319 19.45 42.0867 19.8158C41.8021 19.9777 41.5736 20.0803 41.4158 20.1441H31.5908C31.013 19.9098 29.438 19.1361 27.8914 16.9933C26.1709 14.5967 24.4129 10.4003 24.4076 2.97324C24.4071 2.73033 24.4092 2.48814 24.4129 2.24671C24.4343 1.03646 23.4708 0.0385647 22.2607 0.017446C21.0505 -0.0043574 20.0528 0.959678 20.0314 2.16982C20.026 2.44398 20.0244 2.71203 20.0244 2.97324C20.0143 11.8995 22.4126 17.33 25.0512 20.4782C26.5138 22.2294 28.0048 23.2425 29.0946 23.8112Z" fill="#F36B1C"/>
<path d="M36.5031 18.5833C39.9069 18.5833 42.6662 15.824 42.6662 12.4203C42.6662 9.01655 39.9069 6.25726 36.5031 6.25726C33.0994 6.25726 30.3401 9.01655 30.3401 12.4203C30.3401 15.824 33.0994 18.5833 36.5031 18.5833Z" fill="#F36B1C"/>
</svg>
