<svg width="124" height="76" viewBox="0 0 124 76" fill="none" xmlns="http://www.w3.org/2000/svg">
<g clip-path="url(#clip0_113_172)">
<path fill-rule="evenodd" clip-rule="evenodd" d="M17.483 6H107.183C107.75 6.00263 108.293 6.22894 108.693 6.6297C109.094 7.03046 109.32 7.57325 109.323 8.14V45.52L105.963 43.25V14.91H18.963V67.35H105.963V61.77L109.323 63.28V68.47C109.319 68.9099 109.184 69.3385 108.933 69.7H120.693C121.548 69.7468 122.354 70.1196 122.943 70.7418C123.532 71.364 123.86 72.1882 123.86 73.045C123.86 73.9018 123.532 74.726 122.943 75.3482C122.354 75.9704 121.548 76.3432 120.693 76.39H4.53296C4.07831 76.4149 3.62335 76.3468 3.19589 76.1899C2.76843 76.0331 2.37743 75.7907 2.04679 75.4776C1.71614 75.1646 1.45278 74.7874 1.2728 74.3691C1.09282 73.9509 1 73.5003 1 73.045C1 72.5897 1.09282 72.1391 1.2728 71.7208C1.45278 71.3026 1.71614 70.9254 2.04679 70.6124C2.37743 70.2993 2.76843 70.0569 3.19589 69.9001C3.62335 69.7432 4.07831 69.6751 4.53296 69.7H15.733C15.4783 69.3405 15.342 68.9106 15.343 68.47V8.14C15.343 7.85897 15.3983 7.58069 15.5059 7.32106C15.6134 7.06142 15.771 6.82551 15.9698 6.62679C16.1685 6.42807 16.4044 6.27044 16.664 6.1629C16.9237 6.05535 17.2019 6 17.483 6V6ZM29.923 9.45C30.1781 9.45 30.4275 9.52566 30.6396 9.6674C30.8518 9.80915 31.0171 10.0106 31.1148 10.2463C31.2124 10.4821 31.2379 10.7414 31.1882 10.9917C31.1384 11.2419 31.0155 11.4718 30.8351 11.6522C30.6547 11.8326 30.4249 11.9554 30.1746 12.0052C29.9244 12.055 29.665 12.0294 29.4293 11.9318C29.1936 11.8342 28.9921 11.6688 28.8504 11.4567C28.7086 11.2445 28.633 10.9951 28.633 10.74C28.633 10.3979 28.7689 10.0698 29.0108 9.82783C29.2527 9.58591 29.5808 9.45 29.923 9.45ZM25.413 9.45C25.6681 9.45 25.9175 9.52566 26.1296 9.6674C26.3418 9.80915 26.5071 10.0106 26.6048 10.2463C26.7024 10.4821 26.7279 10.7414 26.6782 10.9917C26.6284 11.2419 26.5055 11.4718 26.3251 11.6522C26.1447 11.8326 25.9149 11.9554 25.6646 12.0052C25.4144 12.055 25.155 12.0294 24.9193 11.9318C24.6836 11.8342 24.4821 11.6688 24.3404 11.4567C24.1986 11.2445 24.123 10.9951 24.123 10.74C24.123 10.3979 24.2589 10.0698 24.5008 9.82783C24.7427 9.58591 25.0708 9.45 25.413 9.45ZM20.903 9.45C21.1581 9.45 21.4075 9.52566 21.6196 9.6674C21.8318 9.80915 21.9971 10.0106 22.0948 10.2463C22.1924 10.4821 22.2179 10.7414 22.1682 10.9917C22.1184 11.2419 21.9955 11.4718 21.8151 11.6522C21.6347 11.8326 21.4049 11.9554 21.1546 12.0052C20.9044 12.055 20.645 12.0294 20.4093 11.9318C20.1736 11.8342 19.9721 11.6688 19.8304 11.4567C19.6886 11.2445 19.613 10.9951 19.613 10.74C19.613 10.3979 19.7489 10.0698 19.9908 9.82783C20.2327 9.58591 20.5608 9.45 20.903 9.45ZM59.103 71.45H66.103C66.2605 71.45 66.4166 71.481 66.5622 71.5413C66.7078 71.6016 66.8401 71.69 66.9515 71.8015C67.0629 71.9129 67.1513 72.0452 67.2116 72.1908C67.2719 72.3364 67.303 72.4924 67.303 72.65C67.303 72.8076 67.2719 72.9636 67.2116 73.1092C67.1513 73.2548 67.0629 73.3871 66.9515 73.4985C66.8401 73.61 66.7078 73.6983 66.5622 73.7587C66.4166 73.819 66.2605 73.85 66.103 73.85H59.103C58.9454 73.85 58.7893 73.819 58.6437 73.7587C58.4981 73.6983 58.3659 73.61 58.2544 73.4985C58.143 73.3871 58.0546 73.2548 57.9943 73.1092C57.934 72.9636 57.903 72.8076 57.903 72.65C57.903 72.4924 57.934 72.3364 57.9943 72.1908C58.0546 72.0452 58.143 71.9129 58.2544 71.8015C58.3659 71.69 58.4981 71.6016 58.6437 71.5413C58.7893 71.481 58.9454 71.45 59.103 71.45Z" fill="#F36B1C"/>
<path fill-rule="evenodd" clip-rule="evenodd" d="M38.433 51.05C37.513 51.05 37.513 47.63 38.433 47.63H75.353C76.8859 48.6816 78.6694 49.3094 80.523 49.45C81.9139 49.5909 83.319 49.4653 84.663 49.08L86.553 51.08L38.433 51.05ZM26.543 51.05C25.633 51.05 25.633 47.63 26.543 47.63H35.183C36.093 47.63 36.093 51.05 35.183 51.05H26.543ZM26.253 43.9C25.333 43.9 25.333 40.48 26.253 40.48H34.883C35.793 40.48 35.793 43.9 34.883 43.9H26.253ZM38.433 43.9C37.513 43.9 37.513 40.48 38.433 40.48H70.483L70.583 40.7C71.093 41.8 71.583 42.88 72.173 43.9H38.433Z" fill="#084387"/>
<path fill-rule="evenodd" clip-rule="evenodd" d="M77.641 21.0008H92.6719C92.9957 20.9928 93.318 21.0472 93.62 21.1607C93.922 21.2743 94.1978 21.4448 94.4313 21.6623C94.6649 21.8798 94.8516 22.1401 94.9806 22.428C95.1096 22.7159 95.1784 23.0258 95.183 23.3397V32.6354C95.1806 33.2618 94.9228 33.862 94.4656 34.3049C94.0085 34.7479 93.3891 34.9977 92.7426 35H87.6763C87.2644 34.2233 86.7437 33.5054 86.129 32.8667C84.2706 31.0053 81.8819 29.7227 79.2678 29.1827C77.926 28.8986 76.5565 28.755 75.183 28.7543V23.3397C75.1923 22.7147 75.4556 22.1186 75.9158 21.6807C76.376 21.2428 76.996 20.9984 77.641 21.0008Z" fill="#084387"/>
<path fill-rule="evenodd" clip-rule="evenodd" d="M52.6274 21H67.7385C68.3869 21.0045 69.0073 21.2551 69.465 21.6973C69.9226 22.1395 70.1806 22.7376 70.183 23.3619V28.8814C68.9474 29.0012 67.8096 29.1724 66.8585 29.3435C65.8202 29.5387 64.9034 30.1194 64.3063 30.9601C63.7091 31.8008 63.4796 32.8339 63.6674 33.8362C63.7422 34.2441 63.8863 34.6373 64.0941 35H52.6274C51.9783 34.9977 51.3565 34.7479 50.8984 34.3052C50.4402 33.8625 50.1829 33.2631 50.183 32.6381V23.3362C50.19 22.7157 50.4503 22.1228 50.9077 21.6857C51.3651 21.2485 51.9829 21.0022 52.6274 21Z" fill="#084387"/>
<path fill-rule="evenodd" clip-rule="evenodd" d="M27.5908 21.0001H42.6952C43.3464 20.9933 43.9739 21.2356 44.4402 21.674C44.9065 22.1124 45.1736 22.7112 45.183 23.3392V32.6353C45.1783 33.2611 44.9184 33.8599 44.4596 34.3024C44.0007 34.7449 43.3797 34.9955 42.7307 35H27.6263C26.9775 34.9977 26.356 34.7476 25.8981 34.3044C25.4401 33.8611 25.1829 33.261 25.183 32.6353V23.3392C25.1898 22.7238 25.4451 22.1353 25.8947 21.6985C26.3443 21.2618 26.9527 21.0113 27.5908 21.0001Z" fill="#084387"/>
<path fill-rule="evenodd" clip-rule="evenodd" d="M70.183 33.5315C74.4218 36.3907 73.8371 43.8209 79.5559 44.4316C80.3674 44.5103 81.1861 44.4186 81.9611 44.1622C82.736 43.9059 83.4504 43.4905 84.0596 42.9419C84.7624 42.2939 85.1993 41.4023 85.2838 40.4436C85.6492 36.6035 82.1777 34.0959 78.889 33.3372C76.0173 32.8296 73.0753 32.8956 70.2286 33.5315H70.183ZM87.5402 41.1283C87.3246 42.5925 86.5628 43.9172 85.4117 44.8295L89.7784 49.4561C91.7905 47.3689 93.2487 44.8002 94.0172 41.9888C91.8324 41.9448 89.6595 41.6499 87.5402 41.1098V41.1283ZM95.1135 42.9141C94.2957 45.6338 92.8986 48.1386 91.0208 50.2518L111.274 59.4587C111.696 59.6808 112.144 59.8486 112.608 59.9583C112.967 60.0304 113.338 60.0087 113.686 59.8954C114.035 59.7821 114.349 59.5808 114.599 59.3105C114.85 59.0403 115.028 58.7099 115.117 58.3505C115.207 57.9912 115.205 57.6147 115.111 57.2564C114.909 56.6918 114.518 56.217 114.006 55.9147L95.1135 42.9604V42.9141Z" fill="#F36B1C"/>
</g>
<defs>
<clipPath id="clip0_113_172">
<rect width="124" height="76" fill="white"/>
</clipPath>
</defs>
</svg>
