<svg width="288" height="189" viewBox="0 0 288 189" fill="none" xmlns="http://www.w3.org/2000/svg">
<path d="M47.1169 156.89L249.117 80.8898" stroke="#084387" stroke-width="2"/>
<path d="M249.117 80.8898L138.117 1.88983" stroke="#084387" stroke-width="2"/>
<g filter="url(#filter0_d_165_2174)">
<circle cx="44.0113" cy="158.469" r="16.4208" fill="#2056CF"/>
<circle cx="44.0113" cy="158.469" r="19.8182" stroke="white" stroke-width="6.7948"/>
</g>
<g filter="url(#filter1_d_165_2174)">
<circle cx="251.939" cy="79.05" r="16.4208" fill="#05CB0A"/>
<circle cx="251.939" cy="79.05" r="19.8182" stroke="white" stroke-width="6.7948"/>
</g>
<path d="M215.692 116.113V119.514H219.399V120.609H215.692V124.112H219.837V125.207H214.363V115.019H219.837V116.113H215.692ZM221.35 121.178C221.35 120.361 221.516 119.646 221.847 119.033C222.178 118.41 222.63 117.928 223.204 117.588C223.788 117.247 224.44 117.077 225.16 117.077C225.783 117.077 226.362 117.223 226.897 117.515C227.432 117.797 227.841 118.171 228.123 118.638V114.406H229.466V125.207H228.123V123.703C227.86 124.18 227.471 124.574 226.955 124.886C226.44 125.187 225.836 125.338 225.145 125.338C224.435 125.338 223.788 125.163 223.204 124.813C222.63 124.462 222.178 123.971 221.847 123.338C221.516 122.706 221.35 121.986 221.35 121.178ZM228.123 121.193C228.123 120.59 228.001 120.064 227.758 119.616C227.515 119.169 227.184 118.828 226.766 118.595C226.357 118.351 225.904 118.23 225.408 118.23C224.912 118.23 224.459 118.347 224.051 118.58C223.642 118.814 223.316 119.154 223.073 119.602C222.83 120.049 222.708 120.575 222.708 121.178C222.708 121.791 222.83 122.326 223.073 122.784C223.316 123.231 223.642 123.577 224.051 123.82C224.459 124.054 224.912 124.17 225.408 124.17C225.904 124.17 226.357 124.054 226.766 123.82C227.184 123.577 227.515 123.231 227.758 122.784C228.001 122.326 228.123 121.796 228.123 121.193ZM238.804 117.208V125.207H237.476V124.025C237.223 124.433 236.868 124.754 236.411 124.988C235.963 125.212 235.467 125.324 234.922 125.324C234.299 125.324 233.739 125.197 233.243 124.944C232.747 124.681 232.353 124.292 232.061 123.776C231.779 123.261 231.638 122.633 231.638 121.893V117.208H232.951V121.718C232.951 122.506 233.151 123.115 233.55 123.543C233.949 123.961 234.494 124.17 235.184 124.17C235.895 124.17 236.454 123.952 236.863 123.514C237.272 123.076 237.476 122.438 237.476 121.602V117.208H238.804ZM240.551 121.193C240.551 120.366 240.716 119.646 241.047 119.033C241.378 118.41 241.835 117.928 242.419 117.588C243.013 117.247 243.689 117.077 244.448 117.077C245.431 117.077 246.238 117.315 246.871 117.792C247.513 118.269 247.936 118.93 248.141 119.777H246.71C246.574 119.29 246.307 118.906 245.908 118.624C245.518 118.342 245.032 118.201 244.448 118.201C243.689 118.201 243.076 118.463 242.609 118.989C242.142 119.505 241.908 120.239 241.908 121.193C241.908 122.156 242.142 122.901 242.609 123.426C243.076 123.952 243.689 124.214 244.448 124.214C245.032 124.214 245.518 124.078 245.908 123.806C246.297 123.533 246.564 123.144 246.71 122.638H248.141C247.927 123.455 247.499 124.112 246.856 124.608C246.214 125.095 245.411 125.338 244.448 125.338C243.689 125.338 243.013 125.168 242.419 124.827C241.835 124.487 241.378 124.005 241.047 123.382C240.716 122.759 240.551 122.03 240.551 121.193ZM249.417 121.178C249.417 120.361 249.582 119.646 249.913 119.033C250.244 118.41 250.696 117.928 251.271 117.588C251.854 117.247 252.502 117.077 253.212 117.077C253.912 117.077 254.521 117.228 255.036 117.529C255.552 117.831 255.936 118.21 256.189 118.668V117.208H257.532V125.207H256.189V123.718C255.927 124.185 255.533 124.574 255.007 124.886C254.491 125.187 253.888 125.338 253.197 125.338C252.487 125.338 251.845 125.163 251.271 124.813C250.696 124.462 250.244 123.971 249.913 123.338C249.582 122.706 249.417 121.986 249.417 121.178ZM256.189 121.193C256.189 120.59 256.068 120.064 255.825 119.616C255.581 119.169 255.25 118.828 254.832 118.595C254.423 118.351 253.971 118.23 253.475 118.23C252.978 118.23 252.526 118.347 252.117 118.58C251.708 118.814 251.382 119.154 251.139 119.602C250.896 120.049 250.774 120.575 250.774 121.178C250.774 121.791 250.896 122.326 251.139 122.784C251.382 123.231 251.708 123.577 252.117 123.82C252.526 124.054 252.978 124.17 253.475 124.17C253.971 124.17 254.423 124.054 254.832 123.82C255.25 123.577 255.581 123.231 255.825 122.784C256.068 122.326 256.189 121.796 256.189 121.193ZM261.397 118.303V123.017C261.397 123.407 261.48 123.684 261.645 123.849C261.811 124.005 262.098 124.083 262.506 124.083H263.484V125.207H262.288C261.548 125.207 260.993 125.037 260.624 124.696C260.254 124.355 260.069 123.796 260.069 123.017V118.303H259.033V117.208H260.069V115.194H261.397V117.208H263.484V118.303H261.397ZM265.78 115.909C265.527 115.909 265.313 115.821 265.138 115.646C264.962 115.471 264.875 115.257 264.875 115.004C264.875 114.751 264.962 114.537 265.138 114.362C265.313 114.187 265.527 114.099 265.78 114.099C266.023 114.099 266.227 114.187 266.393 114.362C266.568 114.537 266.656 114.751 266.656 115.004C266.656 115.257 266.568 115.471 266.393 115.646C266.227 115.821 266.023 115.909 265.78 115.909ZM266.422 117.208V125.207H265.094V117.208H266.422ZM272.174 125.338C271.425 125.338 270.744 125.168 270.131 124.827C269.528 124.487 269.051 124.005 268.7 123.382C268.36 122.75 268.19 122.02 268.19 121.193C268.19 120.375 268.365 119.655 268.715 119.033C269.075 118.4 269.562 117.918 270.175 117.588C270.788 117.247 271.474 117.077 272.233 117.077C272.992 117.077 273.678 117.247 274.291 117.588C274.904 117.918 275.385 118.395 275.736 119.018C276.096 119.641 276.276 120.366 276.276 121.193C276.276 122.02 276.091 122.75 275.721 123.382C275.361 124.005 274.87 124.487 274.247 124.827C273.624 125.168 272.933 125.338 272.174 125.338ZM272.174 124.17C272.651 124.17 273.099 124.059 273.517 123.835C273.936 123.611 274.271 123.275 274.524 122.828C274.787 122.38 274.918 121.835 274.918 121.193C274.918 120.551 274.792 120.006 274.539 119.558C274.286 119.11 273.955 118.78 273.546 118.566C273.138 118.342 272.695 118.23 272.218 118.23C271.732 118.23 271.284 118.342 270.875 118.566C270.476 118.78 270.155 119.11 269.912 119.558C269.669 120.006 269.547 120.551 269.547 121.193C269.547 121.845 269.664 122.395 269.897 122.842C270.141 123.29 270.462 123.626 270.861 123.849C271.26 124.063 271.698 124.17 272.174 124.17ZM281.919 117.062C282.893 117.062 283.681 117.359 284.284 117.952C284.887 118.536 285.189 119.383 285.189 120.492V125.207H283.875V120.682C283.875 119.884 283.676 119.276 283.277 118.857C282.878 118.429 282.333 118.215 281.642 118.215C280.942 118.215 280.382 118.434 279.964 118.872C279.555 119.31 279.351 119.947 279.351 120.784V125.207H278.022V117.208H279.351V118.347C279.613 117.938 279.968 117.622 280.416 117.398C280.873 117.174 281.375 117.062 281.919 117.062Z" fill="#032F61"/>
<path d="M2.87661 115.946V126.119H1.54835V115.946H2.87661ZM9.03759 117.974C10.0107 117.974 10.7989 118.271 11.4022 118.865C12.0055 119.449 12.3071 120.295 12.3071 121.404V126.119H10.9935V121.594C10.9935 120.796 10.794 120.188 10.395 119.77C9.99607 119.342 9.45115 119.127 8.76026 119.127C8.05964 119.127 7.50012 119.346 7.08169 119.784C6.673 120.222 6.46865 120.86 6.46865 121.696V126.119H5.14039V118.12H6.46865V119.259C6.73138 118.85 7.08656 118.534 7.53418 118.31C7.99152 118.086 8.49266 117.974 9.03759 117.974ZM16.097 119.215V123.93C16.097 124.319 16.1797 124.596 16.3452 124.762C16.5106 124.917 16.7977 124.995 17.2063 124.995H18.1843V126.119H16.9874C16.2479 126.119 15.6932 125.949 15.3234 125.608C14.9537 125.268 14.7688 124.708 14.7688 123.93V119.215H13.7324V118.12H14.7688V116.106H16.097V118.12H18.1843V119.215H16.097ZM27.0918 121.813C27.0918 122.066 27.0772 122.334 27.048 122.616H20.6548C20.7035 123.404 20.9711 124.022 21.4576 124.47C21.9539 124.908 22.5523 125.127 23.253 125.127C23.8271 125.127 24.3039 124.995 24.6834 124.732C25.0726 124.46 25.3451 124.1 25.5008 123.652H26.9312C26.7171 124.421 26.289 125.049 25.6467 125.535C25.0045 126.012 24.2066 126.25 23.253 126.25C22.494 126.25 21.8128 126.08 21.2095 125.74C20.6159 125.399 20.1488 124.917 19.8082 124.295C19.4677 123.662 19.2974 122.932 19.2974 122.105C19.2974 121.278 19.4628 120.553 19.7936 119.93C20.1245 119.308 20.5867 118.831 21.1803 118.5C21.7836 118.159 22.4745 117.989 23.253 117.989C24.012 117.989 24.6834 118.154 25.2672 118.485C25.8511 118.816 26.2987 119.273 26.6101 119.857C26.9312 120.431 27.0918 121.083 27.0918 121.813ZM25.7197 121.536C25.7197 121.03 25.6078 120.597 25.384 120.237C25.1602 119.867 24.8537 119.59 24.4644 119.405C24.0849 119.21 23.6617 119.113 23.1946 119.113C22.5231 119.113 21.949 119.327 21.4722 119.755C21.0051 120.183 20.7375 120.777 20.6694 121.536H25.7197ZM30.1733 115.318V126.119H28.845V115.318H30.1733ZM33.7653 115.318V126.119H32.4371V115.318H33.7653ZM36.7151 116.821C36.4621 116.821 36.2481 116.734 36.0729 116.559C35.8977 116.383 35.8102 116.169 35.8102 115.916C35.8102 115.663 35.8977 115.449 36.0729 115.274C36.2481 115.099 36.4621 115.011 36.7151 115.011C36.9584 115.011 37.1628 115.099 37.3282 115.274C37.5033 115.449 37.5909 115.663 37.5909 115.916C37.5909 116.169 37.5033 116.383 37.3282 116.559C37.1628 116.734 36.9584 116.821 36.7151 116.821ZM37.3574 118.12V126.119H36.0291V118.12H37.3574ZM42.9199 117.989C43.6108 117.989 44.2141 118.14 44.7298 118.441C45.2553 118.743 45.6445 119.123 45.8975 119.58V118.12H47.2404V126.294C47.2404 127.024 47.0847 127.671 46.7733 128.236C46.4619 128.81 46.0143 129.257 45.4305 129.578C44.8563 129.9 44.1849 130.06 43.4162 130.06C42.3652 130.06 41.4895 129.812 40.7889 129.316C40.0882 128.819 39.6747 128.143 39.5482 127.287H40.8618C41.0078 127.773 41.3095 128.163 41.7668 128.454C42.2242 128.756 42.7739 128.907 43.4162 128.907C44.146 128.907 44.7396 128.678 45.1969 128.221C45.664 127.764 45.8975 127.121 45.8975 126.294V124.616C45.6348 125.083 45.2456 125.472 44.7298 125.783C44.2141 126.095 43.6108 126.25 42.9199 126.25C42.2096 126.25 41.5625 126.075 40.9786 125.725C40.4045 125.375 39.952 124.883 39.6212 124.251C39.2903 123.618 39.1249 122.898 39.1249 122.091C39.1249 121.273 39.2903 120.558 39.6212 119.945C39.952 119.322 40.4045 118.84 40.9786 118.5C41.5625 118.159 42.2096 117.989 42.9199 117.989ZM45.8975 122.105C45.8975 121.502 45.7759 120.976 45.5326 120.529C45.2894 120.081 44.9585 119.741 44.5401 119.507C44.1314 119.264 43.6789 119.142 43.1826 119.142C42.6864 119.142 42.2339 119.259 41.8252 119.492C41.4165 119.726 41.0905 120.067 40.8472 120.514C40.604 120.962 40.4823 121.487 40.4823 122.091C40.4823 122.704 40.604 123.239 40.8472 123.696C41.0905 124.144 41.4165 124.489 41.8252 124.732C42.2339 124.966 42.6864 125.083 43.1826 125.083C43.6789 125.083 44.1314 124.966 44.5401 124.732C44.9585 124.489 45.2894 124.144 45.5326 123.696C45.7759 123.239 45.8975 122.708 45.8975 122.105ZM56.7831 121.813C56.7831 122.066 56.7685 122.334 56.7394 122.616H50.3462C50.3949 123.404 50.6625 124.022 51.149 124.47C51.6453 124.908 52.2437 125.127 52.9443 125.127C53.5184 125.127 53.9953 124.995 54.3748 124.732C54.764 124.46 55.0365 124.1 55.1922 123.652H56.6226C56.4085 124.421 55.9803 125.049 55.3381 125.535C54.6959 126.012 53.898 126.25 52.9443 126.25C52.1853 126.25 51.5042 126.08 50.9009 125.74C50.3073 125.399 49.8402 124.917 49.4996 124.295C49.159 123.662 48.9887 122.932 48.9887 122.105C48.9887 121.278 49.1542 120.553 49.485 119.93C49.8159 119.308 50.2781 118.831 50.8717 118.5C51.475 118.159 52.1659 117.989 52.9443 117.989C53.7033 117.989 54.3748 118.154 54.9586 118.485C55.5425 118.816 55.9901 119.273 56.3015 119.857C56.6226 120.431 56.7831 121.083 56.7831 121.813ZM55.4111 121.536C55.4111 121.03 55.2992 120.597 55.0754 120.237C54.8516 119.867 54.5451 119.59 54.1558 119.405C53.7763 119.21 53.353 119.113 52.8859 119.113C52.2145 119.113 51.6404 119.327 51.1636 119.755C50.6965 120.183 50.4289 120.777 50.3608 121.536H55.4111ZM62.4336 117.974C63.4067 117.974 64.1949 118.271 64.7982 118.865C65.4015 119.449 65.7032 120.295 65.7032 121.404V126.119H64.3895V121.594C64.3895 120.796 64.19 120.188 63.791 119.77C63.3921 119.342 62.8472 119.127 62.1563 119.127C61.4556 119.127 60.8961 119.346 60.4777 119.784C60.069 120.222 59.8647 120.86 59.8647 121.696V126.119H58.5364V118.12H59.8647V119.259C60.1274 118.85 60.4826 118.534 60.9302 118.31C61.3875 118.086 61.8887 117.974 62.4336 117.974ZM67.3766 122.105C67.3766 121.278 67.542 120.558 67.8729 119.945C68.2037 119.322 68.6611 118.84 69.2449 118.5C69.8385 118.159 70.5148 117.989 71.2738 117.989C72.2566 117.989 73.0643 118.227 73.6968 118.704C74.339 119.181 74.7623 119.843 74.9666 120.689H73.5362C73.4 120.203 73.1324 119.818 72.7334 119.536C72.3442 119.254 71.8576 119.113 71.2738 119.113C70.5148 119.113 69.9017 119.376 69.4347 119.901C68.9676 120.417 68.734 121.151 68.734 122.105C68.734 123.068 68.9676 123.813 69.4347 124.338C69.9017 124.864 70.5148 125.127 71.2738 125.127C71.8576 125.127 72.3442 124.99 72.7334 124.718C73.1226 124.445 73.3902 124.056 73.5362 123.55H74.9666C74.7526 124.368 74.3244 125.024 73.6822 125.521C73.0399 126.007 72.2371 126.25 71.2738 126.25C70.5148 126.25 69.8385 126.08 69.2449 125.74C68.6611 125.399 68.2037 124.917 67.8729 124.295C67.542 123.672 67.3766 122.942 67.3766 122.105ZM84.0371 121.813C84.0371 122.066 84.0225 122.334 83.9933 122.616H77.6001C77.6488 123.404 77.9164 124.022 78.4029 124.47C78.8992 124.908 79.4976 125.127 80.1982 125.127C80.7724 125.127 81.2492 124.995 81.6287 124.732C82.0179 124.46 82.2904 124.1 82.4461 123.652H83.8765C83.6624 124.421 83.2343 125.049 82.592 125.535C81.9498 126.012 81.1519 126.25 80.1982 126.25C79.4392 126.25 78.7581 126.08 78.1548 125.74C77.5612 125.399 77.0941 124.917 76.7535 124.295C76.413 123.662 76.2427 122.932 76.2427 122.105C76.2427 121.278 76.4081 120.553 76.7389 119.93C77.0698 119.308 77.532 118.831 78.1256 118.5C78.7289 118.159 79.4198 117.989 80.1982 117.989C80.9573 117.989 81.6287 118.154 82.2125 118.485C82.7964 118.816 83.244 119.273 83.5554 119.857C83.8765 120.431 84.0371 121.083 84.0371 121.813ZM82.665 121.536C82.665 121.03 82.5531 120.597 82.3293 120.237C82.1055 119.867 81.799 119.59 81.4097 119.405C81.0302 119.21 80.6069 119.113 80.1399 119.113C79.4684 119.113 78.8943 119.327 78.4175 119.755C77.9504 120.183 77.6828 120.777 77.6147 121.536H82.665Z" fill="#032F61"/>
<defs>
<filter id="filter0_d_165_2174" x="16.2659" y="132.989" width="55.4909" height="55.4909" filterUnits="userSpaceOnUse" color-interpolation-filters="sRGB">
<feFlood flood-opacity="0" result="BackgroundImageFix"/>
<feColorMatrix in="SourceAlpha" type="matrix" values="0 0 0 0 0 0 0 0 0 0 0 0 0 0 0 0 0 0 127 0" result="hardAlpha"/>
<feOffset dy="2.26493"/>
<feGaussianBlur stdDeviation="2.26493"/>
<feComposite in2="hardAlpha" operator="out"/>
<feColorMatrix type="matrix" values="0 0 0 0 0 0 0 0 0 0 0 0 0 0 0 0 0 0 0.16 0"/>
<feBlend mode="normal" in2="BackgroundImageFix" result="effect1_dropShadow_165_2174"/>
<feBlend mode="normal" in="SourceGraphic" in2="effect1_dropShadow_165_2174" result="shape"/>
</filter>
<filter id="filter1_d_165_2174" x="224.194" y="53.5695" width="55.4909" height="55.4909" filterUnits="userSpaceOnUse" color-interpolation-filters="sRGB">
<feFlood flood-opacity="0" result="BackgroundImageFix"/>
<feColorMatrix in="SourceAlpha" type="matrix" values="0 0 0 0 0 0 0 0 0 0 0 0 0 0 0 0 0 0 127 0" result="hardAlpha"/>
<feOffset dy="2.26493"/>
<feGaussianBlur stdDeviation="2.26493"/>
<feComposite in2="hardAlpha" operator="out"/>
<feColorMatrix type="matrix" values="0 0 0 0 0 0 0 0 0 0 0 0 0 0 0 0 0 0 0.16 0"/>
<feBlend mode="normal" in2="BackgroundImageFix" result="effect1_dropShadow_165_2174"/>
<feBlend mode="normal" in="SourceGraphic" in2="effect1_dropShadow_165_2174" result="shape"/>
</filter>
</defs>
</svg>
