<svg width="446" height="300" viewBox="0 0 446 300" fill="none" xmlns="http://www.w3.org/2000/svg">
<path d="M94.6735 71.1624L209.274 71.1624V66.1349L94.6735 66.1349V71.1624Z" fill="#EBEBEB"/>
<path d="M202.844 71.1692H197.816V87.7923H202.844V71.1692Z" fill="#EBEBEB"/>
<path d="M202.844 71.1692H197.816V76.3067H202.844V71.1692Z" fill="#DBDBDB"/>
<path d="M106.118 71.1692H101.09V87.7923H106.118V71.1692Z" fill="#EBEBEB"/>
<path d="M106.118 71.1692H101.09V76.3067H106.118V71.1692Z" fill="#DBDBDB"/>
<path d="M187.878 66.1414V34.1125H179.811V66.1414H187.878Z" fill="#C7C7C7"/>
<path d="M187.878 35.9217V32.4004H179.811V35.9217H187.878Z" fill="#DBDBDB"/>
<path d="M187.878 41.7333V40.4265H179.811V41.7333H187.878Z" fill="#DBDBDB"/>
<path d="M187.878 61.9393V58.418H178.807V61.9393H187.878Z" fill="#DBDBDB"/>
<path d="M179.811 66.1417V28.7759H174.171V66.1417H179.811Z" fill="#DBDBDB"/>
<path d="M178.71 46.6578V32.2905H175.327V46.6578H178.71Z" fill="#EBEBEB"/>
<path d="M138.039 66.1545L164.613 39.8855L160.648 35.8748L134.075 62.1438L138.039 66.1545Z" fill="#C7C7C7"/>
<path d="M143.466 59.1762L153.683 49.0757L151.305 46.6693L141.087 56.7698L143.466 59.1762Z" fill="#DBDBDB"/>
<path d="M174.178 66.1417V37.7649H164.605V66.1417H174.178Z" fill="#A6A6A6"/>
<path d="M174.178 63.143V60.4951H164.605V63.143H174.178Z" fill="#C7C7C7"/>
<path d="M174.178 58.7555V57.7307H164.605V58.7555H174.178Z" fill="#C7C7C7"/>
<path d="M194.494 66.1487V39.4775H187.885V66.1487H194.494Z" fill="#A6A6A6"/>
<path d="M194.494 63.3151V60.8323H187.885V63.3151H194.494Z" fill="#C7C7C7"/>
<path d="M194.494 47.4552V44.9724H187.885V47.4552H194.494Z" fill="#C7C7C7"/>
<path d="M194.488 50.1235V49.1606H187.878V50.1235H194.488Z" fill="#C7C7C7"/>
<path d="M117.844 31.974C123.484 37.476 124.433 46.0455 123.243 53.5282C123.243 53.6933 122.947 53.652 122.947 53.487C122.947 51.7882 123.002 50.0963 122.995 48.4182C122.995 48.3357 122.94 48.2669 122.906 48.1913C121.386 47.19 120.129 45.8385 119.24 44.2504C118.298 42.4003 117.927 40.3096 117.211 38.3701C117.143 38.1844 117.342 38.2394 117.466 38.3357C120.905 40.8666 121.991 43.5902 122.968 47.2284C122.945 45.3248 122.745 43.4276 122.369 41.5613C121.714 38.0435 120.095 34.7768 117.693 32.1253C117.68 32.1042 117.674 32.0794 117.677 32.0549C117.68 32.0303 117.691 32.0075 117.709 31.99C117.726 31.9725 117.749 31.9614 117.774 31.9585C117.798 31.9556 117.823 31.9611 117.844 31.974Z" fill="#A6A6A6"/>
<path d="M116.785 32.6209C115.808 32.6209 115.203 34.2027 114.446 34.6842C114.367 34.7488 114.275 34.7959 114.175 34.8224C114.076 34.849 113.973 34.8543 113.872 34.838C113.77 34.8218 113.674 34.7844 113.588 34.7283C113.502 34.6721 113.429 34.5985 113.374 34.5122C112.624 33.4668 113.656 32.1807 114.618 31.4586C113.981 31.816 113.308 32.1064 112.61 32.3252C112.515 32.3587 112.413 32.3708 112.313 32.3607C112.212 32.3505 112.115 32.3184 112.029 32.2665C111.942 32.2146 111.868 32.1443 111.812 32.0606C111.755 31.9768 111.718 31.8816 111.702 31.7818C111.372 30.3582 113.16 29.7186 114.391 29.7186C113.793 29.3059 112.087 28.1849 113.016 27.6553C113.944 27.1257 115.939 28.7076 116.585 29.2371C117.548 30.0143 118.69 31.1835 118.738 32.4008C118.772 33.7901 117.528 32.9166 116.785 32.6209Z" fill="#DBDBDB"/>
<path d="M117.06 32.8614C115.822 32.2905 113.435 33.109 113.236 32.6344C112.823 31.6784 114.728 31.025 115.76 30.8944C114.811 30.6399 113.009 30.2066 113.05 29.3194C113.119 28.2052 115.836 29.1612 117.211 30.2135C118.938 31.5409 118.931 32.827 118.642 33.0814C118.25 33.4322 117.266 32.9508 117.06 32.8614Z" fill="#EBEBEB"/>
<path d="M130.691 31.4306C124.845 36.7332 123.573 45.2339 124.501 52.7511C124.501 52.923 124.79 52.8886 124.797 52.7511C124.859 51.0523 124.873 49.3604 124.942 47.6823L125.038 47.4554C126.595 46.5176 127.902 45.2175 128.848 43.6658C129.866 41.8501 130.313 39.7731 131.104 37.868C131.18 37.6823 130.98 37.7305 130.849 37.8199C127.321 40.2202 126.125 42.9024 125.004 46.4994C125.097 44.5983 125.369 42.7102 125.815 40.8598C126.607 37.3656 128.355 34.1605 130.863 31.6026C130.886 31.5798 130.899 31.5488 130.899 31.5166C130.899 31.4844 130.886 31.4534 130.863 31.4306C130.84 31.4078 130.81 31.395 130.777 31.395C130.745 31.395 130.714 31.4078 130.691 31.4306Z" fill="#A6A6A6"/>
<path d="M131.723 32.1112C132.693 32.18 133.243 33.755 133.979 34.2364C134.056 34.3042 134.146 34.355 134.244 34.3854C134.343 34.4158 134.446 34.4251 134.548 34.4128C134.65 34.4005 134.748 34.3667 134.836 34.3138C134.924 34.2609 135 34.19 135.059 34.1057C135.849 33.0878 134.866 31.7605 133.931 31.0039C134.553 31.4049 135.214 31.7414 135.904 32.0081C135.998 32.0453 136.1 32.0613 136.2 32.055C136.301 32.0488 136.4 32.0203 136.488 31.9717C136.577 31.9231 136.654 31.8556 136.713 31.7739C136.773 31.6922 136.814 31.5984 136.833 31.4991C137.211 30.0823 135.457 29.3808 134.226 29.3052C134.832 28.9132 136.578 27.854 135.698 27.2419C134.818 26.6298 132.755 28.1979 132.067 28.7137C131.076 29.4565 129.893 30.5775 129.804 31.788C129.694 33.2048 130.966 32.3795 131.723 32.1112Z" fill="#DBDBDB"/>
<path d="M131.434 32.3251C132.7 31.8092 135.045 32.7102 135.265 32.2494C135.712 31.314 133.834 30.585 132.816 30.42C133.772 30.1999 135.567 29.856 135.567 28.9413C135.567 27.8271 132.816 28.6799 131.379 29.6841C129.605 30.9427 129.563 32.2219 129.838 32.4901C130.224 32.8684 131.228 32.4282 131.434 32.3251Z" fill="#EBEBEB"/>
<path d="M124.708 45.44C124.316 48.2767 123.709 51.0794 122.892 53.8238C122.881 53.8776 122.849 53.9249 122.804 53.9552C122.758 53.9855 122.702 53.9964 122.648 53.9854C122.594 53.9745 122.547 53.9426 122.517 53.8968C122.486 53.851 122.475 53.7951 122.486 53.7413C122.872 51.1553 123.573 48.6175 123.951 46.0384C124.374 43.4222 124.526 40.7696 124.405 38.1223C124.158 33.7688 122.975 29.1333 120.134 25.7427C120.072 25.6602 120.203 25.5432 120.265 25.6189C125.96 32.2557 125.079 40.3919 125.079 41.1209C125.884 38.3699 126.716 35.2268 129.763 32.4277C129.894 32.3039 129.997 32.3658 129.976 32.5721C129.433 37.6615 128.016 40.3231 125.059 43.0466C124.942 43.8376 124.838 44.6422 124.708 45.44Z" fill="#A6A6A6"/>
<path d="M120.079 26.4927C119.054 26.0388 117.645 27.3387 116.64 27.4281C116.528 27.4551 116.411 27.4584 116.296 27.4379C116.182 27.4174 116.074 27.3734 115.977 27.3088C115.881 27.2442 115.799 27.1603 115.737 27.0625C115.675 26.9646 115.633 26.8549 115.616 26.7403C115.361 25.2823 117.081 24.457 118.442 24.1956C117.583 24.1406 116.737 24.3744 115.891 24.1475C115.774 24.1339 115.662 24.0953 115.562 24.0342C115.462 23.9731 115.376 23.891 115.311 23.7936C115.245 23.6962 115.202 23.5858 115.183 23.47C115.165 23.3542 115.171 23.2357 115.203 23.1227C115.581 21.479 117.755 21.7472 119.048 22.3043C118.635 21.6165 117.431 19.5533 118.649 19.4363C119.866 19.3194 121.152 21.9948 121.558 22.8751C122.163 24.1681 122.768 25.9494 122.198 27.2355C121.558 28.7073 120.705 27.1736 120.079 26.4927Z" fill="#DBDBDB"/>
<path d="M120.251 26.8776C119.247 25.6741 116.365 25.3164 116.393 24.725C116.448 23.5283 118.752 23.8034 119.887 24.1885C119.034 23.4457 117.356 22.1252 117.872 21.1899C118.504 20.0689 120.836 22.4279 121.737 24.216C122.865 26.465 122.204 27.7855 121.778 27.9093C121.193 28.0743 120.416 27.084 120.251 26.8776Z" fill="#EBEBEB"/>
<path d="M128.456 46.9672L130.966 66.1418H115.691C116.008 64.4431 118.848 46.9465 118.848 46.9465L128.456 46.9672Z" fill="#DBDBDB"/>
<path d="M310.615 51.8776C311.032 50.1135 311.789 48.4477 312.844 46.9739C313.848 45.5983 315.466 44.5988 317.699 43.9752C318.387 43.7689 319.192 43.5488 320.161 43.2875C321.159 43.045 322.135 42.7183 323.077 42.3109C324.037 41.9014 324.922 41.3368 325.698 40.6396C326.484 39.9299 327.034 38.9961 327.273 37.9642C327.478 37.2222 327.504 36.4419 327.348 35.6878C327.204 35.0102 326.923 34.3691 326.523 33.8033C326.11 33.2327 325.586 32.7509 324.983 32.3865C324.366 32.0045 323.693 31.7214 322.988 31.5475C322.179 31.3397 321.337 31.2999 320.512 31.4306C319.762 31.542 319.031 31.7549 318.339 32.0633C317.664 32.3658 317.027 32.7467 316.441 33.1981C315.9 33.6084 315.383 34.0493 314.893 34.5186L310.698 29.7043C311.479 28.6491 312.432 27.7331 313.518 26.9945C314.575 26.2766 315.734 25.7224 316.956 25.3508C318.202 24.9783 319.494 24.7815 320.794 24.7662C322.137 24.747 323.476 24.9066 324.776 25.2407C326.258 25.6148 327.678 26.2008 328.992 26.9808C330.306 27.7552 331.451 28.784 332.362 30.0069C333.301 31.284 333.949 32.7512 334.26 34.3054C334.61 36.1327 334.53 38.0164 334.027 39.8074C333.765 40.928 333.339 42.0034 332.761 42.9986C332.248 43.8557 331.603 44.6263 330.849 45.282C330.103 45.9229 329.278 46.466 328.394 46.8982C327.435 47.3603 326.444 47.7533 325.43 48.0743C324.529 48.3494 323.641 48.597 322.754 48.8308C321.899 49.0517 321.065 49.351 320.265 49.7249C319.499 50.0722 318.8 50.5518 318.201 51.1417C317.586 51.7902 317.158 52.5936 316.963 53.4663L310.615 51.8776ZM307.307 65.5158L309.336 57.4553L315.822 59.0853L313.793 67.1458L307.307 65.5158Z" fill="#EBEBEB"/>
<path d="M105.987 201.362C106.282 202.665 106.32 204.013 106.097 205.33C105.769 206.732 104.985 207.985 103.869 208.893C103.484 209.244 103.009 209.656 102.445 210.124C101.861 210.606 101.32 211.137 100.829 211.713C100.322 212.293 99.9154 212.953 99.6253 213.666C99.3343 214.391 99.2719 215.188 99.4465 215.949C99.5536 216.509 99.789 217.036 100.134 217.49C100.45 217.892 100.843 218.226 101.29 218.473C101.749 218.714 102.252 218.861 102.768 218.907C103.301 218.962 103.84 218.934 104.364 218.824C104.961 218.709 105.53 218.475 106.035 218.136C106.498 217.822 106.914 217.445 107.273 217.015C107.623 216.592 107.923 216.131 108.167 215.64C108.396 215.195 108.596 214.735 108.766 214.264L113.098 216.08C112.918 217.033 112.578 217.949 112.094 218.79C111.624 219.611 111.03 220.356 110.334 220.997C109.63 221.651 108.835 222.2 107.975 222.627C107.091 223.072 106.152 223.398 105.182 223.597C104.08 223.83 102.949 223.901 101.826 223.81C100.705 223.722 99.6137 223.411 98.6143 222.896C97.5776 222.349 96.6718 221.584 95.9596 220.654C95.141 219.555 94.5878 218.281 94.3434 216.933C94.1523 216.106 94.0874 215.255 94.1508 214.409C94.2119 213.674 94.3908 212.954 94.6804 212.277C94.9647 211.609 95.3371 210.982 95.7877 210.413C96.2708 209.792 96.7995 209.208 97.3695 208.666C97.8784 208.198 98.3874 207.744 98.9032 207.29C99.4018 206.874 99.8622 206.414 100.279 205.915C100.65 205.434 100.934 204.892 101.118 204.312C101.319 203.682 101.342 203.009 101.187 202.366L105.987 201.362ZM103.773 191.245L105.031 197.249L100.217 198.26L98.9582 192.263L103.773 191.245Z" fill="#EBEBEB"/>
<path d="M322.575 139.993C323.385 141.056 323.981 142.266 324.329 143.555C324.606 144.972 324.405 146.44 323.758 147.73C323.559 148.212 323.298 148.782 322.981 149.443C322.647 150.123 322.376 150.832 322.17 151.561C321.95 152.299 321.854 153.068 321.888 153.837C321.927 154.617 322.2 155.367 322.672 155.99C323 156.454 323.434 156.833 323.937 157.097C324.393 157.333 324.891 157.473 325.402 157.51C325.92 157.543 326.44 157.471 326.929 157.297C327.434 157.121 327.909 156.871 328.339 156.554C328.835 156.202 329.254 155.753 329.57 155.234C329.871 154.755 330.103 154.237 330.258 153.693C330.396 153.165 330.477 152.623 330.498 152.077C330.527 151.58 330.527 151.081 330.498 150.584L335.189 150.433C335.425 151.372 335.5 152.344 335.409 153.308C335.319 154.254 335.088 155.182 334.721 156.059C334.349 156.944 333.853 157.773 333.249 158.521C332.632 159.299 331.915 159.993 331.117 160.584C330.209 161.255 329.208 161.79 328.146 162.173C327.09 162.557 325.968 162.728 324.845 162.675C323.677 162.609 322.537 162.292 321.503 161.747C320.301 161.085 319.268 160.155 318.483 159.03C317.966 158.357 317.554 157.611 317.259 156.815C317.008 156.122 316.871 155.393 316.853 154.656C316.833 153.929 316.909 153.203 317.08 152.496C317.267 151.733 317.509 150.983 317.802 150.254C318.071 149.615 318.339 148.989 318.628 148.377C318.915 147.788 319.145 147.173 319.315 146.54C319.471 145.946 319.522 145.329 319.467 144.718C319.385 144.062 319.126 143.441 318.717 142.923L322.575 139.993ZM316.386 131.74L320.024 136.671L316.056 139.601L312.417 134.67L316.386 131.74Z" fill="#EBEBEB"/>
<path d="M345.161 127.586C345.138 126.115 345.404 124.654 345.945 123.287C346.617 121.851 347.75 120.682 349.164 119.965C349.652 119.67 350.258 119.339 350.973 118.961C351.698 118.575 352.389 118.126 353.036 117.62C353.714 117.114 354.3 116.495 354.769 115.791C355.24 115.073 355.48 114.228 355.457 113.37C355.469 112.776 355.348 112.188 355.103 111.648C354.857 111.108 354.494 110.629 354.04 110.247C353.605 109.881 353.099 109.607 352.555 109.443C351.994 109.265 351.41 109.175 350.822 109.174C350.153 109.167 349.489 109.29 348.868 109.539C348.3 109.777 347.766 110.089 347.28 110.467C346.807 110.84 346.38 111.267 346.007 111.74C345.664 112.167 345.347 112.615 345.058 113.081L340.808 110.151C341.216 109.167 341.785 108.258 342.493 107.462C343.188 106.689 343.995 106.023 344.886 105.488C345.794 104.947 346.774 104.535 347.795 104.264C348.846 103.987 349.928 103.848 351.014 103.851C352.256 103.851 353.49 104.032 354.68 104.388C355.865 104.736 356.969 105.318 357.926 106.1C358.914 106.92 359.714 107.942 360.271 109.099C360.922 110.466 361.249 111.965 361.227 113.48C361.24 114.41 361.117 115.336 360.863 116.231C360.626 117.005 360.271 117.738 359.811 118.404C359.354 119.057 358.813 119.647 358.201 120.158C357.537 120.712 356.834 121.218 356.097 121.671C355.45 122.063 354.797 122.441 354.143 122.799C353.515 123.143 352.918 123.544 352.362 123.995C351.839 124.418 351.394 124.931 351.049 125.509C350.691 126.136 350.512 126.85 350.533 127.572L345.161 127.586ZM345.258 138.961V132.221H350.677V138.961H345.258Z" fill="#EBEBEB"/>
<path d="M175.616 166.657C175.289 165.224 175.247 163.74 175.492 162.29C175.852 160.747 176.719 159.37 177.954 158.377C178.373 157.985 178.889 157.538 179.515 157.001C180.152 156.467 180.745 155.883 181.29 155.254C181.841 154.613 182.285 153.886 182.603 153.102C182.923 152.304 182.99 151.428 182.796 150.591C182.679 149.976 182.42 149.397 182.039 148.9C181.686 148.473 181.251 148.123 180.76 147.868C180.257 147.599 179.705 147.435 179.137 147.387C178.553 147.332 177.964 147.365 177.39 147.483C176.734 147.615 176.11 147.874 175.554 148.246C175.042 148.595 174.579 149.012 174.178 149.484C173.797 149.948 173.469 150.453 173.202 150.99C172.941 151.48 172.712 151.985 172.514 152.503L167.83 150.495C168.026 149.448 168.396 148.442 168.924 147.517C169.44 146.614 170.092 145.795 170.856 145.089C171.628 144.369 172.499 143.762 173.442 143.287C174.415 142.802 175.446 142.441 176.51 142.215C177.723 141.961 178.967 141.882 180.203 141.981C181.433 142.077 182.632 142.416 183.731 142.978C184.871 143.573 185.866 144.412 186.647 145.433C188.079 147.431 188.788 149.857 188.655 152.311C188.586 153.116 188.391 153.905 188.078 154.649C187.767 155.387 187.36 156.081 186.867 156.712C186.331 157.391 185.75 158.032 185.127 158.631C184.57 159.147 184.013 159.649 183.449 160.131C182.905 160.599 182.403 161.114 181.95 161.671C181.528 162.197 181.198 162.79 180.973 163.425C180.759 164.119 180.735 164.858 180.904 165.564L175.616 166.657ZM178.071 177.765L176.695 171.176L181.998 170.048L183.373 176.644L178.071 177.765Z" fill="#EBEBEB"/>
<path d="M341 220.007L350.189 219.814L354.714 219.739C356.22 219.704 357.713 219.739 359.212 219.697L358.91 220.007L358.868 212.311L359.212 212.655L350.086 212.614C347.053 212.614 344.02 212.531 340.98 212.497L341.172 212.311C341.172 213.57 341.11 214.835 341.076 216.121L341 220.007ZM341 220.007L340.904 216.197C340.904 214.918 340.828 213.618 340.815 212.311V212.125H341C344.04 212.091 347.073 212.015 350.106 212.008L359.212 211.967H359.556V212.311V220.007V220.316H359.247C357.713 220.316 356.172 220.316 354.646 220.275L350.065 220.199L341 220.007Z" fill="#EBEBEB"/>
<path d="M351.159 229.711L360.347 229.518L364.872 229.443C366.379 229.408 367.871 229.443 369.37 229.401L369.068 229.711L369.033 222.015L369.37 222.359L360.264 222.317C357.231 222.317 354.198 222.235 351.159 222.2L351.351 222.015C351.351 223.273 351.289 224.539 351.262 225.825L351.159 229.711ZM351.159 229.711L351.062 225.901C351.062 224.621 350.987 223.322 350.973 222.015V221.829H351.159C354.198 221.795 357.231 221.719 360.264 221.712L369.37 221.671H369.721V222.015L369.68 229.711V230.02H369.343C367.809 230.02 366.275 230.02 364.742 229.979L360.161 229.903L351.159 229.711Z" fill="#EBEBEB"/>
<path d="M330.828 229.711L340.017 229.518L344.542 229.443C346.042 229.408 347.541 229.443 349.04 229.401L348.738 229.711L348.71 222.015L349.054 222.359L339.948 222.317C336.915 222.317 333.875 222.235 330.842 222.2L331.028 222.015C331.028 223.273 330.973 224.539 330.938 225.825L330.828 229.711ZM330.828 229.711L330.732 225.901C330.698 224.621 330.657 223.322 330.643 222.015V221.829H330.828C333.861 221.795 336.901 221.719 339.934 221.712L349.04 221.671H349.384V222.015L349.398 229.711V230.02H349.095C347.562 230.02 346.021 230.02 344.494 229.979L339.914 229.903L330.828 229.711Z" fill="#EBEBEB"/>
<path d="M96.1178 229.711L105.299 229.518L109.825 229.443C111.331 229.408 112.83 229.443 114.33 229.401L114.02 229.711L113.986 222.015L114.33 222.359L105.244 222.317C102.204 222.317 99.1714 222.235 96.1384 222.2L96.3241 222.015C96.3241 223.273 96.2622 224.539 96.2347 225.825L96.1178 229.711ZM96.1178 229.711L96.0146 225.901C96.0146 224.621 95.939 223.322 95.9252 222.015V221.829H96.1178C99.1508 221.795 102.184 221.719 105.224 221.712L114.33 221.671H114.673V222.015L114.632 229.711V230.02H114.33C112.796 230.02 111.255 230.02 109.722 229.979L105.141 229.903L96.1178 229.711Z" fill="#EBEBEB"/>
<path d="M96.1178 15.6604L105.299 15.4679L109.825 15.3853C111.331 15.3853 112.83 15.3853 114.33 15.3853L114.02 15.6948L113.986 7.99883L114.33 8.33583L105.244 8.2533C102.204 8.2533 99.1714 8.17765 96.1384 8.14326L96.3241 7.95756C96.3241 9.21616 96.2622 10.4816 96.2347 11.7609L96.1178 15.6604ZM96.1178 15.6604L96.0146 11.8503C96.0146 10.5642 95.939 9.2643 95.9252 7.96444V7.77875H96.1178C99.1508 7.77875 102.184 7.66871 105.224 7.66871L114.33 7.62744H114.673V7.9782L114.632 15.6742V15.9768H114.33C112.796 15.9768 111.255 15.9768 109.722 15.9424L105.141 15.8186L96.1178 15.6604Z" fill="#EBEBEB"/>
<path d="M85.9871 25.3648L95.1687 25.1722L99.6941 25.0897C101.2 25.0897 102.693 25.0897 104.199 25.0897L103.889 25.3992V17.7032L104.233 18.0402L95.0655 17.9645C92.0256 17.9645 88.9926 17.882 85.9871 17.882L86.1728 17.6963C86.1728 18.9549 86.1109 20.2204 86.0834 21.4996L85.9871 25.3648ZM85.9871 25.3648L85.884 21.5546C85.884 20.2685 85.8083 18.9686 85.7945 17.6688V17.4831H85.9871C89.0201 17.4831 92.0531 17.3731 95.093 17.3731L104.199 17.3318H104.543V17.6825L104.502 25.3785V25.6812H104.199C102.658 25.6812 101.125 25.6812 99.5909 25.6812L95.0105 25.5986L85.9871 25.3648Z" fill="#EBEBEB"/>
<path d="M351.159 15.6673L360.347 15.4747L364.872 15.3991C366.379 15.3991 367.871 15.3991 369.37 15.3578L369.068 15.6673L369.033 7.97132L369.37 8.3152L360.264 8.2533C357.231 8.2533 354.198 8.17765 351.159 8.14326L351.351 7.95756C351.351 9.21616 351.289 10.4816 351.262 11.7609L351.159 15.6673ZM351.159 15.6673L351.062 11.8571C351.062 10.571 350.987 9.27806 350.973 7.97132V7.78563H351.159C354.198 7.75124 357.231 7.68246 360.264 7.67558L369.343 7.62744H369.694V7.97132L369.659 15.6673V15.9768H369.343C367.809 15.9768 366.275 15.9768 364.742 15.9768L360.161 15.9012L351.159 15.6673Z" fill="#EBEBEB"/>
<path d="M252.569 115.427L243.387 115.619L238.862 115.695C237.355 115.729 235.856 115.695 234.357 115.736L234.666 115.427L234.701 123.123L234.357 122.779L243.463 122.827C246.503 122.827 249.536 122.903 252.569 122.937L252.383 123.123C252.383 121.864 252.445 120.599 252.472 119.319L252.569 115.427ZM252.569 115.427L252.672 119.237C252.672 120.523 252.747 121.816 252.761 123.123V123.308H252.569C249.536 123.308 246.503 123.412 243.463 123.418L234.357 123.46H234.013V123.109L234.054 115.413V115.104H234.357C235.891 115.104 237.431 115.104 238.965 115.138L243.545 115.214L252.569 115.427Z" fill="#EBEBEB"/>
<path d="M242.41 105.722L233.229 105.915L228.703 105.99C227.197 105.99 225.698 105.99 224.199 106.032L224.508 105.722L224.543 113.418L224.199 113.074L233.305 113.122C236.338 113.122 239.377 113.198 242.41 113.232L242.225 113.418C242.225 112.16 242.28 110.894 242.314 109.615L242.41 105.722ZM242.41 105.722L242.507 109.532C242.541 110.818 242.589 112.111 242.596 113.418V113.604H242.404C239.371 113.638 236.331 113.707 233.298 113.714L224.192 113.755H223.848V113.411L223.889 105.715V105.406H224.226C225.76 105.406 227.3 105.406 228.834 105.44L233.415 105.516L242.41 105.722Z" fill="#EBEBEB"/>
<path d="M82.1151 264.457L118.504 264.292L154.893 264.23L227.665 264.113L300.437 264.23L336.826 264.292L373.215 264.457L336.826 264.629L300.437 264.691L227.665 264.801L154.893 264.691L118.504 264.629L82.1151 264.457Z" fill="#032F61"/>
<path d="M227.665 300C296.184 300 351.729 294.593 351.729 287.923C351.729 281.253 296.184 275.846 227.665 275.846C159.146 275.846 103.601 281.253 103.601 287.923C103.601 294.593 159.146 300 227.665 300Z" fill="#EBEBEB"/>
<path d="M349.398 188.783C346.784 186.225 343.408 183.13 339.412 184.237C335.657 185.275 334.219 189.374 333.545 192.793C332.679 197.201 332.005 201.644 331.303 206.08C330.602 210.516 329.928 215.021 329.288 219.526C328.921 222.057 328.563 224.59 328.215 227.125C328.036 228.391 327.86 229.656 327.685 230.922C327.514 232.167 327.307 233.412 327.238 234.663C327.238 235.062 327.844 235.117 327.926 234.739C328.414 232.628 328.614 230.427 328.923 228.288C329.233 226.149 329.549 223.969 329.859 221.816C330.485 217.531 331.138 213.253 331.778 208.969C332.417 204.684 333.091 200.413 333.779 196.135C334.357 192.504 334.632 187.999 337.844 185.606C338.717 185.009 339.727 184.645 340.78 184.546C341.832 184.447 342.893 184.618 343.861 185.042C345.973 185.853 347.665 187.366 349.322 188.866C349.398 188.914 349.467 188.838 349.398 188.783Z" fill="#032F61"/>
<path d="M345.842 186.169C345.842 186.169 340.498 184.25 337.864 188.143C335.23 192.036 338.38 201.953 362.692 207.544C361.981 199.945 360.005 192.519 356.846 185.571C351.633 174.202 342.342 178.507 345.842 186.169Z" fill="#F36B1C"/>
<path d="M361.296 205.922C360.929 205.241 360.52 204.584 360.072 203.955C359.666 203.329 359.253 202.703 358.841 202.084C358.531 201.616 358.208 201.148 357.892 200.708C357.892 200.598 357.892 200.481 357.933 200.364L358.015 199.732C358.077 199.278 358.146 198.817 358.208 198.356C358.27 197.895 358.352 197.455 358.442 196.981C358.498 196.494 358.604 196.015 358.758 195.55C358.758 195.474 358.662 195.44 358.655 195.55C358.603 195.826 358.529 196.097 358.435 196.362L358.27 196.974C358.153 197.435 358.043 197.895 357.94 198.349C357.837 198.803 357.761 199.209 357.685 199.635C357.651 199.849 357.623 200.055 357.596 200.261C357.163 199.642 356.716 199.03 356.262 198.432C354.969 196.733 353.607 195.096 352.19 193.494C352.19 193.494 352.19 193.494 352.19 193.452C352.321 190.901 352.259 188.37 352.823 185.887C352.823 185.818 352.74 185.777 352.72 185.846C352.079 188.215 351.773 190.662 351.812 193.115C351.31 192.552 350.794 191.988 350.278 191.43C349.088 190.158 347.885 188.9 346.654 187.675C346.606 187.627 346.523 187.675 346.571 187.751C348.634 189.959 350.567 192.256 352.465 194.594C350.98 194.57 349.495 194.625 348.015 194.759C346.372 194.876 344.735 195.089 343.098 195.316C343.022 195.316 343.043 195.433 343.098 195.426C344.725 195.187 346.365 195.04 348.009 194.986C349.597 194.917 351.172 194.986 352.761 194.986C353.788 196.252 354.799 197.531 355.794 198.824H355.588C355.216 198.824 354.845 198.824 354.474 198.824C353.731 198.824 352.995 198.893 352.259 198.955C350.748 199.08 349.247 199.31 347.768 199.642C347.753 199.642 347.739 199.648 347.729 199.658C347.719 199.669 347.713 199.683 347.713 199.697C347.713 199.712 347.719 199.726 347.729 199.736C347.739 199.747 347.753 199.752 347.768 199.752C349.26 199.58 350.76 199.443 352.259 199.388C352.947 199.388 353.696 199.388 354.412 199.388H355.588C355.793 199.416 356.003 199.397 356.2 199.333C356.851 200.181 357.502 201.032 358.153 201.884C358.669 202.572 359.178 203.26 359.68 203.948C360.182 204.635 360.656 205.426 361.22 206.087C361.248 206.038 361.324 205.977 361.296 205.922Z" fill="#032F61"/>
<path d="M348.167 191.692C347.305 191.582 346.436 191.541 345.567 191.568C344.7 191.568 343.827 191.568 342.96 191.623C342.885 191.623 342.892 191.733 342.96 191.733C343.841 191.664 344.721 191.651 345.601 191.664C346.482 191.678 347.307 191.761 348.153 191.733C348.194 191.733 348.194 191.699 348.167 191.692Z" fill="#032F61"/>
<path d="M355.801 193.652C355.897 192.82 356 191.987 356.179 191.169C356.179 191.154 356.173 191.14 356.163 191.13C356.153 191.12 356.139 191.114 356.124 191.114C356.11 191.114 356.096 191.12 356.085 191.13C356.075 191.14 356.069 191.154 356.069 191.169C355.945 191.987 355.787 192.799 355.67 193.617C355.608 194.023 355.553 194.436 355.498 194.842C355.429 195.225 355.396 195.614 355.402 196.004C355.407 196.019 355.416 196.033 355.429 196.042C355.442 196.052 355.458 196.057 355.474 196.057C355.49 196.057 355.506 196.052 355.519 196.042C355.532 196.033 355.542 196.019 355.546 196.004C355.619 195.62 355.66 195.232 355.67 194.842C355.705 194.443 355.753 194.044 355.801 193.652Z" fill="#032F61"/>
<path d="M354.212 184.45C353.999 185.261 353.786 186.08 353.641 186.898C353.566 187.318 353.497 187.737 353.442 188.157C353.366 188.562 353.339 188.976 353.359 189.388C353.359 189.397 353.363 189.406 353.369 189.412C353.376 189.419 353.385 189.422 353.394 189.422C353.403 189.422 353.412 189.419 353.418 189.412C353.425 189.406 353.428 189.397 353.428 189.388C353.525 189.004 353.587 188.613 353.614 188.219C353.669 187.813 353.731 187.414 353.8 187.008C353.951 186.162 354.102 185.323 354.315 184.491C354.322 184.422 354.212 184.381 354.212 184.45Z" fill="#032F61"/>
<path d="M322.575 233.762C322.438 232.235 322.287 230.701 322.128 229.174C321.803 226.148 321.438 223.124 321.035 220.103C320.629 217.097 320.244 214.078 319.756 211.08C319.58 209.677 319.269 208.295 318.827 206.953C318.67 206.38 318.384 205.851 317.99 205.407C317.597 204.962 317.107 204.613 316.558 204.388C313.696 203.404 311.743 206.368 310.615 208.466C310.581 208.528 310.67 208.576 310.712 208.521C311.399 207.524 313.311 204.738 315.485 204.869C316.943 204.952 318.112 205.99 318.813 209.628C320.56 218.7 322.135 237.139 322.321 238.315C322.417 238.954 322.864 238.927 322.871 238.239C322.844 236.767 322.672 235.261 322.575 233.762Z" fill="#032F61"/>
<path d="M311.351 207.372C311.351 207.372 313.855 198.542 308.325 202.957C299.123 210.309 298.8 226.272 298.8 226.272C298.8 226.272 315.154 216.774 317.183 210.509C320.216 201.196 311.351 207.372 311.351 207.372Z" fill="#F36B1C"/>
<path d="M314.446 211.705C313.167 211.967 311.86 212.139 310.567 212.324L308.724 212.586C308.311 212.641 307.892 212.682 307.472 212.73C308.69 211.052 309.921 209.381 311.09 207.668C311.101 207.654 311.106 207.635 311.103 207.617C311.1 207.599 311.091 207.583 311.076 207.572C311.062 207.561 311.043 207.556 311.025 207.559C311.007 207.561 310.991 207.571 310.98 207.586C310.005 208.586 309.086 209.64 308.229 210.742L307.5 208.679C307.225 207.888 306.922 207.104 306.723 206.286C306.723 206.217 306.599 206.286 306.619 206.32C306.84 207.125 306.998 207.957 307.218 208.769C307.438 209.58 307.665 210.323 307.94 211.086C307.342 211.863 306.764 212.661 306.207 213.466C305.925 212.668 305.574 211.898 305.333 211.086C305.333 211.018 305.203 211.052 305.223 211.086C305.519 211.987 305.677 212.916 305.952 213.837C305.574 214.388 305.203 214.938 304.845 215.488C304.157 216.513 303.559 217.551 302.954 218.597C302.906 218.617 302.867 218.652 302.841 218.697C302.815 218.741 302.804 218.793 302.809 218.844C301.778 220.632 300.794 222.441 299.824 224.271C299.817 224.283 299.815 224.299 299.819 224.313C299.823 224.327 299.832 224.339 299.845 224.346C299.858 224.354 299.873 224.355 299.887 224.352C299.901 224.348 299.913 224.338 299.921 224.326C300.89 222.517 301.984 220.756 303.091 219.03C303.265 218.973 303.445 218.938 303.628 218.927L304.192 218.803C304.611 218.714 305.031 218.604 305.45 218.5C306.282 218.294 307.101 218.095 307.947 217.95C308.016 217.95 307.981 217.833 307.947 217.847C306.956 218.033 305.966 218.15 304.962 218.26C304.487 218.315 304.02 218.377 303.552 218.452H303.483C304.066 217.563 304.662 216.678 305.271 215.797C305.863 214.938 306.475 214.085 307.087 213.232C307.658 213.156 308.215 213.005 308.779 212.902L310.677 212.531C311.943 212.276 313.208 211.994 314.481 211.788C314.549 211.829 314.515 211.692 314.446 211.705Z" fill="#032F61"/>
<path d="M304.618 212.579C304.542 212.345 304.474 212.111 304.398 211.891C304.245 211.403 304.118 210.907 304.02 210.405C304.02 210.337 303.903 210.371 303.917 210.405C304.027 210.907 304.143 211.403 304.254 211.898C304.354 212.397 304.496 212.888 304.68 213.363C304.691 213.383 304.709 213.398 304.731 213.407C304.752 213.416 304.776 213.417 304.798 213.411C304.82 213.404 304.839 213.391 304.853 213.372C304.866 213.353 304.873 213.331 304.873 213.308C304.797 213.074 304.694 212.826 304.618 212.579Z" fill="#032F61"/>
<path d="M316.117 209.663C315.375 209.773 314.625 209.828 313.868 209.897C313.112 209.966 312.376 210.062 311.626 210.179C311.585 210.179 311.585 210.247 311.626 210.241C312.376 210.192 313.126 210.131 313.875 210.034C314.625 209.938 315.368 209.828 316.124 209.773C316.193 209.766 316.186 209.656 316.117 209.663Z" fill="#032F61"/>
<path d="M334.577 222.586C334.281 216.086 333.889 209.594 333.201 203.122C332.878 199.897 332.513 196.678 332.06 193.494C331.659 190.338 331.036 187.215 330.196 184.147C329.62 181.762 328.562 179.52 327.087 177.558C326.359 176.604 325.399 175.851 324.3 175.37C323.2 174.889 321.996 174.695 320.801 174.807C317.961 175.158 315.663 176.953 313.683 178.899C311.461 181.087 309.426 183.473 307.369 185.777C306.846 186.369 306.331 186.967 305.815 187.565C305.774 187.62 305.849 187.696 305.897 187.641C307.912 185.33 310.024 183.081 312.19 180.935C314.212 178.948 316.317 176.809 319.068 175.956C320.37 175.543 321.764 175.51 323.084 175.86C324.136 176.192 325.084 176.791 325.835 177.6C327.417 179.236 328.298 181.458 328.93 183.611C330.677 189.587 331.303 195.853 331.95 202.022C332.596 208.191 333.057 214.573 333.373 220.873C333.69 227.173 333.937 233.535 334.549 239.848C334.625 240.626 334.721 241.403 334.824 242.18C334.886 242.696 335.698 242.703 335.657 242.18C335.168 235.646 334.866 229.119 334.577 222.586Z" fill="#032F61"/>
<path d="M313.339 179.587C313.339 179.587 317.053 172.709 312.651 170.509C308.249 168.308 293.586 184.69 289.302 208.652C289.302 208.652 313.009 198.163 321.062 187.709C329.116 177.256 319.996 174.958 313.339 179.587Z" fill="#F36B1C"/>
<path d="M316.826 185.172C314.164 185.172 311.503 184.972 308.841 184.986L310.34 183.274C311.081 182.513 311.77 181.704 312.403 180.853C312.438 180.798 312.362 180.722 312.307 180.763C311.583 181.383 310.909 182.059 310.292 182.785C309.604 183.473 308.958 184.202 308.298 184.917C307.28 186.025 306.282 187.139 305.285 188.267C305.285 188.157 305.285 188.047 305.285 187.944C305.285 187.476 305.285 187.008 305.285 186.568C305.285 185.667 305.285 184.759 305.285 183.858C305.285 182.029 305.285 180.186 305.423 178.356C305.423 178.287 305.32 178.287 305.313 178.356C305.189 180.199 304.996 182.029 304.907 183.858C304.866 184.766 304.845 185.667 304.831 186.575C304.831 187.036 304.831 187.503 304.831 187.95C304.831 188.205 304.831 188.473 304.831 188.735C304.68 188.913 304.515 189.085 304.364 189.257C302.238 191.692 300.237 194.202 298.243 196.761C298.243 196.623 298.243 196.472 298.208 196.334C298.208 196.052 298.146 195.77 298.119 195.488C298.05 194.876 297.967 194.271 297.871 193.659C297.775 193.047 297.699 192.517 297.603 191.946C297.507 191.376 297.335 190.66 297.287 190.014C297.29 190.005 297.291 189.996 297.29 189.988C297.288 189.979 297.285 189.97 297.28 189.963C297.275 189.956 297.268 189.95 297.26 189.946C297.253 189.942 297.244 189.94 297.235 189.94C297.226 189.94 297.217 189.942 297.21 189.946C297.202 189.95 297.195 189.956 297.19 189.963C297.185 189.97 297.182 189.979 297.18 189.988C297.179 189.996 297.18 190.005 297.183 190.014C297.291 190.661 297.365 191.312 297.404 191.967L297.569 193.728C297.617 194.312 297.672 194.897 297.734 195.488L297.816 196.334C297.816 196.472 297.851 196.616 297.871 196.754C297.878 196.874 297.916 196.99 297.981 197.091L296.97 198.411C295.595 200.193 294.302 201.994 292.981 203.79C292.94 203.845 293.022 203.92 293.064 203.865C294.315 202.235 295.602 200.633 296.901 199.051C297.878 199.092 298.875 199.016 299.852 199.003C300.829 198.989 301.915 199.003 302.933 199.003C302.948 199.003 302.962 198.997 302.972 198.987C302.982 198.976 302.988 198.962 302.988 198.948C302.988 198.933 302.982 198.919 302.972 198.909C302.962 198.898 302.948 198.893 302.933 198.893C301.901 198.893 300.87 198.927 299.845 198.934C298.82 198.941 297.954 198.893 297.018 198.934C298.16 197.558 299.322 196.183 300.457 194.773L301.805 193.26C302.2 193.312 302.598 193.325 302.995 193.301H304.37C305.244 193.301 306.117 193.301 306.998 193.267C308.807 193.267 310.615 193.177 312.424 193.171C312.432 193.174 312.441 193.175 312.45 193.174C312.459 193.172 312.467 193.169 312.475 193.164C312.482 193.159 312.488 193.152 312.492 193.144C312.496 193.137 312.498 193.128 312.498 193.119C312.498 193.11 312.496 193.101 312.492 193.093C312.488 193.086 312.482 193.079 312.475 193.074C312.467 193.069 312.459 193.066 312.45 193.064C312.441 193.063 312.432 193.064 312.424 193.067C310.608 193.067 308.8 192.964 306.991 192.916C306.111 192.916 305.237 192.868 304.357 192.854H302.981C302.72 192.854 302.445 192.854 302.17 192.854L305.161 189.312C305.185 189.297 305.204 189.275 305.216 189.25C306.186 188.102 307.156 186.96 308.139 185.812C308.277 185.66 308.414 185.509 308.545 185.351C311.296 185.433 314.047 185.254 316.798 185.309C316.901 185.282 316.901 185.172 316.826 185.172Z" fill="#032F61"/>
<path d="M315.464 189.883H314.817C314.805 189.883 314.792 189.888 314.783 189.897C314.774 189.906 314.769 189.918 314.769 189.931C314.769 189.944 314.774 189.956 314.783 189.965C314.792 189.974 314.805 189.979 314.817 189.979H315.457C315.466 189.975 315.474 189.969 315.479 189.961C315.485 189.953 315.488 189.943 315.489 189.933C315.49 189.923 315.488 189.914 315.483 189.905C315.479 189.896 315.472 189.888 315.464 189.883Z" fill="#032F61"/>
<path d="M314.027 189.89C313.174 189.89 312.321 189.89 311.468 189.835L310.196 189.821C309.801 189.773 309.401 189.773 309.006 189.821C308.995 189.821 308.985 189.825 308.977 189.833C308.969 189.841 308.965 189.851 308.965 189.862C308.965 189.873 308.969 189.884 308.977 189.892C308.985 189.899 308.995 189.904 309.006 189.904C309.4 189.983 309.802 190.011 310.203 189.986H311.482H314.04C314.102 190 314.102 189.89 314.027 189.89Z" fill="#032F61"/>
<path d="M306.578 197.895C304.844 197.604 303.089 197.445 301.331 197.421V197.455C303.077 197.62 304.818 197.717 306.551 197.999C306.619 198.012 306.647 197.902 306.578 197.895Z" fill="#032F61"/>
<path d="M299.446 190.261C299.446 190.11 299.412 189.958 299.391 189.807C299.35 189.463 299.295 189.119 299.24 188.782C299.137 188.129 299.027 187.482 298.903 186.829C298.903 186.774 298.786 186.788 298.793 186.829C298.875 187.517 298.951 188.17 299.013 188.844L299.095 189.835C299.086 190.151 299.13 190.468 299.226 190.77C299.24 190.79 299.259 190.807 299.282 190.817C299.304 190.827 299.329 190.83 299.354 190.827C299.378 190.823 299.401 190.813 299.42 190.797C299.439 190.78 299.453 190.759 299.46 190.735C299.484 190.578 299.479 190.417 299.446 190.261Z" fill="#032F61"/>
<path d="M334.343 170.764C333.49 169.182 332.41 167.098 330.292 167.229C328.545 167.339 327.754 169.12 327.383 170.599C326.227 175.158 326.145 179.973 325.925 184.649C325.443 194.532 325.017 204.422 324.955 214.319C324.955 217.07 324.955 219.821 324.955 222.572C324.955 225.371 324.955 228.184 325.148 230.977C325.148 231.031 325.169 231.084 325.208 231.123C325.247 231.161 325.299 231.183 325.354 231.183C325.409 231.183 325.461 231.161 325.5 231.123C325.539 231.084 325.56 231.031 325.56 230.977C325.56 228.583 325.491 226.162 325.485 223.796C325.478 221.431 325.485 219.127 325.526 216.788C325.604 212.061 325.73 207.334 325.904 202.607C326.083 197.909 326.289 193.212 326.489 188.515C326.585 186.169 326.688 183.817 326.791 181.472C326.895 179.127 326.991 176.926 327.252 174.663C327.397 173.391 327.582 172.125 327.851 170.88C327.981 169.952 328.359 169.075 328.944 168.343C329.348 167.944 329.881 167.702 330.447 167.662C331.014 167.621 331.576 167.785 332.032 168.123C333.002 168.821 333.761 169.773 334.226 170.874C334.241 170.889 334.261 170.898 334.282 170.899C334.303 170.899 334.324 170.892 334.339 170.877C334.355 170.862 334.364 170.842 334.365 170.821C334.365 170.8 334.357 170.779 334.343 170.764Z" fill="#032F61"/>
<path d="M333.765 170.007C333.765 170.007 332.025 163.859 335.877 166.933C342.287 172.05 342.513 183.185 342.513 183.185C342.513 183.185 331.117 176.568 329.701 172.18C327.589 165.702 333.765 170.007 333.765 170.007Z" fill="#F36B1C"/>
<path d="M340.113 178.624C340.01 178.453 339.9 178.287 339.79 178.116C339.804 177.942 339.804 177.767 339.79 177.593C339.79 177.331 339.79 177.063 339.79 176.802C339.79 176.279 339.79 175.757 339.845 175.241C339.845 175.226 339.839 175.212 339.829 175.202C339.819 175.191 339.805 175.186 339.79 175.186C339.775 175.186 339.761 175.191 339.751 175.202C339.741 175.212 339.735 175.226 339.735 175.241C339.735 175.75 339.687 176.265 339.673 176.774C339.673 177.029 339.673 177.283 339.673 177.538C339.673 177.634 339.673 177.751 339.673 177.868C339.226 177.18 338.765 176.492 338.298 175.805C338.16 175.605 338.016 175.413 337.878 175.22C337.805 174.553 337.793 173.881 337.844 173.212C337.844 172.524 337.844 171.781 337.885 171.066C337.885 170.997 337.775 170.997 337.775 171.066C337.775 171.809 337.72 172.552 337.679 173.294C337.634 173.823 337.62 174.353 337.637 174.883C336.537 173.391 335.368 171.946 334.198 170.509C334.157 170.461 334.075 170.509 334.116 170.578C334.845 171.506 335.546 172.455 336.234 173.418C334.893 173.102 333.531 172.923 332.17 172.73C332.101 172.73 332.073 172.827 332.17 172.84C333.614 173.061 335.031 173.418 336.454 173.735C336.998 174.505 337.541 175.275 338.071 176.052L338.717 177.001H338.662L338.215 176.939L337.266 176.857C336.613 176.802 335.952 176.768 335.292 176.733C335.223 176.733 335.23 176.843 335.292 176.843C335.939 176.843 336.585 176.905 337.225 176.974L338.249 177.098L338.69 177.153H338.82C339.185 177.689 339.556 178.226 339.914 178.762C340.56 179.718 341.138 180.736 341.819 181.651C341.828 181.658 341.839 181.663 341.85 181.664C341.862 181.665 341.874 181.662 341.884 181.656C341.894 181.65 341.901 181.641 341.906 181.63C341.91 181.619 341.911 181.607 341.908 181.596C341.37 180.57 340.771 179.578 340.113 178.624Z" fill="#032F61"/>
<path d="M337.28 171.678C337.28 171.437 337.28 171.197 337.28 170.956C337.266 170.453 337.286 169.95 337.342 169.45C337.345 169.441 337.346 169.432 337.345 169.424C337.343 169.415 337.34 169.406 337.335 169.399C337.33 169.392 337.323 169.386 337.315 169.382C337.308 169.378 337.299 169.375 337.29 169.375C337.281 169.375 337.272 169.378 337.264 169.382C337.257 169.386 337.25 169.392 337.245 169.399C337.24 169.406 337.236 169.415 337.235 169.424C337.234 169.432 337.235 169.441 337.238 169.45C337.238 169.952 337.183 170.447 337.156 170.942C337.156 171.197 337.156 171.444 337.156 171.692V172.036C337.139 172.154 337.139 172.275 337.156 172.393C337.156 172.406 337.161 172.418 337.17 172.427C337.179 172.436 337.191 172.441 337.204 172.441C337.217 172.441 337.229 172.436 337.238 172.427C337.247 172.418 337.252 172.406 337.252 172.393C337.269 172.284 337.269 172.172 337.252 172.063L337.28 171.678Z" fill="#032F61"/>
<path d="M335.87 174.223C335.443 174.147 335.01 174.126 334.584 174.092C334.157 174.058 333.648 174.009 333.208 173.948C333.194 173.948 333.18 173.953 333.169 173.964C333.159 173.974 333.153 173.988 333.153 174.003C333.153 174.017 333.159 174.031 333.169 174.041C333.18 174.052 333.194 174.058 333.208 174.058C334.109 174.113 335.003 174.278 335.904 174.305C335.911 174.312 335.918 174.229 335.87 174.223Z" fill="#032F61"/>
<path d="M339.446 174.257C339.48 174.305 339.446 174.443 339.446 174.498V175.124C339.446 175.268 339.446 175.413 339.446 175.557C339.422 175.68 339.422 175.806 339.446 175.928C339.446 175.928 339.48 175.928 339.487 175.928C339.501 175.87 339.501 175.808 339.487 175.75C339.484 175.683 339.484 175.617 339.487 175.55V175.124C339.487 174.979 339.487 174.835 339.487 174.691V174.498C339.487 174.436 339.487 174.305 339.487 174.257C339.487 174.209 339.377 174.154 339.446 174.257Z" fill="#032F61"/>
<path d="M334.604 203.576C332.211 201.781 330.058 199.195 326.833 199.065C324.171 198.961 322.307 200.963 321.241 203.191C320.708 204.38 320.273 205.611 319.941 206.871C319.46 208.549 319.001 210.238 318.566 211.939C317.736 215.282 317.025 218.652 316.434 222.049C316.11 223.941 315.808 225.839 315.567 227.744C315.265 229.675 315.079 231.623 315.01 233.576C315.009 233.651 315.036 233.724 315.085 233.781C315.135 233.837 315.203 233.873 315.278 233.882C315.353 233.89 315.428 233.871 315.489 233.827C315.55 233.783 315.593 233.718 315.608 233.645C315.932 232.049 316.069 230.406 316.296 228.796C316.523 227.187 316.778 225.557 317.046 223.948C317.596 220.738 318.233 217.529 318.958 214.319C319.646 211.3 320.333 208.239 321.289 205.303C321.977 203.198 323.105 200.743 325.381 199.986C328.82 198.838 331.977 201.761 334.508 203.666C334.584 203.7 334.659 203.618 334.604 203.576Z" fill="#032F61"/>
<path d="M332.128 201.857C332.128 201.857 329.914 195.55 333.112 194.292C337.926 192.442 350.43 206.554 347.974 228.177C347.974 228.177 338.298 222.847 331.145 216.843C323.992 210.839 322.204 203.006 325.32 200.984C328.435 198.962 332.128 201.857 332.128 201.857Z" fill="#F36B1C"/>
<path d="M346.53 223.562C346.197 222.807 345.809 222.079 345.368 221.382C344.955 220.639 344.542 219.903 344.116 219.174C343.284 217.751 342.458 216.327 341.606 214.91L341.186 214.222C341.186 214.14 341.221 214.05 341.234 213.968L341.379 213.342C341.489 212.874 341.571 212.4 341.654 211.925C341.833 211.004 341.991 210.068 342.238 209.174C342.238 209.112 342.149 209.092 342.135 209.174C341.936 210.096 341.64 211.011 341.372 211.925C341.234 212.372 341.09 212.812 340.973 213.266L340.849 213.727C339.824 212.042 338.786 210.364 337.644 208.741C337.718 208.519 337.757 208.287 337.761 208.053C337.795 207.737 337.83 207.42 337.871 207.104C337.954 206.416 338.036 205.68 338.139 204.972C338.346 203.596 338.552 202.221 338.896 200.845C338.896 200.777 338.806 200.756 338.793 200.845C338.442 202.221 338.071 203.596 337.809 204.972C337.685 205.66 337.562 206.348 337.472 207.035C337.431 207.379 337.39 207.723 337.355 208.067C337.355 208.163 337.355 208.273 337.314 208.376C336.97 207.888 336.626 207.393 336.262 206.918C335.154 205.46 334.006 204.044 332.823 202.627C332.782 202.572 332.685 202.627 332.734 202.689C334.714 205.222 336.534 207.877 338.181 210.639L339.123 212.173L338.806 212.132C338.401 212.077 337.995 212.056 337.589 212.015L335.141 211.801C333.511 211.671 331.874 211.574 330.251 211.403C330.182 211.403 330.161 211.499 330.251 211.506C331.901 211.698 333.538 211.96 335.182 212.193C335.994 212.31 336.798 212.42 337.61 212.524C338.224 212.646 338.848 212.708 339.474 212.709C340.113 213.755 340.76 214.773 341.399 215.832C341.255 215.832 341.104 215.832 340.966 215.832H338.635C337.582 215.832 336.53 215.832 335.485 215.832C335.409 215.832 335.423 215.935 335.485 215.935C336.551 215.935 337.61 216.004 338.676 216.059L340.189 216.148L340.945 216.203C341.172 216.256 341.407 216.256 341.633 216.203L343.27 218.858C343.772 219.676 344.281 220.488 344.797 221.299C345.283 222.16 345.832 222.983 346.441 223.762C346.468 223.665 346.557 223.631 346.53 223.562Z" fill="#032F61"/>
<path d="M341.915 206.086C341.819 206.783 341.674 207.473 341.482 208.15C341.303 208.837 341.104 209.525 340.877 210.213C340.873 210.222 340.871 210.231 340.871 210.241C340.872 210.25 340.874 210.26 340.878 210.268C340.882 210.277 340.888 210.285 340.895 210.291C340.902 210.297 340.91 210.302 340.919 210.305C340.929 210.308 340.938 210.309 340.948 210.308C340.957 210.307 340.966 210.304 340.974 210.299C340.983 210.294 340.99 210.288 340.996 210.28C341.001 210.272 341.005 210.263 341.007 210.254C341.22 209.566 341.413 208.879 341.578 208.191C341.743 207.503 341.853 206.815 342.025 206.093C342.026 206.079 342.021 206.064 342.011 206.053C342.002 206.042 341.988 206.036 341.974 206.035C341.959 206.034 341.945 206.039 341.934 206.048C341.923 206.058 341.916 206.072 341.915 206.086Z" fill="#032F61"/>
<path d="M334.804 210.31C334.655 210.185 334.468 210.114 334.274 210.11L333.359 209.986C332.795 209.911 332.225 209.849 331.661 209.78C330.478 209.642 329.302 209.526 328.119 209.381C328.05 209.381 328.029 209.477 328.119 209.484C329.233 209.622 330.34 209.794 331.454 209.938L333.084 210.151L333.875 210.234C334.18 210.237 334.482 210.29 334.769 210.392C334.779 210.392 334.788 210.389 334.796 210.384C334.804 210.379 334.811 210.371 334.814 210.362C334.818 210.354 334.819 210.344 334.817 210.334C334.815 210.325 334.811 210.316 334.804 210.31Z" fill="#032F61"/>
<path d="M341.901 219.821C341.344 219.773 340.78 219.752 340.223 219.738H339.377H338.972C338.795 219.755 338.618 219.755 338.442 219.738C338.366 219.738 338.359 219.855 338.442 219.841C338.607 219.824 338.773 219.824 338.937 219.841H339.377L340.216 219.896C340.773 219.931 341.337 219.965 341.895 219.965C341.963 219.938 341.97 219.821 341.901 219.821Z" fill="#032F61"/>
<path d="M345.313 217.4L345.498 216.451C345.608 215.825 345.725 215.199 345.842 214.58C345.842 214.565 345.836 214.551 345.826 214.541C345.816 214.531 345.802 214.525 345.787 214.525C345.773 214.525 345.759 214.531 345.748 214.541C345.738 214.551 345.732 214.565 345.732 214.58L345.32 216.402C345.251 216.705 345.182 217.008 345.12 217.31C345.12 217.455 345.065 217.592 345.031 217.737C344.987 217.881 344.971 218.033 344.983 218.184C344.984 218.198 344.989 218.211 344.998 218.221C345.007 218.232 345.019 218.24 345.033 218.244C345.046 218.247 345.06 218.247 345.073 218.242C345.087 218.238 345.098 218.229 345.106 218.218C345.226 217.961 345.296 217.683 345.313 217.4Z" fill="#032F61"/>
<path d="M312.534 231.155L313.208 238.824L315.498 264.704H335.767L338.628 238.824L339.474 231.155H312.534Z" fill="#084387"/>
<path d="M312.534 231.155L313.208 238.824H338.628L339.474 231.155H312.534Z" fill="#032F61"/>
<path d="M310.526 235.289H341.482V229.071H310.526V235.289Z" fill="#084387"/>
<path d="M202.906 205.729C202.906 194.725 204.703 184.838 208.298 176.066C211.892 167.295 219.306 159.654 230.54 153.143C233.914 151.121 238.073 148.829 243.016 146.266C248.102 143.595 252.95 140.493 257.507 136.995C262.165 133.472 266.209 129.203 269.474 124.361C272.765 119.425 274.471 113.601 274.364 107.669C274.462 103.349 273.543 99.0655 271.681 95.1655C269.964 91.6839 267.556 88.5881 264.604 86.0665C261.573 83.54 258.065 81.6479 254.288 80.5026C250.416 79.2805 246.381 78.6566 242.321 78.6525C237.72 78.5896 233.152 79.4405 228.882 81.1559C224.954 82.7745 221.27 84.9293 217.933 87.5589C214.681 90.1334 211.739 93.076 209.164 96.3278C206.794 99.2838 204.601 102.377 202.596 105.592H197.521L173.263 85.3719C176.069 78.5726 180.001 72.2948 184.893 66.8024C189.677 61.4472 195.242 56.8448 201.4 53.1505C207.663 49.4265 214.422 46.6063 221.475 44.7736C228.736 42.8559 236.215 41.8918 243.724 41.9057C252.286 41.9105 260.803 43.1592 269.006 45.6127C277.186 48.0202 284.806 52.0322 291.42 57.4146C298.252 63.0702 303.774 70.143 307.603 78.1436C311.757 86.5709 313.834 96.6282 313.834 108.315C313.938 114.753 313.087 121.171 311.31 127.359C309.696 132.712 307.248 137.777 304.054 142.366C300.892 146.878 297.153 150.956 292.933 154.498C288.351 158.316 283.506 161.807 278.435 164.945C273.937 167.65 269.444 170.236 264.955 172.703C260.611 175.073 256.492 177.836 252.651 180.956C249.034 183.888 245.953 187.425 243.545 191.41C241.189 195.344 240.01 200.119 240.01 205.736L202.906 205.729ZM203.593 284.264V237.751H241.007V284.264H203.593Z" fill="#F36B1C"/>
<g opacity="0.2">
<path opacity="0.2" d="M202.906 205.729C202.906 194.725 204.703 184.838 208.298 176.066C211.892 167.295 219.306 159.654 230.54 153.143C233.914 151.121 238.073 148.829 243.016 146.266C248.102 143.595 252.95 140.493 257.507 136.995C262.165 133.472 266.209 129.203 269.474 124.361C272.765 119.425 274.471 113.601 274.364 107.669C274.462 103.349 273.543 99.0655 271.681 95.1655C269.964 91.6839 267.556 88.5881 264.604 86.0665C261.573 83.54 258.065 81.6479 254.288 80.5026C250.416 79.2805 246.381 78.6566 242.321 78.6525C237.72 78.5896 233.152 79.4405 228.882 81.1559C224.954 82.7745 221.27 84.9293 217.933 87.5589C214.681 90.1334 211.739 93.076 209.164 96.3278C206.794 99.2838 204.601 102.377 202.596 105.592H197.521L173.263 85.3719C176.069 78.5726 180.001 72.2948 184.893 66.8024C189.677 61.4472 195.242 56.8448 201.4 53.1505C207.663 49.4265 214.422 46.6063 221.475 44.7736C228.736 42.8559 236.215 41.8918 243.724 41.9057C252.286 41.9105 260.803 43.1592 269.006 45.6127C277.186 48.0202 284.806 52.0322 291.42 57.4146C298.252 63.0702 303.774 70.143 307.603 78.1436C311.757 86.5709 313.834 96.6282 313.834 108.315C313.938 114.753 313.087 121.171 311.31 127.359C309.696 132.712 307.248 137.777 304.054 142.366C300.892 146.878 297.153 150.956 292.933 154.498C288.351 158.316 283.506 161.807 278.435 164.945C273.937 167.65 269.444 170.236 264.955 172.703C260.611 175.073 256.492 177.836 252.651 180.956C249.034 183.888 245.953 187.425 243.545 191.41C241.189 195.344 240.01 200.119 240.01 205.736L202.906 205.729ZM203.593 284.264V237.751H241.007V284.264H203.593Z" fill="black"/>
</g>
<path d="M197.858 205.73C197.858 194.725 199.655 184.838 203.25 176.067C206.844 167.295 214.261 159.654 225.499 153.144C228.869 151.122 233.025 148.829 237.968 146.266C243.057 143.597 247.907 140.495 252.465 136.995C257.122 133.471 261.166 129.202 264.432 124.361C267.719 119.423 269.422 113.6 269.316 107.669C269.404 103.359 268.481 99.0886 266.62 95.2002C264.902 91.7186 262.494 88.6228 259.543 86.1012C256.511 83.5747 253.003 81.6826 249.226 80.5373C245.355 79.3152 241.319 78.6913 237.259 78.6872C232.658 78.611 228.087 79.4502 223.814 81.1562C219.884 82.7751 216.197 84.9299 212.858 87.5592C209.608 90.1338 206.668 93.0764 204.096 96.3281C201.723 99.2841 199.528 102.377 197.521 105.592L168.195 85.3722C170.998 78.5718 174.93 72.2938 179.825 66.8027C184.607 61.4456 190.172 56.8428 196.331 53.1508C202.593 49.4279 209.349 46.6077 216.4 44.7739C223.666 42.8538 231.153 41.8897 238.669 41.906C247.231 41.9103 255.748 43.159 263.951 45.613C272.132 48.019 279.752 52.0311 286.365 57.4149C293.199 63.0689 298.721 70.1422 302.548 78.1439C306.702 86.5712 308.781 96.6285 308.786 108.316C308.888 114.754 308.035 121.172 306.255 127.36C304.637 132.715 302.181 137.78 298.978 142.367C295.816 146.878 292.077 150.957 287.857 154.499C283.278 158.319 278.433 161.81 273.36 164.946C268.871 167.651 264.377 170.237 259.88 172.704C255.535 175.074 251.417 177.836 247.576 180.957C243.96 183.888 240.882 187.426 238.477 191.41C236.12 195.344 234.939 200.12 234.935 205.736L197.858 205.73ZM198.545 284.265V237.752H235.918V284.265H198.545Z" fill="#F36B1C"/>
<path d="M182.438 287.985C180.973 288.452 139.206 287.916 137.631 286.884C137.026 286.499 136.75 280.413 136.627 273.04V272.813C136.627 271.293 136.579 269.725 136.572 268.143C136.572 267.923 136.572 267.703 136.572 267.49C136.517 256.857 136.682 245.818 136.682 245.818L164.625 246.1L163.779 267.538L163.745 268.391L163.573 272.833V273.287C163.573 273.287 179.453 280.674 181.069 281.981C182.686 283.287 183.903 287.517 182.438 287.985Z" fill="#AD6359"/>
<path d="M182.438 287.985C180.973 288.453 139.206 287.916 137.631 286.884C137.026 286.499 136.75 280.413 136.627 273.04V272.813C136.627 271.293 136.579 269.725 136.572 268.143C136.572 267.923 136.572 267.703 136.572 267.49L163.786 267.565L163.752 268.418L163.58 272.861V273.315C163.58 273.315 179.453 280.674 181.069 281.981C182.686 283.288 183.903 287.517 182.438 287.985Z" fill="#EBEBEB"/>
<path d="M182.438 287.985C181.537 288.274 165.354 288.177 152.686 287.82C144.777 287.606 138.243 287.276 137.631 286.884C137.019 286.492 136.757 280.584 136.634 273.349C136.634 273.246 136.634 273.143 136.634 273.04C136.634 272.937 136.634 272.882 136.634 272.806L163.587 272.861V273.315C163.587 273.315 179.488 280.674 181.097 281.987C182.706 283.301 183.903 287.517 182.438 287.985Z" fill="#F36B1C"/>
<path d="M181.991 286.355C174.948 286.093 146.537 285.667 139.556 285.963C139.501 285.963 139.501 286.004 139.556 286.011C146.53 286.423 174.942 286.595 181.984 286.472C182.135 286.472 182.135 286.362 181.991 286.355Z" fill="#032F61"/>
<path d="M166.572 272.971C163.821 272.421 160.416 272.799 158.27 274.745C158.188 274.821 158.27 274.938 158.387 274.91C161.047 274.093 163.786 273.561 166.558 273.322C166.599 273.315 166.636 273.295 166.664 273.264C166.692 273.233 166.708 273.193 166.709 273.152C166.711 273.111 166.698 273.07 166.673 273.037C166.648 273.004 166.612 272.981 166.572 272.971Z" fill="#032F61"/>
<path d="M168.559 274.202C165.808 273.652 162.404 274.03 160.258 275.977C160.175 276.052 160.258 276.169 160.375 276.142C163.025 275.326 165.755 274.793 168.518 274.553C168.56 274.551 168.601 274.534 168.632 274.505C168.663 274.477 168.683 274.437 168.688 274.395C168.693 274.353 168.683 274.31 168.659 274.275C168.636 274.24 168.6 274.214 168.559 274.202Z" fill="#032F61"/>
<path d="M170.54 275.433C167.789 274.883 164.385 275.261 162.239 277.208C162.156 277.283 162.239 277.4 162.356 277.373C165.015 276.558 167.754 276.027 170.526 275.791C170.574 275.793 170.62 275.776 170.655 275.743C170.689 275.711 170.71 275.666 170.712 275.619C170.714 275.571 170.697 275.525 170.664 275.49C170.632 275.456 170.587 275.435 170.54 275.433Z" fill="#032F61"/>
<path d="M170.258 266.974C169.185 265.461 167.149 266.114 165.98 267.07C164.003 268.749 162.504 270.92 161.633 273.363C161.629 273.373 161.627 273.385 161.628 273.396C161.629 273.407 161.633 273.418 161.639 273.428C161.645 273.437 161.653 273.445 161.663 273.451C161.673 273.456 161.684 273.459 161.695 273.459C161.695 273.673 161.888 273.899 162.129 273.81C164.426 272.992 166.984 272.435 168.965 270.908C170.12 270.034 171.269 268.411 170.258 266.974ZM165.354 271.857C164.233 272.29 163.098 272.662 161.998 273.129C162.851 271.905 163.642 270.653 164.618 269.512C165.081 268.959 165.577 268.436 166.104 267.944C166.943 267.208 170.23 265.653 169.694 268.686C169.405 270.358 166.695 271.348 165.354 271.857Z" fill="#032F61"/>
<path d="M154.598 272.544C156.867 273.549 159.495 273.535 161.922 273.803C162.17 273.803 162.301 273.562 162.259 273.356C162.27 273.352 162.28 273.347 162.288 273.339C162.296 273.331 162.302 273.321 162.306 273.311C162.31 273.3 162.312 273.289 162.311 273.278C162.31 273.267 162.306 273.256 162.301 273.246C160.886 271.072 158.928 269.305 156.62 268.122C155.244 267.434 153.126 267.297 152.438 269.016C151.75 270.736 153.27 271.96 154.598 272.544ZM153.374 270.55C152.163 267.723 155.719 268.487 156.695 269.009C157.326 269.359 157.931 269.755 158.504 270.192C159.682 271.105 160.812 272.078 161.888 273.108C160.705 272.902 159.515 272.806 158.325 272.641C156.909 272.455 154.075 272.111 153.387 270.55H153.374Z" fill="#032F61"/>
<path d="M152.7 287.82C144.79 287.607 138.257 287.276 137.645 286.884C137.032 286.492 136.771 280.585 136.647 273.349C139.88 276.245 147.94 283.432 152.7 287.82Z" fill="#032F61"/>
<path d="M128.105 125.502C128.105 125.502 134.378 196.08 135.396 201.465C135.636 202.696 135.781 209.367 135.877 217.936C136.09 236.65 135.966 270.392 135.966 270.392H165.409C165.409 270.392 164.536 211.932 163.229 201.169C161.922 190.406 153.6 125.516 153.6 125.516L128.105 125.502Z" fill="#084387"/>
<path d="M164.075 265.261C159.481 265.165 160.801 265.131 156.207 265.083C153.958 265.083 139.185 264.938 137.081 265.282C137.068 265.282 137.056 265.287 137.047 265.296C137.037 265.305 137.032 265.317 137.032 265.33C137.032 265.343 137.037 265.355 137.047 265.364C137.056 265.373 137.068 265.378 137.081 265.378C139.185 265.722 153.958 265.598 156.207 265.571C160.801 265.53 159.481 265.495 164.075 265.399C164.093 265.399 164.111 265.392 164.124 265.379C164.137 265.366 164.144 265.348 164.144 265.33C164.144 265.312 164.137 265.294 164.124 265.282C164.111 265.269 164.093 265.261 164.075 265.261Z" fill="#032F61"/>
<path d="M141.558 231.843C141.521 227.57 141.489 223.299 141.462 219.03C141.462 214.904 141.462 210.777 141.241 206.65C140.843 198.28 139.178 190.055 137.94 181.781C136.702 173.507 135.726 165.199 134.811 156.884C133.786 147.558 132.885 138.212 131.929 128.879C131.929 128.817 131.819 128.817 131.826 128.879C133.202 145.55 134.763 162.215 137.067 178.783C137.645 182.909 138.273 187.022 138.951 191.121C139.639 195.247 140.327 199.429 140.65 203.631C140.973 207.833 141.021 211.884 141.063 216.011C141.113 220.284 141.157 224.553 141.193 228.817C141.283 238.294 141.372 252.888 141.468 262.366C141.476 262.398 141.493 262.426 141.519 262.447C141.545 262.468 141.577 262.479 141.609 262.479C141.642 262.479 141.674 262.468 141.7 262.447C141.725 262.426 141.743 262.398 141.75 262.366C141.695 253.865 141.62 240.296 141.558 231.843Z" fill="#032F61"/>
<path d="M121.895 125.502C121.895 125.502 134.378 196.08 135.396 201.465C135.636 202.696 135.781 209.367 135.877 217.936L149.948 125.502H121.895Z" fill="#032F61"/>
<path d="M148.25 290.475C146.757 290.839 105.127 287.338 103.628 286.204C103.05 285.777 103.209 279.684 103.628 272.325C103.628 272.249 103.628 272.167 103.628 272.091C103.711 270.578 103.8 269.017 103.91 267.435L103.951 266.747C104.639 256.135 105.595 245.138 105.595 245.138L133.442 247.435L131.083 268.755L130.994 269.601L130.512 274.023L130.464 274.477C130.464 274.477 145.794 282.944 147.314 284.367C148.834 285.791 149.742 290.11 148.25 290.475Z" fill="#AD6359"/>
<path d="M148.25 290.474C146.757 290.839 105.127 287.338 103.628 286.203C103.05 285.777 103.209 279.684 103.628 272.325C103.628 272.249 103.628 272.166 103.628 272.091C103.711 270.578 103.8 269.016 103.91 267.435L103.951 266.747L131.083 268.748L130.994 269.594L130.512 274.016L130.464 274.47C130.464 274.47 145.794 282.937 147.314 284.36C148.834 285.784 149.742 290.11 148.25 290.474Z" fill="#EBEBEB"/>
<path d="M148.25 290.474C146.757 290.839 105.127 287.338 103.628 286.203C103.05 285.777 103.209 279.683 103.628 272.324C103.628 272.249 103.628 272.166 103.628 272.091L130.512 274.051L130.464 274.505C130.464 274.505 145.794 282.971 147.314 284.395C148.834 285.818 149.742 290.11 148.25 290.474Z" fill="#F36B1C"/>
<path d="M147.885 288.817C140.884 288.054 112.569 285.646 105.588 285.419C105.533 285.419 105.526 285.461 105.588 285.468C112.507 286.375 140.843 288.556 147.878 288.906C148.05 288.941 148.064 288.858 147.885 288.817Z" fill="#032F61"/>
<path d="M133.484 274.374C130.733 273.631 127.356 273.769 125.079 275.557C124.99 275.626 125.079 275.756 125.182 275.736C127.889 275.104 130.656 274.765 133.435 274.725C133.478 274.725 133.52 274.709 133.552 274.68C133.585 274.652 133.606 274.613 133.612 274.57C133.617 274.528 133.608 274.484 133.584 274.448C133.561 274.412 133.525 274.386 133.484 274.374Z" fill="#032F61"/>
<path d="M135.382 275.743C132.631 275 129.247 275.137 126.971 276.926C126.888 276.994 126.971 277.125 127.074 277.104C129.781 276.473 132.548 276.134 135.327 276.093C135.37 276.095 135.413 276.08 135.447 276.053C135.481 276.025 135.503 275.986 135.51 275.942C135.517 275.899 135.507 275.855 135.484 275.818C135.46 275.781 135.424 275.755 135.382 275.743Z" fill="#032F61"/>
<path d="M137.273 277.111C134.522 276.369 131.138 276.506 128.862 278.294C128.779 278.363 128.862 278.494 128.972 278.473C131.679 277.841 134.446 277.502 137.225 277.462C137.268 277.462 137.31 277.446 137.342 277.418C137.374 277.389 137.395 277.35 137.401 277.308C137.407 277.265 137.397 277.222 137.374 277.186C137.35 277.149 137.315 277.123 137.273 277.111Z" fill="#032F61"/>
<path d="M137.569 268.659C136.613 267.07 134.536 267.572 133.298 268.446C131.194 269.976 129.533 272.035 128.484 274.415C128.484 274.47 128.484 274.505 128.539 274.518C128.532 274.572 128.539 274.627 128.557 274.677C128.576 274.728 128.606 274.774 128.646 274.81C128.685 274.847 128.733 274.874 128.785 274.889C128.837 274.904 128.891 274.907 128.944 274.897C131.29 274.243 133.889 273.838 135.966 272.483C137.232 271.664 138.49 270.158 137.569 268.659ZM132.335 273.177C131.186 273.528 130.031 273.817 128.896 274.209C129.793 273.015 130.75 271.867 131.764 270.77C132.263 270.249 132.796 269.762 133.36 269.312C134.247 268.624 137.631 267.311 136.888 270.303C136.496 271.967 133.717 272.765 132.349 273.177H132.335Z" fill="#032F61"/>
<path d="M121.572 273.102C123.766 274.264 126.386 274.436 128.786 274.869C129.034 274.917 129.185 274.663 129.158 274.457C129.168 274.453 129.178 274.447 129.186 274.439C129.194 274.432 129.201 274.422 129.204 274.412C129.208 274.401 129.21 274.39 129.209 274.378C129.208 274.367 129.205 274.356 129.199 274.347C127.947 272.078 126.117 270.18 123.896 268.845C122.59 268.081 120.457 267.772 119.667 269.436C118.876 271.1 120.292 272.421 121.572 273.102ZM120.492 271.039C119.481 268.129 122.975 269.14 123.931 269.732C124.533 270.13 125.107 270.569 125.65 271.045C126.761 272.039 127.819 273.091 128.821 274.195C127.651 273.906 126.475 273.721 125.299 273.508C123.883 273.171 121.063 272.634 120.492 271.025V271.039Z" fill="#032F61"/>
<path d="M131.702 271.981L102.287 270.736C102.287 270.736 110.32 206.183 110.464 202.201C110.85 191.885 117.693 125.454 117.693 125.454H153.621C153.621 125.454 151.352 140.798 147.479 150.523C144.873 151.435 142.357 152.586 139.962 153.962C139.962 153.962 136.592 197.902 136.468 203.384C136.193 214.237 131.702 271.981 131.702 271.981Z" fill="#084387"/>
<path d="M130.918 266.589C126.338 266.3 127.658 266.321 123.064 266.08C120.822 265.963 106.063 265.213 103.951 265.468C103.903 265.468 103.903 265.55 103.951 265.564C106.015 265.997 120.808 266.5 123.05 266.568C127.645 266.72 126.331 266.63 130.925 266.726C130.943 266.726 130.961 266.717 130.973 266.704C130.985 266.69 130.991 266.673 130.99 266.654C130.99 266.636 130.981 266.619 130.968 266.607C130.954 266.594 130.937 266.588 130.918 266.589Z" fill="#032F61"/>
<path d="M120.327 129.415C118.993 146.149 117.624 162.889 116.09 179.622C114.557 196.355 112.761 213.157 110.588 229.862C109.371 239.181 107.995 252.324 106.544 261.623C106.544 261.685 106.627 261.712 106.64 261.623C109.605 245.117 111.785 224.594 113.635 207.916C115.485 191.238 117.005 174.512 118.36 157.785C119.123 148.322 119.811 138.851 120.54 129.388C120.547 129.299 120.375 129.299 120.327 129.415Z" fill="#032F61"/>
<path d="M148.759 149.876C145.712 150.992 142.768 152.373 139.962 154.003C139.939 154.014 139.92 154.034 139.911 154.058C139.902 154.083 139.903 154.11 139.914 154.134C139.925 154.157 139.945 154.176 139.969 154.185C139.994 154.194 140.021 154.193 140.045 154.182C143.009 152.909 146.028 151.692 148.917 150.255C148.967 150.234 149.007 150.194 149.027 150.143C149.048 150.093 149.048 150.037 149.027 149.987C149.006 149.936 148.966 149.897 148.916 149.876C148.865 149.855 148.809 149.855 148.759 149.876Z" fill="#032F61"/>
<path d="M149.701 129.539C149.701 129.436 149.515 129.415 149.515 129.539C149.515 133.054 149.316 136.148 149.02 139.443C148.882 140.97 147.645 149.402 145.004 148.789C144.563 148.686 144.316 148.246 144.268 147.579C144.273 146.705 144.391 145.836 144.618 144.993C144.907 143.226 145.148 141.458 145.306 139.67C145.613 136.348 145.577 133.004 145.196 129.69C145.191 129.672 145.179 129.655 145.164 129.644C145.148 129.632 145.13 129.626 145.11 129.626C145.091 129.626 145.072 129.632 145.056 129.644C145.041 129.655 145.029 129.672 145.024 129.69C145.102 134.289 144.833 138.887 144.219 143.446C143.889 145.64 142.782 148.948 145.079 149.278C147.376 149.608 148.931 144.092 149.206 142.579C149.936 138.272 150.102 133.889 149.701 129.539Z" fill="#032F61"/>
<path d="M145.072 149.003C144.834 149.57 144.637 150.154 144.481 150.75C144.307 151.208 144.223 151.696 144.233 152.187C144.233 152.283 144.364 152.29 144.412 152.228C144.686 151.803 144.894 151.339 145.031 150.853C145.23 150.309 145.444 149.773 145.629 149.223C145.659 149.149 145.657 149.066 145.626 148.994C145.594 148.921 145.535 148.863 145.461 148.834C145.387 148.805 145.305 148.806 145.232 148.838C145.159 148.87 145.101 148.929 145.072 149.003Z" fill="#032F61"/>
<path d="M133.092 132.297C133.1 131.93 133.063 131.562 132.982 131.204C132.976 131.194 132.968 131.185 132.959 131.179C132.949 131.173 132.938 131.17 132.927 131.17C132.915 131.17 132.904 131.173 132.894 131.179C132.885 131.185 132.877 131.194 132.871 131.204C132.799 131.515 132.757 131.833 132.748 132.153C132.748 132.517 132.665 132.841 132.624 133.239C132.547 133.983 132.419 134.721 132.239 135.447C131.904 136.818 131.205 138.072 130.217 139.079C129.231 140.049 128.062 140.813 126.778 141.327C125.357 141.831 123.908 142.251 122.438 142.586C122.424 142.586 122.41 142.592 122.399 142.602C122.389 142.613 122.383 142.626 122.383 142.641C122.383 142.656 122.389 142.67 122.399 142.68C122.41 142.69 122.424 142.696 122.438 142.696C124.066 142.693 125.677 142.375 127.184 141.761C128.52 141.26 129.735 140.484 130.753 139.484C131.769 138.451 132.483 137.16 132.816 135.75C132.985 135.023 133.082 134.281 133.105 133.535C133.125 133.123 133.12 132.709 133.092 132.297Z" fill="#032F61"/>
<path d="M168.257 65.0484C170.471 67.7238 172.878 74.9521 172.789 76.926C172.699 78.8999 160.533 83.384 158.814 82.3111C157.094 81.2382 150.327 71.6784 150.265 68.1365C150.203 64.5945 165.959 62.2836 168.257 65.0484Z" fill="#AD6359"/>
<path d="M149.948 60.1379C148.834 58.9756 145.23 55.5025 143.628 57.0705C142.624 58.0472 145.045 60.7225 146.063 61.7817C148.16 63.955 149.783 67.7995 150.54 69.6771C151.296 71.5547 154.838 67.8477 154.838 67.8477C154.838 67.8477 152.858 63.1572 149.948 60.1379Z" fill="#AD6359"/>
<path d="M152.906 71.7744C152.906 71.7744 154.151 75.1169 156.18 75.0412C158.208 74.9656 157.693 72.0908 157.665 71.8844C157.727 72.0633 158.951 75.1031 160.987 74.8212C163.023 74.5392 162.156 71.7125 162.094 71.5337C162.204 71.6781 163.772 73.5969 165.265 73.0261C167.837 72.0495 163.979 67.0495 164.35 64.8556C164.35 64.8556 168.147 65.0688 168.257 65.0481C168.257 65.0481 164.68 60.2338 161.688 59.8762C161.253 59.8159 160.81 59.9074 160.434 60.1354C160.059 60.3634 159.773 60.7139 159.625 61.1279C159.625 61.1279 158.642 59.4429 157.032 59.6149C156.207 59.7043 155.616 61.1073 155.616 61.1073C155.374 60.737 155.035 60.4407 154.636 60.2513C154.236 60.0619 153.792 59.9868 153.353 60.0344C152.218 60.2201 151.654 61.6369 151.592 62.1871C151.111 66.3961 152.906 71.7744 152.906 71.7744Z" fill="#AD6359"/>
<path d="M151.723 61.8018C151.723 61.8018 151.675 61.8018 151.668 61.8018C151.048 65.22 151.482 68.746 152.913 71.9118C152.961 72.0081 153.14 71.9737 153.105 71.8568C152.162 68.5894 151.696 65.2026 151.723 61.8018Z" fill="#032F61"/>
<path d="M155.609 61.0593C155.609 61.018 155.547 61.018 155.54 61.0593C154.899 64.8338 155.631 68.7132 157.603 71.9946C157.679 72.1115 157.858 72.139 157.782 71.9946C156.523 69.7112 155.54 64.2436 155.609 61.0593Z" fill="#032F61"/>
<path d="M162.328 71.713C160.444 68.4806 159.777 64.973 159.618 61.266C159.618 61.2179 159.55 61.2247 159.536 61.266C159.123 63.1023 159.474 65.4476 159.9 67.2564C160.266 68.9389 161.065 70.4967 162.218 71.7749C162.252 71.8299 162.328 71.7818 162.328 71.713Z" fill="#032F61"/>
<path d="M152.906 71.7748C153.205 72.3924 153.56 72.9817 153.965 73.5355C154.337 74.0901 154.85 74.5362 155.451 74.8285C155.736 74.9381 156.052 74.9381 156.338 74.8285C156.63 74.724 156.89 74.5464 157.094 74.3127C157.275 74.0622 157.401 73.7768 157.465 73.4749C157.529 73.1729 157.529 72.861 157.466 72.5589L157.211 71.0733L157.968 72.3801C158.298 72.9643 158.721 73.4914 159.219 73.9413C159.437 74.1622 159.699 74.3341 159.989 74.4456C160.278 74.5571 160.588 74.6055 160.898 74.5878C161.186 74.5703 161.46 74.4541 161.673 74.2588C161.885 74.0634 162.025 73.8007 162.067 73.5149C162.147 72.8719 162.064 72.2193 161.826 71.6166L161.214 69.9385L162.335 71.314C162.647 71.6981 163.005 72.0423 163.401 72.3388C163.769 72.6297 164.213 72.8066 164.68 72.8477C164.891 72.8573 165.1 72.8085 165.285 72.7065C165.469 72.6045 165.622 72.4534 165.726 72.27C165.888 71.8301 165.924 71.3536 165.829 70.8945C165.632 69.8796 165.356 68.8816 165.003 67.9096C164.838 67.4145 164.673 66.9124 164.536 66.4035C164.367 65.9038 164.306 65.374 164.357 64.8491C164.366 65.3689 164.474 65.8823 164.673 66.3622C164.852 66.8505 165.052 67.3319 165.251 67.8202C165.678 68.793 166.012 69.8039 166.248 70.8395C166.39 71.3959 166.366 71.9815 166.18 72.5245C166.045 72.8093 165.83 73.0484 165.561 73.2122C165.292 73.376 164.981 73.4573 164.666 73.4461C164.085 73.4133 163.527 73.2073 163.064 72.8546C162.616 72.5341 162.212 72.1573 161.86 71.7336L162.369 71.431C162.666 72.1362 162.773 72.9068 162.679 73.6662C162.616 74.0887 162.407 74.4758 162.087 74.7597C161.769 75.0245 161.379 75.1875 160.966 75.2274C160.573 75.2516 160.179 75.191 159.811 75.0498C159.444 74.9086 159.11 74.6901 158.834 74.4089C158.281 73.9131 157.816 73.3271 157.459 72.6758L157.961 72.497C158.025 72.8741 158.007 73.2606 157.907 73.6299C157.807 73.9993 157.629 74.3425 157.383 74.6359C157.118 74.9123 156.787 75.1159 156.42 75.2274C156.047 75.3425 155.645 75.313 155.292 75.1448C154.66 74.799 154.138 74.2817 153.786 73.6524C153.423 73.0619 153.127 72.432 152.906 71.7748Z" fill="#032F61"/>
<path d="M157.376 80.8873C157.376 80.8873 144.261 74.1816 149.398 70.344C150.918 69.2023 158.545 66.3343 159.151 67.8543C159.935 69.8144 156.97 71.6094 154.935 72.4347C154.935 72.4347 159.715 74.0922 159.556 77.758C159.517 78.4298 159.292 79.0776 158.907 79.6298C158.523 80.182 157.993 80.6172 157.376 80.8873Z" fill="#AD6359"/>
<path d="M148.992 70.6876C149.534 70.167 150.151 69.7311 150.822 69.3946C151.489 69.0391 152.178 68.7267 152.885 68.4592C154.29 67.9076 155.739 67.4796 157.218 67.18C157.611 67.0976 158.015 67.0744 158.415 67.1112C158.657 67.1261 158.892 67.1967 159.103 67.3176C159.212 67.3808 159.309 67.4622 159.391 67.5583C159.472 67.6538 159.535 67.7634 159.577 67.8815C159.735 68.3051 159.735 68.7715 159.577 69.1951C159.432 69.5815 159.218 69.9382 158.944 70.2474C158.426 70.8338 157.809 71.3249 157.122 71.6986C156.46 72.0771 155.771 72.4036 155.059 72.6752V72.1869C155.597 72.3973 156.115 72.6574 156.606 72.964C157.099 73.2615 157.56 73.6095 157.981 74.0026C158.396 74.4065 158.749 74.8701 159.027 75.3781C159.308 75.8728 159.493 76.4167 159.57 76.9805C159.425 76.4443 159.192 75.9356 158.882 75.4744C158.566 75.0276 158.191 74.6251 157.768 74.2777C157.344 73.9228 156.883 73.6138 156.393 73.3561C155.917 73.0938 155.417 72.8774 154.9 72.7096L154.261 72.5101L154.88 72.2213C155.55 71.9307 156.201 71.5953 156.826 71.2171C157.444 70.8606 158.001 70.4078 158.477 69.876C158.704 69.6557 158.872 69.3808 158.964 69.0774C159.055 68.7741 159.067 68.4523 158.999 68.1429C158.848 67.6614 158.03 67.6821 157.335 67.7852C156.64 67.8884 155.904 68.0741 155.182 68.2529C154.46 68.4317 153.752 68.6312 153.043 68.8581C151.606 69.2543 150.24 69.8715 148.992 70.6876Z" fill="#032F61"/>
<path d="M142.28 90.3785C153.876 104.691 170.732 113.962 174.893 110.942C179.054 107.923 165.031 92.1185 164.79 91.8847C163.972 91.1007 157.768 87.8751 146.503 83.1296C135.451 78.4734 137.101 83.9893 142.28 90.3785Z" fill="#AD6359"/>
<path d="M159.577 88.7213L150.843 100.207C150.843 100.207 143.511 92.6415 139.632 87.6346C135.753 82.6277 136.138 78.735 144.818 81.9675C149.899 83.8485 154.832 86.106 159.577 88.7213Z" fill="#F36B1C"/>
<path d="M150.01 97.5726C151.076 96.0045 152.191 94.464 153.332 92.9578C153.903 92.215 154.453 91.4585 155.038 90.7226C155.622 89.9867 156.29 89.2508 156.888 88.4942C156.929 88.4392 157.012 88.4942 156.97 88.5492C156.42 89.3058 155.925 90.0967 155.375 90.8532C154.825 91.6098 154.219 92.3938 153.635 93.1641C152.484 94.6772 151.299 96.1627 150.079 97.6208C150.045 97.662 149.948 97.6208 150.01 97.5726Z" fill="#032F61"/>
<path d="M155.024 94.6906L150.843 100.193C150.843 100.193 143.511 92.6273 139.632 87.6205L139.261 87.1322L139.103 86.9052L138.862 86.5544C138.656 86.2518 138.47 85.9561 138.305 85.6672C138.243 85.5641 138.188 85.4609 138.133 85.3577C137.846 84.8358 137.615 84.2847 137.445 83.714C137.394 83.5379 137.355 83.3587 137.328 83.1776C137.328 83.0882 137.328 83.0056 137.328 82.9231C141.138 85.5641 150.079 91.3481 155.024 94.6906Z" fill="#032F61"/>
<path d="M155.375 132.552C155.375 132.552 115.574 133.24 115.341 132.992C114.722 132.305 122.761 91.3212 131.076 82.8755C134.013 79.8906 140.072 81.108 141.083 81.5963C143.415 82.7242 145.609 85.1589 147.445 89.6705C151.118 98.6939 155.877 131.906 155.375 132.552Z" fill="#F36B1C"/>
<path opacity="0.1" d="M143.071 82.9437H131.015L131.076 82.8749C131.357 82.5911 131.668 82.3397 132.005 82.1252H142.012C142.386 82.3689 142.741 82.6426 143.071 82.9437ZM144.398 84.3192H129.88C129.687 84.5737 129.501 84.8488 129.316 85.1376H145.031C144.832 84.8488 144.625 84.5943 144.446 84.3192H144.398ZM145.898 86.5131H128.484C128.332 86.7813 128.181 87.0565 128.037 87.3384H146.365C146.221 87.0565 146.07 86.7745 145.911 86.5131H145.898ZM147.019 88.714H127.342L126.95 89.5324H147.383C147.273 89.2504 147.156 88.9753 147.032 88.7208L147.019 88.714ZM147.892 90.9079H126.345L125.994 91.7263H148.174C148.085 91.4719 147.995 91.1692 147.885 90.9079H147.892ZM148.58 93.1018H125.437C125.334 93.3769 125.224 93.6452 125.114 93.9271H148.821L148.58 93.1018ZM149.171 95.2958H124.605C124.508 95.5709 124.405 95.8391 124.309 96.1211H149.391C149.304 95.8414 149.236 95.5663 149.185 95.2958H149.171ZM149.708 97.4966H123.814C123.717 97.7648 123.628 98.0399 123.539 98.315H149.893L149.708 97.4966ZM150.203 99.6905H123.126C123.037 99.9588 122.954 100.234 122.865 100.509H150.43C150.334 100.234 150.279 99.9588 150.217 99.7249L150.203 99.6905ZM150.671 101.884H122.438C122.349 102.153 122.266 102.428 122.184 102.71H150.891C150.801 102.435 150.746 102.16 150.684 101.884H150.671ZM151.118 104.078H121.75C121.668 104.354 121.585 104.629 121.51 104.904H151.324L151.118 104.078ZM151.544 106.279H121.104C121.021 106.554 120.946 106.823 120.87 107.098H151.709C151.661 106.823 151.613 106.547 151.558 106.279H151.544ZM151.95 108.473H120.492C120.416 108.748 120.341 109.023 120.272 109.292H152.115C152.067 109.017 152.012 108.748 151.964 108.473H151.95ZM152.342 110.667H119.907C119.832 110.942 119.763 111.217 119.694 111.492H152.5C152.459 111.217 152.411 110.942 152.356 110.667H152.342ZM152.734 112.868H119.336C119.275 113.143 119.206 113.411 119.137 113.686H152.878C152.837 113.418 152.789 113.143 152.748 112.868H152.734ZM153.092 115.062H118.793C118.731 115.337 118.662 115.612 118.601 115.88H153.243C153.202 115.612 153.153 115.337 153.105 115.062H153.092ZM153.449 117.256H118.27C118.209 117.538 118.147 117.813 118.078 118.081H153.594C153.552 117.806 153.511 117.538 153.463 117.256H153.449ZM153.8 119.45H117.768C117.706 119.725 117.645 120.007 117.583 120.275H153.931C153.889 120.007 153.848 119.732 153.814 119.45H153.8ZM154.123 121.651H117.28C117.225 121.926 117.163 122.201 117.108 122.469H154.247L154.123 121.651ZM154.44 123.845H116.812C116.757 124.127 116.702 124.395 116.647 124.663H154.57C154.529 124.395 154.495 124.12 154.453 123.845H154.44ZM154.742 126.038H116.379C116.315 126.323 116.26 126.598 116.214 126.864H154.866C154.832 126.596 154.763 126.32 154.763 126.038H154.742ZM155.017 128.232H115.96C115.905 128.521 115.856 128.796 115.808 129.058H155.134C155.107 128.796 155.072 128.521 155.031 128.232H155.017ZM155.272 130.433H115.561C115.513 130.729 115.478 131.004 115.437 131.252H155.327C155.341 131.011 155.313 130.736 155.285 130.433H155.272ZM115.299 132.627C115.269 132.747 115.269 132.872 115.299 132.992C115.485 133.177 140.169 132.799 150.684 132.627H115.299Z" fill="#030402"/>
<path d="M133.346 87.8409C130.664 91.5204 116.909 106.727 116.4 108.137C115.891 109.547 119.075 112.662 119.02 113.247C118.814 115.626 113.676 131.458 111.62 129.849C108.91 127.731 97.4383 112.559 99.0614 105.991C100.684 99.4228 127.473 83.6525 131.723 82.2839C135.973 80.9152 135.994 84.2096 133.346 87.8409Z" fill="#AD6359"/>
<path d="M122.541 101.685L114.728 90.7156C114.728 90.7156 123.47 84.9797 129.316 82.5313C135.162 80.0828 138.043 81.4446 132.7 89.003C129.576 93.434 126.183 97.6693 122.541 101.685Z" fill="#F36B1C"/>
<path d="M117.039 90.0002C118.277 91.4353 119.481 92.9025 120.65 94.4018C121.228 95.1377 121.812 95.8668 122.369 96.6164C122.927 97.3661 123.477 98.2051 124.061 98.9754C124.103 99.0305 124.02 99.0992 123.979 99.0442C123.387 98.3564 122.755 97.6687 122.163 96.9122C121.572 96.1556 120.966 95.3991 120.375 94.6426C119.206 93.1433 118.071 91.6096 116.977 90.0552C116.936 90.014 117.005 89.9589 117.039 90.0002Z" fill="#032F61"/>
<path d="M122.528 101.74C123.724 100.151 125.134 98.7346 126.427 97.2285C127.72 95.7223 129.006 94.1679 130.237 92.5999C130.237 92.5999 130.327 92.5999 130.299 92.6411C129.728 93.4595 129.171 94.2849 128.573 95.0827C128.277 95.4747 127.968 95.8598 127.651 96.245L128.112 95.8667C128.584 95.5123 129.073 95.1817 129.577 94.8763C129.577 94.8763 129.632 94.8763 129.577 94.9176C129.139 95.3226 128.68 95.7037 128.202 96.0593C127.858 96.3206 127.514 96.5613 127.149 96.802L126.599 97.4898C125.399 99.0395 124.061 100.478 122.603 101.788C122.562 101.85 122.486 101.788 122.528 101.74Z" fill="#032F61"/>
<path d="M118.346 135.86C120.182 134.615 117.658 133.157 117.658 133.157C117.658 133.157 121.785 134.381 123.16 132.366C124.536 130.351 121.4 128.769 121.18 128.645C121.4 128.714 125.224 129.732 126.42 127.566C127.617 125.399 124.261 124.189 124.041 124.127C124.268 124.127 127.246 123.996 127.782 122.139C128.697 118.955 120.141 118.584 118.298 116.637C118.298 116.637 119.123 112.428 119.192 112.311C118.639 113.256 117.78 113.984 116.757 114.375C114.907 114.897 113.243 115.2 112.493 116.087C112.144 116.475 111.928 116.966 111.878 117.486C111.829 118.006 111.948 118.528 112.218 118.976C112.218 118.976 109.88 118.707 108.883 120.386C108.374 121.245 109.302 122.834 109.302 122.834C108.773 122.796 108.244 122.904 107.772 123.147C107.3 123.39 106.904 123.757 106.627 124.209C105.987 125.447 107.019 126.844 107.019 126.844C107.019 126.844 105.148 127.531 104.907 129.017C104.447 131.995 114.412 138.515 118.346 135.86Z" fill="#AD6359"/>
<path d="M107.184 127.098C107.184 127.098 107.108 127.098 107.136 127.146C109.986 130.217 113.705 132.347 117.796 133.253C117.927 133.253 118.023 133.075 117.885 133.019C114.05 131.575 110.445 129.58 107.184 127.098Z" fill="#032F61"/>
<path d="M109.275 122.807C109.27 122.803 109.265 122.8 109.259 122.799C109.254 122.797 109.248 122.797 109.242 122.797C109.236 122.798 109.231 122.8 109.226 122.802C109.221 122.805 109.216 122.809 109.213 122.813C109.209 122.818 109.206 122.823 109.205 122.829C109.203 122.834 109.203 122.84 109.203 122.846C109.204 122.852 109.206 122.857 109.208 122.862C109.211 122.867 109.215 122.872 109.22 122.875C112.398 126.226 116.669 128.331 121.262 128.811C121.42 128.811 121.579 128.673 121.393 128.646C118.312 128.178 112.301 125.172 109.275 122.807Z" fill="#032F61"/>
<path d="M124.412 124.023C119.928 123.514 116.056 121.616 112.363 119.099C112.314 119.099 112.273 119.133 112.301 119.175C113.772 120.901 116.297 122.263 118.353 123.157C120.241 124.021 122.324 124.375 124.391 124.181C124.501 124.175 124.501 124.037 124.412 124.023Z" fill="#032F61"/>
<path d="M106.929 126.844C106.556 126.468 106.294 125.995 106.172 125.479C106.051 124.963 106.075 124.424 106.242 123.921C106.457 123.447 106.835 123.066 107.308 122.848C107.871 122.653 108.473 122.599 109.061 122.69C108.733 122.227 108.553 121.676 108.544 121.108C108.536 120.541 108.699 119.985 109.013 119.512C109.365 119.108 109.856 118.85 110.389 118.79C110.997 118.731 111.61 118.754 112.211 118.859C111.961 118.564 111.782 118.214 111.69 117.838C111.598 117.462 111.595 117.07 111.682 116.692C111.796 116.282 112.004 115.905 112.291 115.591C112.578 115.277 112.935 115.034 113.332 114.884C114.268 114.545 115.24 114.314 116.228 114.196C116.735 114.12 117.231 113.984 117.706 113.79C118.218 113.556 118.648 113.172 118.938 112.69C118.993 112.607 118.993 112.69 118.938 112.765C118.745 113.093 118.498 113.386 118.209 113.632C117.907 113.894 117.572 114.114 117.211 114.285C116.316 114.623 115.396 114.892 114.46 115.09C113.64 115.308 112.914 115.792 112.397 116.465C112.161 116.822 112.028 117.237 112.013 117.664C111.999 118.092 112.103 118.515 112.314 118.886C112.314 118.886 112.314 118.976 112.253 118.969C111.703 118.966 111.156 119.031 110.623 119.161C110.18 119.267 109.781 119.507 109.481 119.849C109.203 120.285 109.044 120.786 109.019 121.303C108.995 121.819 109.107 122.333 109.343 122.793C108.75 122.833 108.17 122.982 107.631 123.233C107.281 123.448 107 123.758 106.819 124.127C106.613 124.552 106.529 125.026 106.577 125.496C106.624 125.966 106.801 126.413 107.087 126.789C107.09 126.8 107.09 126.812 107.087 126.823C107.087 126.823 106.489 127.071 106.462 127.071C106.434 127.071 106.462 127.071 106.462 127.071C106.613 126.985 106.769 126.91 106.929 126.844Z" fill="#032F61"/>
<path d="M141.07 87.6965C138.882 88.5012 134.605 85.5232 132.741 82.9235C132.617 82.7447 132.493 75.0074 132.314 73.4806C132.273 73.1642 142.197 74.6636 142.197 74.6636C141.88 76.6416 141.806 78.651 141.977 80.647C142.005 80.8671 143.181 86.9263 141.07 87.6965Z" fill="#AD6359"/>
<path d="M142.197 74.6634C142.197 74.6634 142.087 75.303 141.998 76.2521C139.247 79.629 134.832 79.9867 132.59 79.911C132.514 77.5107 132.424 74.409 132.314 73.4805C132.273 73.171 142.197 74.6634 142.197 74.6634Z" fill="#032F61"/>
<path d="M132.356 56.9949C132.356 56.9949 129.192 58.2191 128.546 61.3828C127.899 64.5464 128.546 67.9027 128.807 68.0746C129.068 68.2466 132.356 56.9949 132.356 56.9949Z" fill="#032F61"/>
<path d="M145.134 61.0804C145.946 64.5673 143.484 74.3266 140.898 76.3624C137.156 79.3197 131.352 79.2372 128.917 74.8149C126.565 70.5302 130.004 57.8755 132.858 56.0529C137.053 53.3775 143.917 55.9222 145.134 61.0804Z" fill="#AD6359"/>
<path d="M135.32 66.5615C135.32 66.5615 135.368 66.6028 135.361 66.6303C135.224 67.3181 135.175 68.0952 135.753 68.4253C135.753 68.4253 135.753 68.4666 135.753 68.4597C135.01 68.2259 135.079 67.1736 135.32 66.5615Z" fill="#032F61"/>
<path d="M136.042 65.9563C137.149 66.0594 136.854 68.2602 135.836 68.164C134.818 68.0677 135.12 65.8669 136.042 65.9563Z" fill="#032F61"/>
<path d="M131.482 65.8809C131.482 65.8809 131.427 65.8809 131.42 65.9359C131.358 66.6236 131.173 67.387 130.526 67.5384V67.5796C131.297 67.5659 131.53 66.5342 131.482 65.8809Z" fill="#032F61"/>
<path d="M130.966 65.0895C129.88 64.8694 129.515 67.0565 130.526 67.2628C131.537 67.4692 131.874 65.2752 130.966 65.0895Z" fill="#032F61"/>
<path d="M131.984 69.1129C131.984 69.1129 131.695 70.1032 131.627 70.5847C132.562 70.7214 133.472 70.9924 134.33 71.3893C134.529 71.4856 134.556 71.3137 134.33 71.1349C133.69 70.6151 132.909 70.2989 132.087 70.227C132.087 70.0895 132.562 68.7071 132.486 68.6865C132.115 68.6651 131.742 68.6952 131.379 68.7759C131.916 66.7126 132.755 64.7044 133.291 62.5861C133.291 62.5104 133.202 62.4691 133.167 62.531C132.175 64.6315 131.392 66.8246 130.829 69.0785C130.739 69.3811 131.778 69.1679 131.984 69.1129Z" fill="#032F61"/>
<path d="M136.881 65.2066C136.62 65.0415 136.413 64.8421 136.193 64.6564C135.973 64.4707 135.684 64.2988 135.581 63.9687C135.559 63.8693 135.572 63.7654 135.617 63.6741C135.662 63.5828 135.737 63.5096 135.829 63.4666C136.022 63.4033 136.229 63.3935 136.428 63.4383C136.626 63.4831 136.809 63.5808 136.957 63.7211C137.304 63.9543 137.55 64.3107 137.645 64.7183C137.663 64.8141 137.652 64.9131 137.613 65.0026C137.574 65.0921 137.51 65.1679 137.428 65.2205C137.346 65.273 137.25 65.2997 137.152 65.2973C137.055 65.2948 136.96 65.2632 136.881 65.2066Z" fill="#032F61"/>
<path d="M130.485 62.6687C130.788 62.6205 131.063 62.538 131.358 62.4623C131.677 62.4351 131.977 62.3019 132.211 62.0841C132.273 62.0029 132.306 61.9039 132.306 61.8021C132.306 61.7003 132.273 61.6013 132.211 61.5201C132.06 61.3829 131.876 61.2883 131.676 61.2459C131.477 61.2036 131.27 61.2152 131.076 61.2794C130.663 61.3485 130.29 61.5692 130.031 61.8984C129.979 61.9759 129.949 62.0667 129.947 62.1602C129.944 62.2538 129.967 62.3462 130.015 62.4268C130.062 62.5074 130.132 62.5729 130.215 62.6157C130.298 62.6585 130.392 62.6769 130.485 62.6687Z" fill="#032F61"/>
<path d="M143.511 69.4158C141.489 69.2164 142.589 60.2962 142.589 60.2962C141.341 60.7213 140.036 60.9532 138.717 60.9839C137.386 60.9371 136.063 60.7387 134.777 60.3925C134.501 60.2893 138.153 59.2577 138.153 59.2577C138.153 59.2577 129.171 60.0417 128.869 58.3498C128.759 57.7652 130.43 52.442 137.885 52.779C143.387 53.0266 145.953 58.7762 145.953 58.7762C145.953 58.7762 148.628 61.7542 148.167 63.1022C147.383 65.4681 145.657 69.629 143.511 69.4158Z" fill="#032F61"/>
<path d="M142.287 69.4635C142.287 69.4635 144.797 66.4649 146.18 67.4003C147.562 68.3356 145.492 72.7992 143.717 73.2875C143.496 73.3643 143.262 73.3957 143.029 73.3799C142.795 73.3641 142.567 73.3013 142.358 73.1954C142.15 73.0894 141.965 72.9425 141.814 72.7633C141.664 72.5842 141.551 72.3765 141.482 72.1527L142.287 69.4635Z" fill="#AD6359"/>
<path d="M175.788 110.426C181.372 106.114 176.035 84.2228 172.789 76.1623C171.833 73.7896 156.668 78.2256 157.376 80.8872C161.427 95.9422 169.673 115.151 175.788 110.426Z" fill="#AD6359"/>
<path d="M159.887 89.1472L161.558 93.2738C162.129 94.6493 162.686 96.0248 163.305 97.4003C163.924 98.7758 164.522 100.103 165.155 101.444C165.788 102.785 166.489 104.099 167.177 105.42C166.307 104.208 165.514 102.942 164.804 101.63C164.116 100.316 163.429 98.9684 162.83 97.6066C162.232 96.2449 161.682 94.8556 161.186 93.4388C160.691 92.022 160.265 90.5984 159.887 89.1472Z" fill="#032F61"/>
<path d="M158.889 45.6327C158.956 46.4062 158.791 47.182 158.417 47.8621C158.043 48.5422 157.475 49.0961 156.786 49.4538C156.097 49.8115 155.317 49.9569 154.546 49.8717C153.774 49.7866 153.045 49.4746 152.451 48.9752C151.856 48.4759 151.423 47.8116 151.206 47.0662C150.989 46.3208 150.998 45.5279 151.231 44.7875C151.465 44.0471 151.912 43.3925 152.518 42.9064C153.123 42.4203 153.859 42.1245 154.632 42.0564C155.147 42.0111 155.665 42.0677 156.157 42.223C156.65 42.3783 157.107 42.6293 157.503 42.9615C157.898 43.2937 158.224 43.7006 158.462 44.159C158.7 44.6173 158.845 45.1182 158.889 45.6327Z" fill="white"/>
<path d="M158.889 45.633C158.974 46.6861 158.652 47.7317 157.99 48.5544C157.327 49.3771 156.374 49.9143 155.327 50.0553C154.757 50.1697 154.169 50.1623 153.602 50.0336C153.034 49.9049 152.501 49.6578 152.036 49.3084C151.571 48.9591 151.185 48.5155 150.904 48.0066C150.622 47.4977 150.452 46.935 150.403 46.3555C150.354 45.776 150.428 45.1928 150.621 44.644C150.813 44.0952 151.119 43.5933 151.519 43.1712C151.919 42.749 152.404 42.4162 152.942 42.1945C153.479 41.9728 154.058 41.8672 154.639 41.8847C155.692 41.8487 156.719 42.217 157.509 42.9139C158.3 43.6108 158.793 44.5837 158.889 45.633ZM158.889 45.633C158.845 45.1271 158.699 44.6353 158.46 44.1873C158.221 43.7393 157.894 43.3443 157.498 43.0262C157.102 42.7081 156.646 42.4735 156.157 42.3364C155.668 42.1993 155.156 42.1626 154.653 42.2286C153.69 42.3523 152.812 42.8433 152.203 43.599C151.594 44.3546 151.301 45.3165 151.384 46.2835C151.468 47.2505 151.922 48.1478 152.651 48.7879C153.381 49.428 154.33 49.7614 155.299 49.7183C155.807 49.697 156.305 49.573 156.764 49.3538C157.222 49.1346 157.632 48.8247 157.967 48.4429C158.303 48.0611 158.558 47.6153 158.716 47.1324C158.874 46.6494 158.933 46.1394 158.889 45.633Z" fill="#032F61"/>
<path d="M150.347 52.8751C150.384 53.306 150.292 53.7381 150.083 54.1167C149.874 54.4953 149.557 54.8035 149.173 55.0022C148.789 55.2009 148.355 55.2813 147.925 55.2332C147.495 55.1851 147.089 55.0106 146.758 54.7319C146.428 54.4531 146.187 54.0826 146.067 53.6671C145.947 53.2517 145.953 52.8099 146.084 52.3977C146.215 51.9856 146.465 51.6214 146.803 51.3514C147.14 51.0813 147.551 50.9175 147.982 50.8806C148.268 50.8552 148.557 50.8867 148.831 50.9733C149.105 51.0599 149.36 51.2 149.58 51.3854C149.8 51.5708 149.981 51.7978 150.112 52.0535C150.244 52.3092 150.324 52.5884 150.347 52.8751Z" fill="white"/>
<path d="M150.347 52.8752C150.386 53.3472 150.282 53.8198 150.048 54.2317C149.814 54.6436 149.462 54.9756 149.037 55.1846C148.612 55.3935 148.134 55.4697 147.665 55.4033C147.196 55.3368 146.758 55.1308 146.408 54.812C146.058 54.4932 145.812 54.0764 145.702 53.6158C145.592 53.1552 145.623 52.6721 145.791 52.2295C145.959 51.7868 146.257 51.405 146.645 51.1338C147.033 50.8626 147.494 50.7145 147.968 50.7088C148.564 50.7064 149.139 50.9276 149.579 51.3287C150.02 51.7299 150.294 52.2817 150.347 52.8752ZM150.347 52.8752C150.325 52.5961 150.244 52.3249 150.111 52.0787C149.978 51.8325 149.794 51.6168 149.573 51.4454C149.352 51.2739 149.097 51.1504 148.826 51.0828C148.554 51.0152 148.271 51.0049 147.995 51.0526C147.608 51.1182 147.248 51.2951 146.96 51.5618C146.671 51.8284 146.467 52.1733 146.371 52.5543C146.276 52.9353 146.293 53.3358 146.422 53.707C146.55 54.0783 146.784 54.4041 147.094 54.6446C147.405 54.8852 147.778 55.0301 148.17 55.0617C148.561 55.0933 148.954 55.0102 149.299 54.8226C149.644 54.6349 149.927 54.3508 150.113 54.005C150.299 53.6591 150.381 53.2666 150.347 52.8752Z" fill="#032F61"/>
<path d="M188.229 27.3657C188.594 30.3849 187.746 33.4257 185.871 35.8203C183.996 38.2149 181.248 39.7675 178.229 40.1373C176.242 40.3846 174.226 40.1023 172.383 39.3189C171.484 40.4952 170.327 41.4485 169 42.1047C167.673 42.7608 166.212 43.1022 164.732 43.1022C163.251 43.1022 161.791 42.7608 160.464 42.1047C159.137 41.4485 157.979 40.4952 157.081 39.3189C156.658 39.4438 156.225 39.5335 155.788 39.5871C154.29 39.7699 152.772 39.5145 151.416 38.8517C150.061 38.189 148.927 37.1473 148.152 35.8531C147.376 34.5588 146.993 33.0675 147.048 31.5598C147.104 30.0521 147.595 28.5928 148.463 27.3588C146.773 25.2085 145.907 22.5252 146.02 19.7926C146.134 17.06 147.22 14.458 149.083 12.4556C150.946 10.4533 153.463 9.18239 156.181 8.87208C158.898 8.56176 161.637 9.23245 163.903 10.7632C164.966 9.44143 166.359 8.42391 167.942 7.81366C169.525 7.20341 171.241 7.02208 172.916 7.28803C174.591 7.55398 176.166 8.25776 177.482 9.32815C178.798 10.3985 179.808 11.7975 180.409 13.3836C180.811 13.2484 181.226 13.1562 181.647 13.1085C182.919 12.9561 184.207 13.1949 185.339 13.7931C186.472 14.3913 187.395 15.3205 187.986 16.4569C188.577 17.5932 188.808 18.8827 188.647 20.1534C188.486 21.4241 187.942 22.6157 187.087 23.5693C187.689 24.7576 188.075 26.0428 188.229 27.3657Z" fill="white"/>
<path d="M188.228 27.366C188.586 30.3842 187.749 33.4226 185.897 35.8323C185.276 36.6172 184.56 37.3218 183.765 37.9299C182.155 39.1483 180.255 39.9261 178.253 40.1866C176.251 40.4471 174.216 40.1813 172.348 39.4155H172.458C171.554 40.6143 170.386 41.5882 169.044 42.261C167.701 42.9339 166.222 43.2875 164.721 43.2944C163.212 43.2998 161.723 42.9586 160.367 42.2972C159.012 41.6243 157.825 40.656 156.894 39.4636L157.142 39.5462C155.541 40.0294 153.831 40.0054 152.245 39.4774C150.651 38.9515 149.263 37.9388 148.276 36.5819C147.793 35.8999 147.411 35.1517 147.142 34.3605C146.884 33.5647 146.747 32.7347 146.736 31.8983C146.721 30.2125 147.23 28.5637 148.194 27.1803V27.5654C146.435 25.3631 145.538 22.5956 145.67 19.78C145.744 17.6827 146.382 15.6441 147.516 13.8782C148.65 12.1123 150.238 10.6842 152.115 9.74367C153.991 8.80316 156.085 8.38496 158.179 8.53294C160.272 8.68093 162.287 9.38965 164.012 10.5847L163.71 10.626C164.802 9.28154 166.23 8.25011 167.85 7.63647C169.47 7.02283 171.224 6.84885 172.932 7.13219C174.631 7.41401 176.225 8.13924 177.553 9.23456C178.882 10.3299 179.897 11.7565 180.498 13.3701L180.408 13.322C181.752 12.8849 183.203 12.9043 184.535 13.377C185.514 13.7272 186.392 14.3136 187.09 15.0841C187.788 15.8547 188.286 16.7856 188.538 17.7944C188.79 18.8033 188.79 19.8587 188.537 20.8673C188.284 21.8759 187.785 22.8065 187.086 23.5765C187.688 24.7621 188.075 26.0452 188.228 27.366ZM188.228 27.366C188.066 26.0436 187.67 24.7604 187.059 23.5765C187.994 22.5504 188.56 21.2423 188.668 19.8586C188.777 18.4749 188.421 17.0945 187.657 15.9355C186.902 14.7796 185.785 13.9073 184.48 13.4554C183.176 13.0036 181.758 12.9978 180.45 13.4389H180.381V13.3701C179.77 11.8087 178.763 10.4337 177.458 9.38116C176.152 8.33048 174.59 7.64676 172.932 7.40042C171.282 7.15398 169.597 7.34367 168.043 7.95063C166.498 8.56385 165.143 9.57464 164.115 10.8805L163.985 11.0455L163.806 10.9217C161.592 9.44629 158.925 8.8068 156.283 9.1177C153.641 9.4286 151.196 10.6696 149.385 12.6186C147.574 14.5676 146.516 17.0974 146.4 19.7553C146.284 22.4132 147.117 25.0257 148.751 27.1253L148.902 27.3179L148.758 27.5173C147.859 28.7857 147.378 30.3026 147.382 31.857C147.393 32.6295 147.516 33.3963 147.747 34.1335C147.988 34.8693 148.338 35.5648 148.785 36.1968C149.695 37.4697 150.978 38.429 152.456 38.9426C153.934 39.4562 155.535 39.4989 157.038 39.0647L157.197 39.0235L157.286 39.1473C158.161 40.2997 159.285 41.24 160.573 41.8983C162.535 42.8922 164.782 43.1722 166.928 42.6903C169.074 42.2084 170.985 40.9947 172.334 39.2573L172.382 39.1954H172.451C174.284 39.9882 176.293 40.2824 178.276 40.0482C180.271 39.8031 182.167 39.0421 183.778 37.8405C184.572 37.244 185.288 36.5509 185.91 35.7773C186.521 34.9858 187.032 34.1219 187.43 33.205C188.194 31.3596 188.469 29.3486 188.228 27.366Z" fill="#032F61"/>
<path d="M168.621 27.7237C168.607 26.8867 168.756 26.0549 169.061 25.2753C169.444 24.4571 170.091 23.7912 170.898 23.384C171.18 23.212 171.517 23.0263 171.929 22.8131C172.347 22.5932 172.745 22.3378 173.119 22.0497C173.504 21.7573 173.838 21.4042 174.109 21.0043C174.381 20.5975 174.522 20.1178 174.515 19.6288C174.522 19.2718 174.444 18.9183 174.288 18.5972C174.147 18.3097 173.948 18.0545 173.704 17.8475C173.455 17.6405 173.167 17.4861 172.858 17.3936C172.54 17.2904 172.208 17.237 171.874 17.2354C171.492 17.2283 171.113 17.3009 170.76 17.4486C170.437 17.5814 170.134 17.7572 169.859 17.9713C169.602 18.1864 169.371 18.4311 169.171 18.7004C168.974 18.9429 168.793 19.1979 168.628 19.4638L166.207 17.7925C166.442 17.234 166.767 16.7182 167.17 16.2657C167.557 15.8195 168.012 15.4367 168.518 15.1309C169.034 14.8268 169.589 14.5953 170.169 14.4431C170.768 14.2851 171.385 14.2065 172.005 14.2093C172.703 14.2129 173.398 14.3148 174.068 14.5119C174.743 14.7132 175.371 15.045 175.918 15.4885C176.481 15.9536 176.937 16.5356 177.252 17.1942C177.609 17.9748 177.783 18.8261 177.761 19.6838C177.77 20.2138 177.7 20.7422 177.555 21.2519C177.423 21.694 177.221 22.112 176.957 22.4899C176.696 22.8626 176.389 23.2001 176.042 23.494C175.665 23.8098 175.265 24.0972 174.845 24.3537L173.731 24.9933C173.374 25.1919 173.036 25.4221 172.72 25.6811C172.415 25.9187 172.157 26.2101 171.957 26.5408C171.75 26.8998 171.647 27.3095 171.661 27.7237H168.621ZM168.676 34.2024V30.3647H171.757V34.2024H168.676Z" fill="#F36B1C"/>
<path d="M161.737 20.5434C161.927 21.3579 161.95 22.2025 161.805 23.0262C161.609 23.902 161.125 24.6867 160.43 25.2546C160.189 25.4746 159.893 25.7291 159.536 26.0248C159.172 26.3265 158.834 26.6577 158.525 27.0152C158.21 27.3796 157.956 27.7931 157.775 28.2394C157.593 28.6939 157.555 29.193 157.665 29.67C157.728 30.0185 157.874 30.3466 158.092 30.6259C158.289 30.8807 158.537 31.0915 158.821 31.2449C159.106 31.3979 159.42 31.4914 159.742 31.52C160.075 31.5503 160.411 31.5318 160.739 31.465C161.114 31.3932 161.469 31.2458 161.785 31.0317C162.073 30.8371 162.334 30.6059 162.562 30.344C162.782 30.0813 162.969 29.7925 163.119 29.4843C163.26 29.2053 163.384 28.9182 163.49 28.6246L166.2 29.7662C166.089 30.3617 165.878 30.9339 165.574 31.4581C165.28 31.9703 164.909 32.4342 164.474 32.8336C164.032 33.239 163.537 33.5815 163.002 33.8515C162.449 34.1295 161.862 34.333 161.255 34.4567C160.564 34.6037 159.855 34.6478 159.151 34.5874C158.45 34.5349 157.766 34.3407 157.142 34.0166C156.499 33.6807 155.934 33.2118 155.485 32.6411C154.673 31.5035 154.273 30.1232 154.35 28.7277C154.388 28.2704 154.5 27.8222 154.68 27.4004C154.857 26.982 155.088 26.5888 155.368 26.2312C155.671 25.8432 156.002 25.4777 156.358 25.1376C156.675 24.8488 156.998 24.5599 157.314 24.2848C157.62 24.012 157.899 23.7103 158.147 23.3839C158.388 23.086 158.577 22.7486 158.704 22.3866C158.829 21.9924 158.843 21.5711 158.745 21.1693L161.737 20.5434ZM160.361 14.2161L161.152 17.9712L158.133 18.604L157.342 14.8488L160.361 14.2161Z" fill="#F36B1C"/>
</svg>
