<svg width="341" height="350" viewBox="0 0 341 350" fill="none" xmlns="http://www.w3.org/2000/svg">
<path d="M284.5 75.5L133 273.5" stroke="#084387" stroke-width="3"/>
<path d="M131 274L1 209" stroke="#084387" stroke-width="3"/>
<g filter="url(#filter0_d_232_732)">
<circle r="25" transform="matrix(-1 0 0 1 289 71)" fill="#2056CF"/>
<circle r="30" transform="matrix(-1 0 0 1 289 71)" stroke="white" stroke-width="10"/>
</g>
<g filter="url(#filter1_d_232_732)">
<circle r="25" transform="matrix(-1 0 0 1 136 268)" fill="#05CB0A"/>
<circle r="30" transform="matrix(-1 0 0 1 136 268)" stroke="white" stroke-width="10"/>
</g>
<path d="M228.36 8.06V22H226.54V8.06H228.36ZM236.802 10.84C238.135 10.84 239.215 11.2467 240.042 12.06C240.869 12.86 241.282 14.02 241.282 15.54V22H239.482V15.8C239.482 14.7067 239.209 13.8733 238.662 13.3C238.115 12.7133 237.369 12.42 236.422 12.42C235.462 12.42 234.695 12.72 234.122 13.32C233.562 13.92 233.282 14.7933 233.282 15.94V22H231.462V11.04H233.282V12.6C233.642 12.04 234.129 11.6067 234.742 11.3C235.369 10.9933 236.055 10.84 236.802 10.84ZM246.475 12.54V19C246.475 19.5333 246.588 19.9133 246.815 20.14C247.042 20.3533 247.435 20.46 247.995 20.46H249.335V22H247.695C246.682 22 245.922 21.7667 245.415 21.3C244.908 20.8333 244.655 20.0667 244.655 19V12.54H243.235V11.04H244.655V8.28H246.475V11.04H249.335V12.54H246.475ZM261.54 16.1C261.54 16.4467 261.52 16.8133 261.48 17.2H252.72C252.787 18.28 253.153 19.1267 253.82 19.74C254.5 20.34 255.32 20.64 256.28 20.64C257.067 20.64 257.72 20.46 258.24 20.1C258.773 19.7267 259.147 19.2333 259.36 18.62H261.32C261.027 19.6733 260.44 20.5333 259.56 21.2C258.68 21.8533 257.587 22.18 256.28 22.18C255.24 22.18 254.307 21.9467 253.48 21.48C252.667 21.0133 252.027 20.3533 251.56 19.5C251.093 18.6333 250.86 17.6333 250.86 16.5C250.86 15.3667 251.087 14.3733 251.54 13.52C251.993 12.6667 252.627 12.0133 253.44 11.56C254.267 11.0933 255.213 10.86 256.28 10.86C257.32 10.86 258.24 11.0867 259.04 11.54C259.84 11.9933 260.453 12.62 260.88 13.42C261.32 14.2067 261.54 15.1 261.54 16.1ZM259.66 15.72C259.66 15.0267 259.507 14.4333 259.2 13.94C258.893 13.4333 258.473 13.0533 257.94 12.8C257.42 12.5333 256.84 12.4 256.2 12.4C255.28 12.4 254.493 12.6933 253.84 13.28C253.2 13.8667 252.833 14.68 252.74 15.72H259.66ZM265.762 7.2V22H263.942V7.2H265.762ZM270.684 7.2V22H268.864V7.2H270.684ZM274.726 9.26C274.379 9.26 274.086 9.14 273.846 8.9C273.606 8.66 273.486 8.36667 273.486 8.02C273.486 7.67333 273.606 7.38 273.846 7.14C274.086 6.9 274.379 6.78 274.726 6.78C275.059 6.78 275.339 6.9 275.566 7.14C275.806 7.38 275.926 7.67333 275.926 8.02C275.926 8.36667 275.806 8.66 275.566 8.9C275.339 9.14 275.059 9.26 274.726 9.26ZM275.606 11.04V22H273.786V11.04H275.606ZM283.228 10.86C284.175 10.86 285.001 11.0667 285.708 11.48C286.428 11.8933 286.961 12.4133 287.308 13.04V11.04H289.148V22.24C289.148 23.24 288.935 24.1267 288.508 24.9C288.081 25.6867 287.468 26.3 286.668 26.74C285.881 27.18 284.961 27.4 283.908 27.4C282.468 27.4 281.268 27.06 280.308 26.38C279.348 25.7 278.781 24.7733 278.608 23.6H280.408C280.608 24.2667 281.021 24.8 281.648 25.2C282.275 25.6133 283.028 25.82 283.908 25.82C284.908 25.82 285.721 25.5067 286.348 24.88C286.988 24.2533 287.308 23.3733 287.308 22.24V19.94C286.948 20.58 286.415 21.1133 285.708 21.54C285.001 21.9667 284.175 22.18 283.228 22.18C282.255 22.18 281.368 21.94 280.568 21.46C279.781 20.98 279.161 20.3067 278.708 19.44C278.255 18.5733 278.028 17.5867 278.028 16.48C278.028 15.36 278.255 14.38 278.708 13.54C279.161 12.6867 279.781 12.0267 280.568 11.56C281.368 11.0933 282.255 10.86 283.228 10.86ZM287.308 16.5C287.308 15.6733 287.141 14.9533 286.808 14.34C286.475 13.7267 286.021 13.26 285.448 12.94C284.888 12.6067 284.268 12.44 283.588 12.44C282.908 12.44 282.288 12.6 281.728 12.92C281.168 13.24 280.721 13.7067 280.388 14.32C280.055 14.9333 279.888 15.6533 279.888 16.48C279.888 17.32 280.055 18.0533 280.388 18.68C280.721 19.2933 281.168 19.7667 281.728 20.1C282.288 20.42 282.908 20.58 283.588 20.58C284.268 20.58 284.888 20.42 285.448 20.1C286.021 19.7667 286.475 19.2933 286.808 18.68C287.141 18.0533 287.308 17.3267 287.308 16.5ZM302.224 16.1C302.224 16.4467 302.204 16.8133 302.164 17.2H293.404C293.47 18.28 293.837 19.1267 294.504 19.74C295.184 20.34 296.004 20.64 296.964 20.64C297.75 20.64 298.404 20.46 298.924 20.1C299.457 19.7267 299.83 19.2333 300.044 18.62H302.004C301.71 19.6733 301.124 20.5333 300.244 21.2C299.364 21.8533 298.27 22.18 296.964 22.18C295.924 22.18 294.99 21.9467 294.164 21.48C293.35 21.0133 292.71 20.3533 292.244 19.5C291.777 18.6333 291.544 17.6333 291.544 16.5C291.544 15.3667 291.77 14.3733 292.224 13.52C292.677 12.6667 293.31 12.0133 294.124 11.56C294.95 11.0933 295.897 10.86 296.964 10.86C298.004 10.86 298.924 11.0867 299.724 11.54C300.524 11.9933 301.137 12.62 301.564 13.42C302.004 14.2067 302.224 15.1 302.224 16.1ZM300.344 15.72C300.344 15.0267 300.19 14.4333 299.884 13.94C299.577 13.4333 299.157 13.0533 298.624 12.8C298.104 12.5333 297.524 12.4 296.884 12.4C295.964 12.4 295.177 12.6933 294.524 13.28C293.884 13.8667 293.517 14.68 293.424 15.72H300.344ZM309.966 10.84C311.299 10.84 312.379 11.2467 313.206 12.06C314.033 12.86 314.446 14.02 314.446 15.54V22H312.646V15.8C312.646 14.7067 312.373 13.8733 311.826 13.3C311.279 12.7133 310.533 12.42 309.586 12.42C308.626 12.42 307.859 12.72 307.286 13.32C306.726 13.92 306.446 14.7933 306.446 15.94V22H304.626V11.04H306.446V12.6C306.806 12.04 307.293 11.6067 307.906 11.3C308.533 10.9933 309.219 10.84 309.966 10.84ZM316.739 16.5C316.739 15.3667 316.966 14.38 317.419 13.54C317.872 12.6867 318.499 12.0267 319.299 11.56C320.112 11.0933 321.039 10.86 322.079 10.86C323.426 10.86 324.532 11.1867 325.399 11.84C326.279 12.4933 326.859 13.4 327.139 14.56H325.179C324.992 13.8933 324.626 13.3667 324.079 12.98C323.546 12.5933 322.879 12.4 322.079 12.4C321.039 12.4 320.199 12.76 319.559 13.48C318.919 14.1867 318.599 15.1933 318.599 16.5C318.599 17.82 318.919 18.84 319.559 19.56C320.199 20.28 321.039 20.64 322.079 20.64C322.879 20.64 323.546 20.4533 324.079 20.08C324.612 19.7067 324.979 19.1733 325.179 18.48H327.139C326.846 19.6 326.259 20.5 325.379 21.18C324.499 21.8467 323.399 22.18 322.079 22.18C321.039 22.18 320.112 21.9467 319.299 21.48C318.499 21.0133 317.872 20.3533 317.419 19.5C316.966 18.6467 316.739 17.6467 316.739 16.5ZM339.567 16.1C339.567 16.4467 339.547 16.8133 339.507 17.2H330.747C330.814 18.28 331.181 19.1267 331.847 19.74C332.527 20.34 333.347 20.64 334.307 20.64C335.094 20.64 335.747 20.46 336.267 20.1C336.801 19.7267 337.174 19.2333 337.387 18.62H339.347C339.054 19.6733 338.467 20.5333 337.587 21.2C336.707 21.8533 335.614 22.18 334.307 22.18C333.267 22.18 332.334 21.9467 331.507 21.48C330.694 21.0133 330.054 20.3533 329.587 19.5C329.121 18.6333 328.887 17.6333 328.887 16.5C328.887 15.3667 329.114 14.3733 329.567 13.52C330.021 12.6667 330.654 12.0133 331.467 11.56C332.294 11.0933 333.241 10.86 334.307 10.86C335.347 10.86 336.267 11.0867 337.067 11.54C337.867 11.9933 338.481 12.62 338.907 13.42C339.347 14.2067 339.567 15.1 339.567 16.1ZM337.687 15.72C337.687 15.0267 337.534 14.4333 337.227 13.94C336.921 13.4333 336.501 13.0533 335.967 12.8C335.447 12.5333 334.867 12.4 334.227 12.4C333.307 12.4 332.521 12.6933 331.867 13.28C331.227 13.8667 330.861 14.68 330.767 15.72H337.687Z" fill="#032F61"/>
<path d="M87.36 329.54V334.2H92.44V335.7H87.36V340.5H93.04V342H85.54V328.04H93.04V329.54H87.36ZM95.1139 336.48C95.1139 335.36 95.3406 334.38 95.7939 333.54C96.2472 332.687 96.8672 332.027 97.6539 331.56C98.4539 331.093 99.3472 330.86 100.334 330.86C101.187 330.86 101.981 331.06 102.714 331.46C103.447 331.847 104.007 332.36 104.394 333V327.2H106.234V342H104.394V339.94C104.034 340.593 103.501 341.133 102.794 341.56C102.087 341.973 101.261 342.18 100.314 342.18C99.3406 342.18 98.4539 341.94 97.6539 341.46C96.8672 340.98 96.2472 340.307 95.7939 339.44C95.3406 338.573 95.1139 337.587 95.1139 336.48ZM104.394 336.5C104.394 335.673 104.227 334.953 103.894 334.34C103.561 333.727 103.107 333.26 102.534 332.94C101.974 332.607 101.354 332.44 100.674 332.44C99.9939 332.44 99.3739 332.6 98.8139 332.92C98.2539 333.24 97.8072 333.707 97.4739 334.32C97.1406 334.933 96.9739 335.653 96.9739 336.48C96.9739 337.32 97.1406 338.053 97.4739 338.68C97.8072 339.293 98.2539 339.767 98.8139 340.1C99.3739 340.42 99.9939 340.58 100.674 340.58C101.354 340.58 101.974 340.42 102.534 340.1C103.107 339.767 103.561 339.293 103.894 338.68C104.227 338.053 104.394 337.327 104.394 336.5ZM119.03 331.04V342H117.21V340.38C116.863 340.94 116.376 341.38 115.75 341.7C115.136 342.007 114.456 342.16 113.71 342.16C112.856 342.16 112.09 341.987 111.41 341.64C110.73 341.28 110.19 340.747 109.79 340.04C109.403 339.333 109.21 338.473 109.21 337.46V331.04H111.01V337.22C111.01 338.3 111.283 339.133 111.83 339.72C112.376 340.293 113.123 340.58 114.07 340.58C115.043 340.58 115.81 340.28 116.37 339.68C116.93 339.08 117.21 338.207 117.21 337.06V331.04H119.03ZM121.423 336.5C121.423 335.367 121.649 334.38 122.103 333.54C122.556 332.687 123.183 332.027 123.983 331.56C124.796 331.093 125.723 330.86 126.763 330.86C128.109 330.86 129.216 331.187 130.083 331.84C130.963 332.493 131.543 333.4 131.823 334.56H129.863C129.676 333.893 129.309 333.367 128.763 332.98C128.229 332.593 127.563 332.4 126.763 332.4C125.723 332.4 124.883 332.76 124.243 333.48C123.603 334.187 123.283 335.193 123.283 336.5C123.283 337.82 123.603 338.84 124.243 339.56C124.883 340.28 125.723 340.64 126.763 340.64C127.563 340.64 128.229 340.453 128.763 340.08C129.296 339.707 129.663 339.173 129.863 338.48H131.823C131.529 339.6 130.943 340.5 130.063 341.18C129.183 341.847 128.083 342.18 126.763 342.18C125.723 342.18 124.796 341.947 123.983 341.48C123.183 341.013 122.556 340.353 122.103 339.5C121.649 338.647 121.423 337.647 121.423 336.5ZM133.571 336.48C133.571 335.36 133.798 334.38 134.251 333.54C134.704 332.687 135.324 332.027 136.111 331.56C136.911 331.093 137.798 330.86 138.771 330.86C139.731 330.86 140.564 331.067 141.271 331.48C141.978 331.893 142.504 332.413 142.851 333.04V331.04H144.691V342H142.851V339.96C142.491 340.6 141.951 341.133 141.231 341.56C140.524 341.973 139.698 342.18 138.751 342.18C137.778 342.18 136.898 341.94 136.111 341.46C135.324 340.98 134.704 340.307 134.251 339.44C133.798 338.573 133.571 337.587 133.571 336.48ZM142.851 336.5C142.851 335.673 142.684 334.953 142.351 334.34C142.018 333.727 141.564 333.26 140.991 332.94C140.431 332.607 139.811 332.44 139.131 332.44C138.451 332.44 137.831 332.6 137.271 332.92C136.711 333.24 136.264 333.707 135.931 334.32C135.598 334.933 135.431 335.653 135.431 336.48C135.431 337.32 135.598 338.053 135.931 338.68C136.264 339.293 136.711 339.767 137.271 340.1C137.831 340.42 138.451 340.58 139.131 340.58C139.811 340.58 140.431 340.42 140.991 340.1C141.564 339.767 142.018 339.293 142.351 338.68C142.684 338.053 142.851 337.327 142.851 336.5ZM149.987 332.54V339C149.987 339.533 150.1 339.913 150.327 340.14C150.553 340.353 150.947 340.46 151.507 340.46H152.847V342H151.207C150.193 342 149.433 341.767 148.927 341.3C148.42 340.833 148.167 340.067 148.167 339V332.54H146.747V331.04H148.167V328.28H149.987V331.04H152.847V332.54H149.987ZM155.992 329.26C155.645 329.26 155.352 329.14 155.112 328.9C154.872 328.66 154.752 328.367 154.752 328.02C154.752 327.673 154.872 327.38 155.112 327.14C155.352 326.9 155.645 326.78 155.992 326.78C156.325 326.78 156.605 326.9 156.832 327.14C157.072 327.38 157.192 327.673 157.192 328.02C157.192 328.367 157.072 328.66 156.832 328.9C156.605 329.14 156.325 329.26 155.992 329.26ZM156.872 331.04V342H155.052V331.04H156.872ZM164.754 342.18C163.727 342.18 162.794 341.947 161.954 341.48C161.127 341.013 160.474 340.353 159.994 339.5C159.527 338.633 159.294 337.633 159.294 336.5C159.294 335.38 159.534 334.393 160.014 333.54C160.507 332.673 161.174 332.013 162.014 331.56C162.854 331.093 163.794 330.86 164.834 330.86C165.874 330.86 166.814 331.093 167.654 331.56C168.494 332.013 169.154 332.667 169.634 333.52C170.127 334.373 170.374 335.367 170.374 336.5C170.374 337.633 170.12 338.633 169.614 339.5C169.12 340.353 168.447 341.013 167.594 341.48C166.74 341.947 165.794 342.18 164.754 342.18ZM164.754 340.58C165.407 340.58 166.02 340.427 166.594 340.12C167.167 339.813 167.627 339.353 167.974 338.74C168.334 338.127 168.514 337.38 168.514 336.5C168.514 335.62 168.34 334.873 167.994 334.26C167.647 333.647 167.194 333.193 166.634 332.9C166.074 332.593 165.467 332.44 164.814 332.44C164.147 332.44 163.534 332.593 162.974 332.9C162.427 333.193 161.987 333.647 161.654 334.26C161.32 334.873 161.154 335.62 161.154 336.5C161.154 337.393 161.314 338.147 161.634 338.76C161.967 339.373 162.407 339.833 162.954 340.14C163.5 340.433 164.1 340.58 164.754 340.58ZM178.107 330.84C179.44 330.84 180.52 331.247 181.347 332.06C182.173 332.86 182.587 334.02 182.587 335.54V342H180.787V335.8C180.787 334.707 180.513 333.873 179.967 333.3C179.42 332.713 178.673 332.42 177.727 332.42C176.767 332.42 176 332.72 175.427 333.32C174.867 333.92 174.587 334.793 174.587 335.94V342H172.767V331.04H174.587V332.6C174.947 332.04 175.433 331.607 176.047 331.3C176.673 330.993 177.36 330.84 178.107 330.84Z" fill="#032F61"/>
<defs>
<filter id="filter0_d_232_732" x="246" y="32" width="86" height="86" filterUnits="userSpaceOnUse" color-interpolation-filters="sRGB">
<feFlood flood-opacity="0" result="BackgroundImageFix"/>
<feColorMatrix in="SourceAlpha" type="matrix" values="0 0 0 0 0 0 0 0 0 0 0 0 0 0 0 0 0 0 127 0" result="hardAlpha"/>
<feOffset dy="4"/>
<feGaussianBlur stdDeviation="4"/>
<feComposite in2="hardAlpha" operator="out"/>
<feColorMatrix type="matrix" values="0 0 0 0 0 0 0 0 0 0 0 0 0 0 0 0 0 0 0.16 0"/>
<feBlend mode="normal" in2="BackgroundImageFix" result="effect1_dropShadow_232_732"/>
<feBlend mode="normal" in="SourceGraphic" in2="effect1_dropShadow_232_732" result="shape"/>
</filter>
<filter id="filter1_d_232_732" x="93" y="229" width="86" height="86" filterUnits="userSpaceOnUse" color-interpolation-filters="sRGB">
<feFlood flood-opacity="0" result="BackgroundImageFix"/>
<feColorMatrix in="SourceAlpha" type="matrix" values="0 0 0 0 0 0 0 0 0 0 0 0 0 0 0 0 0 0 127 0" result="hardAlpha"/>
<feOffset dy="4"/>
<feGaussianBlur stdDeviation="4"/>
<feComposite in2="hardAlpha" operator="out"/>
<feColorMatrix type="matrix" values="0 0 0 0 0 0 0 0 0 0 0 0 0 0 0 0 0 0 0.16 0"/>
<feBlend mode="normal" in2="BackgroundImageFix" result="effect1_dropShadow_232_732"/>
<feBlend mode="normal" in="SourceGraphic" in2="effect1_dropShadow_232_732" result="shape"/>
</filter>
</defs>
</svg>
