<svg width="332" height="350" viewBox="0 0 332 350" fill="none" xmlns="http://www.w3.org/2000/svg">
<path d="M47.5 75.5L199 273.5" stroke="#084387" stroke-width="3"/>
<path d="M201 274L331 209" stroke="#084387" stroke-width="3"/>
<g filter="url(#filter0_d_232_731)">
<circle cx="43" cy="71" r="25" fill="#F2DD27"/>
<circle cx="43" cy="71" r="30" stroke="white" stroke-width="10"/>
</g>
<g filter="url(#filter1_d_232_731)">
<circle cx="196" cy="268" r="25" fill="#E22525"/>
<circle cx="196" cy="268" r="30" stroke="white" stroke-width="10"/>
</g>
<path d="M6.86 15.02C6.86 13.66 7.16667 12.44 7.78 11.36C8.39333 10.2667 9.22667 9.41333 10.28 8.8C11.3467 8.18667 12.5267 7.88 13.82 7.88C15.34 7.88 16.6667 8.24667 17.8 8.98C18.9333 9.71333 19.76 10.7533 20.28 12.1H18.1C17.7133 11.26 17.1533 10.6133 16.42 10.16C15.7 9.70667 14.8333 9.48 13.82 9.48C12.8467 9.48 11.9733 9.70667 11.2 10.16C10.4267 10.6133 9.82 11.26 9.38 12.1C8.94 12.9267 8.72 13.9 8.72 15.02C8.72 16.1267 8.94 17.1 9.38 17.94C9.82 18.7667 10.4267 19.4067 11.2 19.86C11.9733 20.3133 12.8467 20.54 13.82 20.54C14.8333 20.54 15.7 20.32 16.42 19.88C17.1533 19.4267 17.7133 18.78 18.1 17.94H20.28C19.76 19.2733 18.9333 20.3067 17.8 21.04C16.6667 21.76 15.34 22.12 13.82 22.12C12.5267 22.12 11.3467 21.82 10.28 21.22C9.22667 20.6067 8.39333 19.76 7.78 18.68C7.16667 17.6 6.86 16.38 6.86 15.02ZM28.4292 10.84C29.2559 10.84 30.0026 11.02 30.6692 11.38C31.3359 11.7267 31.8559 12.2533 32.2292 12.96C32.6159 13.6667 32.8092 14.5267 32.8092 15.54V22H31.0092V15.8C31.0092 14.7067 30.7359 13.8733 30.1892 13.3C29.6426 12.7133 28.8959 12.42 27.9492 12.42C26.9892 12.42 26.2226 12.72 25.6492 13.32C25.0892 13.92 24.8092 14.7933 24.8092 15.94V22H22.9892V7.2H24.8092V12.6C25.1692 12.04 25.6626 11.6067 26.2892 11.3C26.9292 10.9933 27.6426 10.84 28.4292 10.84ZM35.1022 16.48C35.1022 15.36 35.3289 14.38 35.7822 13.54C36.2355 12.6867 36.8555 12.0267 37.6422 11.56C38.4422 11.0933 39.3289 10.86 40.3022 10.86C41.2622 10.86 42.0955 11.0667 42.8022 11.48C43.5089 11.8933 44.0355 12.4133 44.3822 13.04V11.04H46.2222V22H44.3822V19.96C44.0222 20.6 43.4822 21.1333 42.7622 21.56C42.0555 21.9733 41.2289 22.18 40.2822 22.18C39.3089 22.18 38.4289 21.94 37.6422 21.46C36.8555 20.98 36.2355 20.3067 35.7822 19.44C35.3289 18.5733 35.1022 17.5867 35.1022 16.48ZM44.3822 16.5C44.3822 15.6733 44.2155 14.9533 43.8822 14.34C43.5489 13.7267 43.0955 13.26 42.5222 12.94C41.9622 12.6067 41.3422 12.44 40.6622 12.44C39.9822 12.44 39.3622 12.6 38.8022 12.92C38.2422 13.24 37.7955 13.7067 37.4622 14.32C37.1289 14.9333 36.9622 15.6533 36.9622 16.48C36.9622 17.32 37.1289 18.0533 37.4622 18.68C37.7955 19.2933 38.2422 19.7667 38.8022 20.1C39.3622 20.42 39.9822 20.58 40.6622 20.58C41.3422 20.58 41.9622 20.42 42.5222 20.1C43.0955 19.7667 43.5489 19.2933 43.8822 18.68C44.2155 18.0533 44.3822 17.3267 44.3822 16.5ZM51.1178 12.82C51.4378 12.1933 51.8911 11.7067 52.4778 11.36C53.0778 11.0133 53.8045 10.84 54.6578 10.84V12.72H54.1778C52.1378 12.72 51.1178 13.8267 51.1178 16.04V22H49.2978V11.04H51.1178V12.82ZM57.6988 9.26C57.3521 9.26 57.0588 9.14 56.8188 8.9C56.5788 8.66 56.4588 8.36667 56.4588 8.02C56.4588 7.67333 56.5788 7.38 56.8188 7.14C57.0588 6.9 57.3521 6.78 57.6988 6.78C58.0321 6.78 58.3121 6.9 58.5388 7.14C58.7788 7.38 58.8988 7.67333 58.8988 8.02C58.8988 8.36667 58.7788 8.66 58.5388 8.9C58.3121 9.14 58.0321 9.26 57.6988 9.26ZM58.5788 11.04V22H56.7588V11.04H58.5788ZM63.9006 12.54V19C63.9006 19.5333 64.014 19.9133 64.2406 20.14C64.4673 20.3533 64.8606 20.46 65.4206 20.46H66.7606V22H65.1206C64.1073 22 63.3473 21.7667 62.8406 21.3C62.334 20.8333 62.0806 20.0667 62.0806 19V12.54H60.6606V11.04H62.0806V8.28H63.9006V11.04H66.7606V12.54H63.9006ZM78.4058 11.04L71.8058 27.16H69.9258L72.0858 21.88L67.6658 11.04H69.6858L73.1258 19.92L76.5258 11.04H78.4058Z" fill="#032F61"/>
<path d="M169.86 331.14C169.86 332.3 169.46 333.267 168.66 334.04C167.873 334.8 166.667 335.18 165.04 335.18H162.36V341H160.54V327.06H165.04C166.613 327.06 167.807 327.44 168.62 328.2C169.447 328.96 169.86 329.94 169.86 331.14ZM165.04 333.68C166.053 333.68 166.8 333.46 167.28 333.02C167.76 332.58 168 331.953 168 331.14C168 329.42 167.013 328.56 165.04 328.56H162.36V333.68H165.04ZM171.442 335.48C171.442 334.36 171.669 333.38 172.122 332.54C172.575 331.687 173.195 331.027 173.982 330.56C174.782 330.093 175.669 329.86 176.642 329.86C177.602 329.86 178.435 330.067 179.142 330.48C179.849 330.893 180.375 331.413 180.722 332.04V330.04H182.562V341H180.722V338.96C180.362 339.6 179.822 340.133 179.102 340.56C178.395 340.973 177.569 341.18 176.622 341.18C175.649 341.18 174.769 340.94 173.982 340.46C173.195 339.98 172.575 339.307 172.122 338.44C171.669 337.573 171.442 336.587 171.442 335.48ZM180.722 335.5C180.722 334.673 180.555 333.953 180.222 333.34C179.889 332.727 179.435 332.26 178.862 331.94C178.302 331.607 177.682 331.44 177.002 331.44C176.322 331.44 175.702 331.6 175.142 331.92C174.582 332.24 174.135 332.707 173.802 333.32C173.469 333.933 173.302 334.653 173.302 335.48C173.302 336.32 173.469 337.053 173.802 337.68C174.135 338.293 174.582 338.767 175.142 339.1C175.702 339.42 176.322 339.58 177.002 339.58C177.682 339.58 178.302 339.42 178.862 339.1C179.435 338.767 179.889 338.293 180.222 337.68C180.555 337.053 180.722 336.327 180.722 335.5ZM189.518 341.18C188.678 341.18 187.924 341.04 187.258 340.76C186.591 340.467 186.064 340.067 185.678 339.56C185.291 339.04 185.078 338.447 185.038 337.78H186.918C186.971 338.327 187.224 338.773 187.678 339.12C188.144 339.467 188.751 339.64 189.498 339.64C190.191 339.64 190.738 339.487 191.138 339.18C191.538 338.873 191.738 338.487 191.738 338.02C191.738 337.54 191.524 337.187 191.098 336.96C190.671 336.72 190.011 336.487 189.118 336.26C188.304 336.047 187.638 335.833 187.118 335.62C186.611 335.393 186.171 335.067 185.798 334.64C185.438 334.2 185.258 333.627 185.258 332.92C185.258 332.36 185.424 331.847 185.758 331.38C186.091 330.913 186.564 330.547 187.178 330.28C187.791 330 188.491 329.86 189.278 329.86C190.491 329.86 191.471 330.167 192.218 330.78C192.964 331.393 193.364 332.233 193.418 333.3H191.598C191.558 332.727 191.324 332.267 190.898 331.92C190.484 331.573 189.924 331.4 189.218 331.4C188.564 331.4 188.044 331.54 187.658 331.82C187.271 332.1 187.078 332.467 187.078 332.92C187.078 333.28 187.191 333.58 187.418 333.82C187.658 334.047 187.951 334.233 188.298 334.38C188.658 334.513 189.151 334.667 189.778 334.84C190.564 335.053 191.204 335.267 191.698 335.48C192.191 335.68 192.611 335.987 192.958 336.4C193.318 336.813 193.504 337.353 193.518 338.02C193.518 338.62 193.351 339.16 193.018 339.64C192.684 340.12 192.211 340.5 191.598 340.78C190.998 341.047 190.304 341.18 189.518 341.18ZM199.967 341.18C199.127 341.18 198.374 341.04 197.707 340.76C197.04 340.467 196.514 340.067 196.127 339.56C195.74 339.04 195.527 338.447 195.487 337.78H197.367C197.42 338.327 197.674 338.773 198.127 339.12C198.594 339.467 199.2 339.64 199.947 339.64C200.64 339.64 201.187 339.487 201.587 339.18C201.987 338.873 202.187 338.487 202.187 338.02C202.187 337.54 201.974 337.187 201.547 336.96C201.12 336.72 200.46 336.487 199.567 336.26C198.754 336.047 198.087 335.833 197.567 335.62C197.06 335.393 196.62 335.067 196.247 334.64C195.887 334.2 195.707 333.627 195.707 332.92C195.707 332.36 195.874 331.847 196.207 331.38C196.54 330.913 197.014 330.547 197.627 330.28C198.24 330 198.94 329.86 199.727 329.86C200.94 329.86 201.92 330.167 202.667 330.78C203.414 331.393 203.814 332.233 203.867 333.3H202.047C202.007 332.727 201.774 332.267 201.347 331.92C200.934 331.573 200.374 331.4 199.667 331.4C199.014 331.4 198.494 331.54 198.107 331.82C197.72 332.1 197.527 332.467 197.527 332.92C197.527 333.28 197.64 333.58 197.867 333.82C198.107 334.047 198.4 334.233 198.747 334.38C199.107 334.513 199.6 334.667 200.227 334.84C201.014 335.053 201.654 335.267 202.147 335.48C202.64 335.68 203.06 335.987 203.407 336.4C203.767 336.813 203.954 337.353 203.967 338.02C203.967 338.62 203.8 339.16 203.467 339.64C203.134 340.12 202.66 340.5 202.047 340.78C201.447 341.047 200.754 341.18 199.967 341.18ZM207.476 328.26C207.129 328.26 206.836 328.14 206.596 327.9C206.356 327.66 206.236 327.367 206.236 327.02C206.236 326.673 206.356 326.38 206.596 326.14C206.836 325.9 207.129 325.78 207.476 325.78C207.809 325.78 208.089 325.9 208.316 326.14C208.556 326.38 208.676 326.673 208.676 327.02C208.676 327.367 208.556 327.66 208.316 327.9C208.089 328.14 207.809 328.26 207.476 328.26ZM208.356 330.04V341H206.536V330.04H208.356ZM216.238 341.18C215.211 341.18 214.278 340.947 213.438 340.48C212.611 340.013 211.958 339.353 211.478 338.5C211.011 337.633 210.778 336.633 210.778 335.5C210.778 334.38 211.018 333.393 211.498 332.54C211.991 331.673 212.658 331.013 213.498 330.56C214.338 330.093 215.278 329.86 216.318 329.86C217.358 329.86 218.298 330.093 219.138 330.56C219.978 331.013 220.638 331.667 221.118 332.52C221.611 333.373 221.858 334.367 221.858 335.5C221.858 336.633 221.605 337.633 221.098 338.5C220.605 339.353 219.931 340.013 219.078 340.48C218.225 340.947 217.278 341.18 216.238 341.18ZM216.238 339.58C216.891 339.58 217.505 339.427 218.078 339.12C218.651 338.813 219.111 338.353 219.458 337.74C219.818 337.127 219.998 336.38 219.998 335.5C219.998 334.62 219.825 333.873 219.478 333.26C219.131 332.647 218.678 332.193 218.118 331.9C217.558 331.593 216.951 331.44 216.298 331.44C215.631 331.44 215.018 331.593 214.458 331.9C213.911 332.193 213.471 332.647 213.138 333.26C212.805 333.873 212.638 334.62 212.638 335.5C212.638 336.393 212.798 337.147 213.118 337.76C213.451 338.373 213.891 338.833 214.438 339.14C214.985 339.433 215.585 339.58 216.238 339.58ZM229.591 329.84C230.924 329.84 232.004 330.247 232.831 331.06C233.658 331.86 234.071 333.02 234.071 334.54V341H232.271V334.8C232.271 333.707 231.998 332.873 231.451 332.3C230.904 331.713 230.158 331.42 229.211 331.42C228.251 331.42 227.484 331.72 226.911 332.32C226.351 332.92 226.071 333.793 226.071 334.94V341H224.251V330.04H226.071V331.6C226.431 331.04 226.918 330.607 227.531 330.3C228.158 329.993 228.844 329.84 229.591 329.84Z" fill="#032F61"/>
<defs>
<filter id="filter0_d_232_731" x="0" y="32" width="86" height="86" filterUnits="userSpaceOnUse" color-interpolation-filters="sRGB">
<feFlood flood-opacity="0" result="BackgroundImageFix"/>
<feColorMatrix in="SourceAlpha" type="matrix" values="0 0 0 0 0 0 0 0 0 0 0 0 0 0 0 0 0 0 127 0" result="hardAlpha"/>
<feOffset dy="4"/>
<feGaussianBlur stdDeviation="4"/>
<feComposite in2="hardAlpha" operator="out"/>
<feColorMatrix type="matrix" values="0 0 0 0 0 0 0 0 0 0 0 0 0 0 0 0 0 0 0.16 0"/>
<feBlend mode="normal" in2="BackgroundImageFix" result="effect1_dropShadow_232_731"/>
<feBlend mode="normal" in="SourceGraphic" in2="effect1_dropShadow_232_731" result="shape"/>
</filter>
<filter id="filter1_d_232_731" x="153" y="229" width="86" height="86" filterUnits="userSpaceOnUse" color-interpolation-filters="sRGB">
<feFlood flood-opacity="0" result="BackgroundImageFix"/>
<feColorMatrix in="SourceAlpha" type="matrix" values="0 0 0 0 0 0 0 0 0 0 0 0 0 0 0 0 0 0 127 0" result="hardAlpha"/>
<feOffset dy="4"/>
<feGaussianBlur stdDeviation="4"/>
<feComposite in2="hardAlpha" operator="out"/>
<feColorMatrix type="matrix" values="0 0 0 0 0 0 0 0 0 0 0 0 0 0 0 0 0 0 0.16 0"/>
<feBlend mode="normal" in2="BackgroundImageFix" result="effect1_dropShadow_232_731"/>
<feBlend mode="normal" in="SourceGraphic" in2="effect1_dropShadow_232_731" result="shape"/>
</filter>
</defs>
</svg>
