<svg width="142" height="102" viewBox="0 0 142 102" fill="none" xmlns="http://www.w3.org/2000/svg">
<path d="M65.1371 31.6298V86.3712H74.0348V25.8986L69.586 28.7642L65.1371 31.6298Z" fill="#084387"/>
<path d="M27.5377 56.4372V86.3712H36.4388V50.4887L27.5377 56.4372Z" fill="#084387"/>
<path d="M47.287 43.5449V86.3712H56.1881V37.5544L47.287 43.5449Z" fill="#084387"/>
<path d="M37.5647 70.1274L36.5513 76.1478L47.3682 69.0612V59.8233L41.4527 63.969C39.3844 65.4185 37.9839 67.6368 37.5647 70.1274Z" fill="#084387"/>
<circle cx="36.1606" cy="94.9941" r="4.17238" fill="#F2DD27"/>
<circle cx="52.8502" cy="94.9941" r="4.10284" fill="#E22525" stroke="white" stroke-width="0.139079"/>
<circle cx="69.6788" cy="94.9941" r="4.10284" fill="#05CB0A" stroke="white" stroke-width="0.139079"/>
<circle cx="87.6199" cy="94.9941" r="4.10284" fill="#2056CF" stroke="white" stroke-width="0.139079"/>
<path d="M86.758 27.7959V86.3712H95.6557V21.9572L86.758 27.7959Z" fill="#084387"/>
<path d="M76.4225 24.3418V36.8767L84.9775 31.2958C84.9775 31.2958 84.5773 26.5214 85.3796 23.4017C86.1818 20.2819 88.8621 16.0738 88.8621 16.0738L76.4225 24.3418Z" fill="#084387"/>
<path d="M86.758 27.4136V30.1026L109.19 15.3925V2.50635L95.2701 11.6438C89.9576 15.131 86.758 21.0587 86.758 27.4136Z" fill="#084387"/>
<path d="M10.2249 77.5857C8.33067 73.9643 18.6952 68.0106 24.0965 64.8189C13.9691 69.054 6.17392 75.4374 5.06907 78.6291C4.49411 80.2901 4.14838 84.276 18.9407 83.1098C33.733 81.9436 54.4791 76.5422 82.2223 67.1513C109.84 57.8028 127.629 47.417 132.001 44.5024C135.499 42.17 141.023 37.4439 139.98 34.9273C138.936 32.4108 133.044 31.7357 125.986 32.2881C119.005 32.8343 102.539 35.9094 98.4878 37.8735C101.188 37.4439 111.623 35.848 115.858 35.6025C119.94 35.3659 125.974 35.7199 125.249 38.7328C123.388 46.4666 92.4727 59.0909 84.6161 62.1182C78.5955 64.438 62.7653 69.887 48.7095 73.9029C33.8505 78.1484 12.3118 81.5753 10.2249 77.5857Z" fill="#F36B1C"/>
</svg>
