<svg width="72" height="72" viewBox="0 0 72 72" fill="none" xmlns="http://www.w3.org/2000/svg">
<path d="M20.792 38.5362C15.7606 38.2264 11.4618 42.0237 11.1568 46.9763C10.8519 51.9289 14.7137 56.2287 19.7451 56.5385C22.9971 56.7387 25.9851 55.2252 27.7403 52.7263C26.5745 50.6538 25.2061 46.8713 27.4168 41.9755C25.8754 40.0011 23.4918 38.7024 20.792 38.5362Z" fill="#084387"/>
<path d="M26.736 55.9313C26.5873 55.998 26.4386 56.1313 26.2155 56.2647C25.1002 58.865 22.3492 60.6653 19.152 60.6653C15.8805 60.6653 13.0551 58.7984 12.0142 56.198C11.6424 55.998 11.4194 55.798 11.2707 55.6646C11.1963 55.5979 11.1219 55.5979 11.1219 55.5312L11.0476 55.5979C4.1328 60.932 4.2815 70.2666 4.2815 70.6666V71H21.7544C22.0518 67.3995 23.2414 60.932 28 56.198C27.6282 55.9313 27.3308 55.7313 27.1821 55.5979C27.1078 55.6646 26.9591 55.7313 26.8847 55.798C26.8104 55.798 26.8104 55.8646 26.736 55.9313Z" fill="#084387"/>
<path d="M44.7716 56.0584C44.7127 56.1169 44.595 56.2338 44.4774 56.2922C44.4185 56.3506 44.4185 56.3506 44.3597 56.4091C43.477 57.1104 41.5352 58.3377 38.9462 58.7468C38.7108 58.8052 38.4166 58.8052 38.1812 58.8636C37.9458 58.8636 37.7105 58.8636 37.5339 58.8636C36.7101 58.8636 35.9452 58.7468 35.1802 58.5714C32.7677 57.987 30.9436 56.526 30.414 56.1169C30.3551 56.0584 30.2963 56.0584 30.2375 56L30.1198 56.1169C23.8825 61.4935 24.0002 70.8442 24.0002 71.2532V71.6039H50.6558V71.2532C50.2439 60.3831 45.8896 56.8182 44.7716 56.0584ZM41.0645 63.4221L37.2986 61.5519L33.5326 63.4221V58.8052L37.2986 60.7922L41.0645 58.8052V63.4221Z" fill="#F36B1C"/>
<path d="M28 46.773C28 51.9901 32.247 56.2082 37.4999 56.2082C40.0146 56.2082 42.4176 55.2092 44.2058 53.4331C45.994 51.6571 46.9999 49.2705 46.9999 46.773C46.9999 41.5559 42.7529 37.3378 37.4999 37.3378C32.247 37.2823 28 41.5559 28 46.773Z" fill="#F36B1C"/>
<path d="M52.7062 71H69V70.7214C69 70.3731 68.8294 62.0846 61.7488 57.0697L61.6635 57C61.4076 57.1393 61.237 57.3483 60.981 57.4876L55.9479 65.4975L55.0948 60.7612L56.545 58.8806C55.6066 59.0896 54.6682 59.1592 53.6445 59.1592C53.3886 59.1592 53.1327 59.1592 52.8768 59.1592C52.4502 59.1592 51.9384 59.0896 51.5118 59.0199C51.3412 59.0199 51.1706 58.9502 51 58.9502L52.4502 60.8308L51.5118 65.2886C52.1943 67.4478 52.6209 69.5373 52.7062 71Z" fill="#084387"/>
<path d="M53.8512 57.0288C58.6536 56.7087 62.2943 52.6517 61.9822 47.9681C61.6701 43.2844 57.5232 39.7464 52.7857 40.0621C50.8388 40.1918 49.0639 40.9458 47.7079 42.117C48.2423 43.2892 48.5904 44.6011 48.679 45.9302C48.8688 48.7784 48.0034 51.4426 46.3171 53.5257C47.97 55.8314 50.7362 57.2364 53.8512 57.0288Z" fill="#084387"/>
<path d="M21.1538 34.9171C21.1538 36.0321 22.0577 36.936 23.1727 36.936C24.2877 36.936 25.1916 36.0321 25.1916 34.9171C25.1916 33.8021 24.2877 32.8982 23.1727 32.8982C22.0577 32.8982 21.1538 33.8021 21.1538 34.9171ZM24.3033 35.0382C24.3033 35.7295 23.7429 36.2899 23.0516 36.2899C22.3603 36.2899 21.7999 35.7295 21.7999 35.0382C21.7999 34.3469 22.3603 33.7865 23.0516 33.7865C23.7429 33.7865 24.3033 34.3469 24.3033 35.0382Z" fill="#084387"/>
<path d="M53.311 34.5222C53.311 35.5861 52.4486 36.4485 51.3847 36.4485C50.3209 36.4485 49.4584 35.5861 49.4584 34.5222C49.4584 33.4584 50.3209 32.5959 51.3847 32.5959C52.4486 32.5959 53.311 33.4584 53.311 34.5222ZM50.306 34.6378C50.306 35.2974 50.8407 35.8321 51.5003 35.8321C52.1599 35.8321 52.6946 35.2974 52.6946 34.6378C52.6946 33.9782 52.1599 33.4435 51.5003 33.4435C50.8407 33.4435 50.306 33.9782 50.306 34.6378Z" fill="#084387"/>
<path d="M39.1531 35.2331C38.5752 36.234 37.2954 36.577 36.2944 35.9991C35.2935 35.4212 34.9506 34.1413 35.5285 33.1404C36.1063 32.1395 37.3862 31.7965 38.3871 32.3744C39.3881 32.9523 39.731 34.2322 39.1531 35.2331ZM36.2631 33.7095C35.9048 34.3301 36.1174 35.1236 36.738 35.4819C37.3586 35.8402 38.1521 35.6276 38.5104 35.007C38.8687 34.3864 38.6561 33.5929 38.0355 33.2346C37.4149 32.8763 36.6214 33.089 36.2631 33.7095Z" fill="#084387"/>
<path d="M28.0103 28.9121C28.0103 27.4738 26.8442 26.3077 25.4059 26.3077C23.9675 26.3077 22.8015 27.4738 22.8015 28.9121C22.8015 30.3505 23.9675 31.5165 25.4059 31.5165C26.8442 31.5165 28.0103 30.3505 28.0103 28.9121ZM23.7964 29.2299C23.7964 28.3381 24.5193 27.6152 25.4111 27.6152C26.3029 27.6152 27.0258 28.3381 27.0258 29.2299C27.0258 30.1217 26.3029 30.8446 25.4111 30.8446C24.5194 30.8446 23.7964 30.1217 23.7964 29.2299Z" fill="#084387"/>
<path d="M46.7694 28.7927C46.7694 27.4203 47.8819 26.3077 49.2543 26.3077C50.6267 26.3077 51.7393 27.4203 51.7393 28.7927C51.7393 30.1651 50.6267 31.2776 49.2543 31.2776C47.882 31.2776 46.7694 30.1651 46.7694 28.7927ZM50.79 29.0959C50.79 28.245 50.1002 27.5552 49.2493 27.5552C48.3985 27.5552 47.7087 28.245 47.7087 29.0959C47.7087 29.9468 48.3984 30.6366 49.2493 30.6366C50.1002 30.6365 50.79 29.9468 50.79 29.0959Z" fill="#084387"/>
<path d="M35.0699 26.5687C35.8153 25.2776 37.4664 24.8352 38.7576 25.5806C40.0487 26.3261 40.4911 27.9771 39.7457 29.2683C39.0002 30.5595 37.3492 31.0019 36.058 30.2564C34.7668 29.511 34.3244 27.8599 35.0699 26.5687ZM38.6879 29.038C39.1501 28.2374 38.8758 27.2138 38.0752 26.7516C37.2747 26.2894 36.2511 26.5637 35.7889 27.3642C35.3267 28.1648 35.6009 29.1884 36.4015 29.6506C37.202 30.1128 38.2257 29.8385 38.6879 29.038Z" fill="#084387"/>
<path d="M53.1213 11.9878C53.1213 15.1774 51.4372 17.7231 48.6227 19.4967C45.7938 21.2794 41.8405 22.2631 37.423 22.2631C33.0055 22.2631 29.0522 21.2794 26.2233 19.4967C23.4087 17.7231 21.7247 15.1774 21.7247 11.9878C21.7247 9.10014 22.5476 6.27796 24.8568 4.16912C27.1746 2.05247 31.0802 0.570848 37.423 0.570848C43.7657 0.570848 47.6714 2.05247 49.9891 4.16912C52.2983 6.27796 53.1213 9.10014 53.1213 11.9878Z" stroke="#084387" stroke-width="1.1417"/>
<path d="M34.8621 17.731C34.8637 17.901 34.9135 18.0671 35.0057 18.2099L35.4686 18.9016C35.5478 19.0193 35.6548 19.1158 35.78 19.1826C35.9052 19.2494 36.0449 19.2844 36.1869 19.2846H37.8469C37.9888 19.2844 38.1285 19.2494 38.2537 19.1826C38.379 19.1158 38.4859 19.0193 38.5651 18.9016L39.028 18.2099C39.1202 18.0671 39.17 17.901 39.1717 17.731V16.7202H34.8621V17.731Z" fill="#F36B1C"/>
<path d="M43.2051 9.0754C43.1752 8.78057 43.3899 8.51728 43.6847 8.48731L44.788 8.37519C45.0828 8.34523 45.3461 8.55995 45.3761 8.85478V8.85478C45.406 9.14961 45.1913 9.41291 44.8965 9.44287L43.7932 9.55499C43.4984 9.58496 43.2351 9.37024 43.2051 9.0754V9.0754Z" fill="#F36B1C"/>
<path d="M31.0777 8.86978C31.0341 9.14931 30.7722 9.34059 30.4926 9.29702L29.4466 9.13398C29.1671 9.09041 28.9758 8.82848 29.0194 8.54895V8.54895C29.063 8.26942 29.3249 8.07813 29.6044 8.1217L30.6504 8.28475C30.93 8.32832 31.1212 8.59025 31.0777 8.86978V8.86978Z" fill="#F36B1C"/>
<path d="M44.5858 13.5194C44.4643 13.7897 44.1466 13.9104 43.8763 13.7889L42.8976 13.3491C42.6273 13.2276 42.5066 12.91 42.6281 12.6397V12.6397C42.7496 12.3693 43.0672 12.2487 43.3376 12.3702L44.3162 12.81C44.5865 12.9314 44.7072 13.249 44.5858 13.5194V13.5194Z" fill="#F36B1C"/>
<path d="M30.8759 4.43173C31.0534 4.21138 31.3759 4.17668 31.5962 4.35422L32.3938 4.99688C32.6141 5.1744 32.6488 5.49688 32.4713 5.71719V5.71719C32.2938 5.93754 31.9712 5.97224 31.7509 5.7947L30.9534 5.15204C30.7331 4.97453 30.6984 4.65204 30.8759 4.43173V4.43173Z" fill="#F36B1C"/>
<path d="M42.6721 5.82105C42.4317 5.99445 42.0963 5.94014 41.9229 5.69973V5.69973C41.7495 5.45936 41.8038 5.12398 42.0442 4.9506L42.9143 4.3229C43.1547 4.1495 43.4902 4.20382 43.6635 4.44422V4.44422C43.8369 4.68459 43.7826 5.01998 43.5422 5.19336L42.6721 5.82105Z" fill="#F36B1C"/>
<path d="M30.7831 12.0039C31.047 11.9018 31.3437 12.0331 31.4457 12.297V12.297C31.5477 12.5609 31.4165 12.8575 31.1527 12.9595L30.1974 13.329C29.9335 13.431 29.6368 13.2998 29.5347 13.0359V13.0359C29.4327 12.772 29.5639 12.4754 29.8278 12.3733L30.7831 12.0039Z" fill="#F36B1C"/>
<path d="M36.99 5.49396C36.0752 5.48927 35.1787 5.74963 34.4088 6.24358C33.6388 6.73753 33.0285 7.44392 32.6514 8.27736C32.2744 9.1108 32.1468 10.0356 32.2841 10.94C32.4215 11.8444 32.8178 12.6897 33.4253 13.3736C34.0389 14.1028 34.5148 14.9375 34.8299 15.837V15.837H39.1501C39.4652 14.9375 39.9411 14.1028 40.5547 13.3736C41.3097 12.5206 41.7277 11.4215 41.7305 10.2824C41.7376 9.65565 41.6201 9.03374 41.385 8.45273C41.1498 7.87172 40.8017 7.34317 40.3607 6.89774C39.9197 6.45231 39.3947 6.09886 38.8161 5.85789C38.2375 5.61692 37.6168 5.49321 36.99 5.49396V5.49396ZM36.99 8.07972C36.7054 8.08387 36.4244 8.14422 36.1632 8.2573C35.902 8.37039 35.6658 8.53397 35.468 8.73866C35.2702 8.94335 35.1149 9.18511 35.0108 9.45003C34.9068 9.71496 34.8562 9.99783 34.8618 10.2824C34.8618 10.3967 34.8164 10.5063 34.7356 10.5871C34.6547 10.668 34.5451 10.7134 34.4308 10.7134C34.3165 10.7134 34.2069 10.668 34.1261 10.5871C34.0453 10.5063 33.9999 10.3967 33.9999 10.2824C33.9964 9.88624 34.0709 9.49326 34.2193 9.12591C34.3677 8.75856 34.5869 8.42403 34.8646 8.14143C35.1423 7.85883 35.4729 7.63369 35.8375 7.47886C36.2022 7.32404 36.5938 7.24256 36.99 7.23908C37.1043 7.23908 37.2139 7.28448 37.2947 7.3653C37.3755 7.44613 37.4209 7.55574 37.4209 7.67004C37.4209 7.78434 37.3755 7.89395 37.2947 7.97477C37.2139 8.05559 37.1043 8.101 36.99 8.101V8.07972Z" fill="#F36B1C"/>
</svg>
