<svg width="92" height="68" viewBox="0 0 92 68" fill="none" xmlns="http://www.w3.org/2000/svg">
<path d="M83.72 60.2715V4.86712C83.72 3.57815 83.2354 2.34199 82.3727 1.43055C81.51 0.519118 80.34 0.00708008 79.12 0.00708008L12.88 0.00708008C11.66 0.00708008 10.49 0.519118 9.62731 1.43055C8.76464 2.34199 8.28 3.57815 8.28 4.86712V60.2715H0V63.1875C0 64.2187 0.387713 65.2077 1.07785 65.9368C1.76798 66.666 2.704 67.0756 3.68 67.0756H88.32C89.296 67.0756 90.232 66.666 90.9222 65.9368C91.6123 65.2077 92 64.2187 92 63.1875V60.2715H83.72Z" fill="#F36B1C"/>
<path d="M13.8799 5.79846H78.1199V53.5078H13.8799V5.79846Z" fill="white"/>
<path d="M8.28003 58.3274H83.72V60.2714H8.28003V58.3274Z" fill="white"/>
<path d="M68.5402 62.2156C68.3589 62.2156 68.1794 62.2534 68.0119 62.3268C67.8444 62.4001 67.6923 62.5076 67.5642 62.6431C67.436 62.7786 67.3344 62.9394 67.2651 63.1164C67.1957 63.2934 67.1601 63.483 67.1602 63.6746C67.1602 63.8661 67.196 64.0557 67.2654 64.2327C67.3348 64.4096 67.4366 64.5703 67.5648 64.7057C67.693 64.8411 67.8453 64.9485 68.0128 65.0217C68.1803 65.095 68.3598 65.1326 68.5411 65.1326C68.9072 65.1324 69.2583 64.9787 69.5171 64.705C69.7759 64.4314 69.9212 64.0604 69.9211 63.6736C69.921 63.2868 69.7754 62.9158 69.5164 62.6424C69.2574 62.369 68.9063 62.2154 68.5402 62.2156V62.2156ZM73.1402 62.2156C72.9589 62.2156 72.7794 62.2534 72.6119 62.3268C72.4444 62.4001 72.2923 62.5076 72.1642 62.6431C72.036 62.7786 71.9344 62.9394 71.8651 63.1164C71.7957 63.2934 71.7601 63.483 71.7602 63.6746C71.7602 63.8661 71.796 64.0557 71.8654 64.2327C71.9348 64.4096 72.0366 64.5703 72.1648 64.7057C72.293 64.8411 72.4452 64.9485 72.6128 65.0217C72.7803 65.095 72.9598 65.1326 73.1411 65.1326C73.5072 65.1324 73.8583 64.9787 74.1171 64.705C74.3759 64.4314 74.5212 64.0604 74.5211 63.6736C74.521 63.2868 74.3754 62.9158 74.1164 62.6424C73.8574 62.369 73.5063 62.2154 73.1402 62.2156V62.2156ZM77.7402 62.2156C77.5589 62.2156 77.3794 62.2534 77.2119 62.3268C77.0444 62.4001 76.8923 62.5076 76.7642 62.6431C76.636 62.7786 76.5344 62.9394 76.4651 63.1164C76.3957 63.2934 76.3601 63.483 76.3602 63.6746C76.3602 63.8661 76.396 64.0557 76.4654 64.2327C76.5348 64.4096 76.6366 64.5703 76.7648 64.7057C76.893 64.8411 77.0452 64.9485 77.2128 65.0217C77.3803 65.095 77.5598 65.1326 77.7411 65.1326C78.1072 65.1324 78.4583 64.9787 78.7171 64.705C78.9759 64.4314 79.1212 64.0604 79.1211 63.6736C79.1209 63.2868 78.9754 62.9158 78.7164 62.6424C78.4574 62.369 78.1063 62.2154 77.7402 62.2156V62.2156Z" fill="white"/>
<path d="M29.531 14.9041H31.125V15.3631C33.3441 15.8119 33.6631 17.6742 33.7884 18.3858C33.8479 18.7224 33.9686 19.3808 34.1182 20.1872H61.8737C62.9719 20.1872 63.0948 21.115 62.9515 21.6284L59.6954 34.6246C59.5526 35.138 58.9514 35.557 58.362 35.557H34.0269C33.441 35.557 32.9633 35.9879 32.9633 36.5177C32.9633 37.0474 33.441 37.4783 34.0269 37.4783H60.589C60.8708 37.4783 61.1411 37.5795 61.3403 37.7596C61.5396 37.9398 61.6515 38.1841 61.6515 38.4389C61.6515 38.6937 61.5396 38.938 61.3403 39.1182C61.1411 39.2983 60.8708 39.3995 60.589 39.3995H59.212C59.8769 39.7314 60.4312 40.2184 60.8171 40.8098C61.203 41.4012 61.4064 42.0753 61.4062 42.7619H60.3437C60.3437 44.3527 58.9157 45.6438 57.1561 45.6438C55.3966 45.6438 53.9686 44.3527 53.9686 42.7619H52.9061C52.906 42.0752 53.1095 41.4011 53.4955 40.8097C53.8815 40.2183 54.4359 39.7314 55.1008 39.3995H40.0875C40.7524 39.7314 41.3068 40.2183 41.6928 40.8097C42.0788 41.4011 42.2823 42.0752 42.2822 42.7619H41.2197C41.2039 43.517 40.8611 44.2363 40.265 44.7652C39.6688 45.2941 38.8669 45.5905 38.0316 45.5905C37.1963 45.5905 36.3944 45.2941 35.7982 44.7652C35.2021 44.2363 34.8593 43.517 34.8435 42.7619H33.781C33.7809 42.0753 33.9844 41.4013 34.3703 40.8099C34.7562 40.2185 35.3104 39.7315 35.9751 39.3995H34.0258C33.1806 39.3991 32.3701 39.0954 31.7724 38.555C31.1747 38.0146 30.8387 37.2819 30.8383 36.5177C30.8384 36.1391 30.9209 35.7644 31.0812 35.4147C31.2415 35.065 31.4764 34.7473 31.7724 34.4797C32.0685 34.2121 32.42 33.9998 32.8069 33.855C33.1937 33.7102 33.6083 33.6357 34.0269 33.6358H34.4219L33.063 25.997C32.6845 23.9794 31.8685 19.6211 31.6769 18.537C31.5806 17.9893 31.4871 17.6045 31.125 17.3888V17.7854H29.531C29.3904 17.785 29.2557 17.7343 29.1562 17.6445C29.0568 17.5547 29.0006 17.433 29 17.3059V15.3846C29.0003 15.2573 29.0563 15.1353 29.1558 15.0453C29.2553 14.9552 29.3902 14.9045 29.531 14.9041V14.9041ZM57.1561 44.2031C57.5788 44.2027 57.984 44.0507 58.2828 43.7805C58.5816 43.5104 58.7497 43.144 58.7502 42.7619H55.5627C55.5631 43.1439 55.7311 43.5102 56.0298 43.7804C56.3286 44.0505 56.7336 44.2026 57.1561 44.2031V44.2031ZM38.031 44.2031C38.4538 44.2028 38.8591 44.0509 39.1581 43.7807C39.457 43.5105 39.6252 43.1441 39.6256 42.7619H36.437C36.4377 43.1439 36.6059 43.5101 36.9047 43.7803C37.2035 44.0504 37.6085 44.2024 38.031 44.2031V44.2031ZM39.3383 22.5859C39.3196 22.4557 39.2499 22.3359 39.1417 22.2483C39.0335 22.1606 38.8942 22.111 38.749 22.1084H35.3847C35.0923 22.1084 34.8888 22.3215 34.9347 22.5833L35.2679 24.5153C35.3121 24.7766 35.5892 24.9903 35.8822 24.9903H39.0913C39.1588 24.9919 39.226 24.9803 39.2881 24.9562C39.3503 24.9321 39.4059 24.8961 39.4512 24.8507C39.4964 24.8054 39.5303 24.7517 39.5505 24.6933C39.5706 24.635 39.5765 24.5734 39.5678 24.5128L39.3383 22.5859V22.5859ZM39.9101 27.389C39.8911 27.2589 39.8212 27.1393 39.7131 27.0517C39.605 26.9641 39.4659 26.9144 39.3208 26.9115H36.2137C35.9207 26.9115 35.7179 27.1246 35.7621 27.3864L36.0131 28.8384C36.0579 29.0997 36.3344 29.3133 36.6274 29.3133H39.6064C39.6739 29.3147 39.741 29.303 39.803 29.2788C39.865 29.2547 39.9206 29.2187 39.9658 29.1734C40.0111 29.1281 40.0449 29.0744 40.0652 29.0162C40.0854 28.9579 40.0914 28.8964 40.0829 28.8358L39.9101 27.389V27.389ZM60.2428 24.524L60.7811 22.5746C60.8514 22.3174 60.6689 22.1084 60.376 22.1084H56.3758C56.0823 22.1084 55.8177 22.3231 55.7865 22.5859L55.5576 24.5133C55.5491 24.5738 55.5551 24.6353 55.5753 24.6935C55.5955 24.7518 55.6293 24.8054 55.6745 24.8507C55.7197 24.896 55.7752 24.932 55.8371 24.9562C55.8991 24.9803 55.9661 24.9922 56.0336 24.9908H59.5815C59.8739 24.9908 60.172 24.7802 60.2428 24.524V24.524ZM58.3892 29.3133C58.6816 29.3133 58.9797 29.1032 59.05 28.8471L59.4557 27.3782C59.5265 27.121 59.3452 26.912 59.0522 26.912H55.8058C55.5128 26.912 55.2476 27.1267 55.2164 27.3895L55.0442 28.8363C55.0356 28.8969 55.0416 28.9584 55.0617 29.0166C55.0818 29.0749 55.1157 29.1286 55.1609 29.1739C55.2061 29.2192 55.2616 29.2552 55.3236 29.2794C55.3856 29.3035 55.4527 29.3153 55.5202 29.3138H58.3892V29.3133ZM55.0068 33.6363H57.1969C57.491 33.6363 57.7874 33.4263 57.8582 33.1701L58.264 31.7013C58.3343 31.4441 58.1529 31.235 57.8594 31.235H55.2924C54.9994 31.235 54.7342 31.4497 54.7019 31.7125L54.5308 33.1594C54.5222 33.2199 54.5281 33.2814 54.5483 33.3396C54.5684 33.3978 54.6023 33.4515 54.6475 33.4968C54.6927 33.5421 54.7482 33.578 54.8102 33.6021C54.8722 33.6262 54.9393 33.6379 55.0068 33.6363V33.6363ZM48.4946 33.1558C48.4952 33.2832 48.5515 33.4053 48.6513 33.4953C48.7511 33.5854 48.8863 33.6361 49.0273 33.6363H51.7988C51.9439 33.6336 52.0832 33.5839 52.1912 33.4963C52.2992 33.4087 52.3689 33.289 52.3876 33.1588L52.5599 31.712C52.5687 31.6515 52.5628 31.5899 52.5428 31.5316C52.5228 31.4733 52.489 31.4197 52.4438 31.3743C52.3986 31.3289 52.3431 31.2929 52.2811 31.2688C52.219 31.2447 52.152 31.233 52.0844 31.2345H49.0273C48.8862 31.2345 48.7509 31.2851 48.651 31.3752C48.5511 31.4653 48.4949 31.5875 48.4946 31.7151V33.1558V33.1558ZM48.4946 28.8332C48.4952 28.9607 48.5515 29.0828 48.6513 29.1728C48.7511 29.2629 48.8863 29.3135 49.0273 29.3138H52.3128C52.6052 29.3138 52.8693 29.0991 52.9021 28.8363L53.0733 27.3895C53.082 27.329 53.0761 27.2675 53.056 27.2092C53.0359 27.151 53.0021 27.0973 52.957 27.0519C52.9118 27.0066 52.8563 26.9706 52.7944 26.9464C52.7324 26.9223 52.6653 26.9105 52.5978 26.912H49.0273C48.8862 26.912 48.7509 26.9626 48.651 27.0527C48.5511 27.1428 48.4949 27.265 48.4946 27.3926V28.8332V28.8332ZM48.4946 24.5102C48.4952 24.6377 48.5515 24.7598 48.6513 24.8498C48.7511 24.9398 48.8863 24.9905 49.0273 24.9908H52.8251C52.9703 24.9882 53.1096 24.9386 53.2178 24.8509C53.3259 24.7633 53.3957 24.6435 53.4144 24.5133L53.6434 22.5859C53.6519 22.5254 53.646 22.4638 53.6258 22.4056C53.6057 22.3473 53.5718 22.2937 53.5266 22.2483C53.4814 22.203 53.4259 22.167 53.3639 22.1429C53.3019 22.1187 53.2349 22.107 53.1674 22.1084H49.0267C48.8856 22.1084 48.7503 22.159 48.6504 22.2491C48.5506 22.3392 48.4943 22.4614 48.494 22.589V24.5102H48.4946ZM42.7378 33.1588C42.7566 33.289 42.8264 33.4088 42.9345 33.4964C43.0427 33.584 43.182 33.6336 43.3271 33.6363H45.8318C45.9727 33.6361 46.1078 33.5854 46.2075 33.4953C46.3072 33.4053 46.3635 33.2832 46.3639 33.1558V31.7146C46.3636 31.5871 46.3074 31.465 46.2077 31.3749C46.108 31.2848 45.9728 31.2342 45.8318 31.234H43.0415C42.7491 31.234 42.5338 31.4487 42.5655 31.7115L42.7378 33.1588ZM42.2244 28.8358C42.2432 28.966 42.313 29.0857 42.4211 29.1733C42.5293 29.2609 42.6686 29.3106 42.8137 29.3133H45.8318C45.9727 29.313 46.1078 29.2623 46.2075 29.1723C46.3072 29.0822 46.3635 28.9602 46.3639 28.8327V27.3916C46.3636 27.2641 46.3074 27.1419 46.2077 27.0519C46.108 26.9618 45.9728 26.9111 45.8318 26.911H42.5281C42.2352 26.911 42.0204 27.1257 42.0527 27.3885L42.2244 28.8358ZM41.711 24.5133C41.7298 24.6435 41.7996 24.7632 41.9077 24.8508C42.0159 24.9384 42.1552 24.9881 42.3003 24.9908H45.8318C45.9727 24.9905 46.1078 24.9398 46.2075 24.8498C46.3072 24.7597 46.3635 24.6376 46.3639 24.5102V22.589C46.3636 22.4615 46.3074 22.3394 46.2077 22.2493C46.108 22.1592 45.9728 22.1086 45.8318 22.1084H41.9575C41.6645 22.1084 41.4497 22.3231 41.4809 22.5859L41.711 24.5133V24.5133ZM37.6128 33.6363V33.6327L37.6174 33.6363H40.1198C40.1362 33.6363 40.1504 33.6292 40.1668 33.6271C40.1696 33.6097 40.1696 33.5923 40.173 33.5738L40.198 33.621C40.1911 33.6226 40.1841 33.624 40.177 33.6251C40.4382 33.5979 40.6252 33.4027 40.5952 33.1588L40.4241 31.712C40.405 31.5819 40.3352 31.4623 40.2271 31.3747C40.119 31.2872 39.9798 31.2374 39.8347 31.2345H36.9583C36.6653 31.2345 36.4636 31.4477 36.5078 31.7095L36.7588 33.1614C36.8025 33.4227 37.079 33.6363 37.372 33.6363H37.6128" fill="#084387"/>
</svg>
