<svg width="72" height="72" viewBox="0 0 72 72" fill="none" xmlns="http://www.w3.org/2000/svg">
<path d="M9 46.125H6.75V69.75H9V46.125Z" fill="#6D6E71"/>
<path d="M65.25 46.125H63V69.75H65.25V46.125Z" fill="#6D6E71"/>
<path d="M61.875 19.125H57.375C56.1815 19.125 55.0369 19.5991 54.1931 20.4431C53.3491 21.2869 52.875 22.4315 52.875 23.625V33.75H42.75V40.5H52.875C51.0848 40.5 49.3679 41.2111 48.1021 42.4771C46.8361 43.7429 46.125 45.4598 46.125 47.25V68.625H52.875V51.75C52.875 51.1533 53.112 50.581 53.534 50.159C53.956 49.737 54.5283 49.5 55.125 49.5H61.875C63.6634 49.494 65.3768 48.781 66.6414 47.5164C67.906 46.2518 68.619 44.5384 68.625 42.75V25.875C68.625 24.0848 67.9139 22.3679 66.6479 21.1021C65.3821 19.8361 63.6652 19.125 61.875 19.125Z" fill="#084387"/>
<path d="M40.5 16.875H36H31.5L36 23.625L40.5 16.875Z" fill="#B24C12"/>
<path d="M52.875 40.5H51.75H20.25H19.125C20.9152 40.5 22.6321 41.2111 23.8979 42.4771C25.1639 43.7429 25.875 45.4598 25.875 47.25H46.125C46.125 45.4598 46.8361 43.7429 48.1021 42.4771C49.3679 41.2111 51.0848 40.5 52.875 40.5Z" fill="#808285"/>
<path d="M29.25 40.5V33.75H19.125V23.625C19.125 22.4315 18.6509 21.2869 17.8069 20.4431C16.9631 19.5991 15.8185 19.125 14.625 19.125H10.125C8.33479 19.125 6.6179 19.8361 5.35203 21.1021C4.08616 22.3679 3.375 24.0848 3.375 25.875V42.75C3.38093 44.5384 4.094 46.2518 5.35858 47.5164C6.62317 48.781 8.33661 49.494 10.125 49.5H16.875C17.4717 49.5 18.044 49.737 18.466 50.159C18.888 50.581 19.125 51.1533 19.125 51.75V68.625H25.875V47.25C25.875 45.4598 25.1639 43.7429 23.8979 42.4771C22.6321 41.2111 20.9152 40.5 19.125 40.5H29.25Z" fill="#084387"/>
<path d="M29.25 40.5H42.75V33.75H47.25V23.625C47.25 21.8348 46.5389 20.1179 45.2729 18.8521C44.0071 17.5861 42.2902 16.875 40.5 16.875L36 23.625L31.5 16.875C29.7098 16.875 27.9929 17.5861 26.7271 18.8521C25.4611 20.1179 24.75 21.8348 24.75 23.625V33.75H29.25V40.5Z" fill="#F36B1C"/>
<path d="M36 16.875C39.7279 16.875 42.75 13.8529 42.75 10.125C42.75 6.39708 39.7279 3.375 36 3.375C32.2721 3.375 29.25 6.39708 29.25 10.125C29.25 13.8529 32.2721 16.875 36 16.875Z" fill="#F36B1C"/>
<path d="M14.625 19.125C18.3529 19.125 21.375 16.1029 21.375 12.375C21.375 8.64708 18.3529 5.625 14.625 5.625C10.8971 5.625 7.875 8.64708 7.875 12.375C7.875 16.1029 10.8971 19.125 14.625 19.125Z" fill="#084387"/>
<path d="M57.375 19.125C61.1029 19.125 64.125 16.1029 64.125 12.375C64.125 8.64708 61.1029 5.625 57.375 5.625C53.6471 5.625 50.625 8.64708 50.625 12.375C50.625 16.1029 53.6471 19.125 57.375 19.125Z" fill="#084387"/>
<path d="M58.5 25.875V36C58.5 36.5967 58.263 37.169 57.841 37.591C57.419 38.013 56.8467 38.25 56.25 38.25H42.75V40.5H56.25C57.4435 40.5 58.5881 40.0259 59.4319 39.1819C60.2759 38.3381 60.75 37.1935 60.75 36V25.875C60.75 25.5767 60.6314 25.2905 60.4205 25.0795C60.2095 24.8686 59.9233 24.75 59.625 24.75C59.3267 24.75 59.0405 24.8686 58.8295 25.0795C58.6186 25.2905 58.5 25.5767 58.5 25.875Z" fill="#113866"/>
<path d="M13.5 25.875V36C13.5 36.5967 13.737 37.169 14.159 37.591C14.581 38.013 15.1533 38.25 15.75 38.25H29.25V40.5H15.75C14.5565 40.5 13.4119 40.0259 12.5681 39.1819C11.7241 38.3381 11.25 37.1935 11.25 36V25.875C11.25 25.5767 11.3686 25.2905 11.5795 25.0795C11.7905 24.8686 12.0767 24.75 12.375 24.75C12.6733 24.75 12.9595 24.8686 13.1705 25.0795C13.3814 25.2905 13.5 25.5767 13.5 25.875Z" fill="#113866"/>
<path d="M37.125 67.5V47.25H34.875V67.5H30.375V69.75H34.875H37.125H41.625V67.5H37.125Z" fill="#6D6E71"/>
</svg>
