<svg width="124" height="76" viewBox="0 0 124 76" fill="none" xmlns="http://www.w3.org/2000/svg">
<g clip-path="url(#clip0_113_145)">
<path fill-rule="evenodd" clip-rule="evenodd" d="M5.55406 71.2437H15.809C14.8706 71.0005 14.1643 70.1347 14.1643 69.1134V7.19839C14.1643 5.9922 15.1511 5 16.3507 5H107.939C109.148 5 110.125 5.9922 110.125 7.19839V69.1134C110.125 70.1347 109.429 70.9907 108.481 71.2339H119.316C120.728 71.2339 121.87 72.3915 121.87 73.802C121.87 75.2222 120.719 76.37 119.316 76.37H5.55406C4.15126 76.3797 3 75.2222 3 73.802C3 72.4012 4.15126 71.2437 5.55406 71.2437ZM19.8432 10.389H104.756V68.4908H19.8432V10.389ZM58.8506 72.2067H66.0387C66.7159 72.2067 67.2674 72.7611 67.2674 73.4421C67.2674 74.123 66.7159 74.6774 66.0387 74.6774H58.8506C58.1734 74.6774 57.622 74.123 57.622 73.4421C57.622 72.7514 58.1734 72.2067 58.8506 72.2067Z" fill="#F36B1C"/>
<path d="M71.8593 59.4407L68.0674 57.2394C67.8298 57.1016 67.6462 56.8862 67.5471 56.6289C67.4479 56.3717 67.4392 56.0882 67.5224 55.8253L68.2315 53.6058C67.809 53.0283 67.4516 52.4054 67.1659 51.7485L64.9004 51.2503C64.6322 51.1914 64.3921 51.0421 64.2199 50.8271C64.0478 50.6121 63.9539 50.3443 63.954 50.0683L63.9491 45.6647C63.9505 45.3892 64.0449 45.1224 64.2168 44.9078C64.3887 44.6933 64.6279 44.5437 64.8953 44.4837L67.1617 43.9838C67.4483 43.3277 67.8057 42.7053 68.2274 42.1277L67.523 39.9074C67.4408 39.6443 67.45 39.361 67.549 39.1038C67.6479 38.8466 67.8309 38.6308 68.0678 38.4919L71.8601 36.2899C72.0978 36.1518 72.3753 36.0996 72.6466 36.142C72.9179 36.1844 73.1666 36.3188 73.3514 36.523L74.9132 38.2466C75.2757 38.2056 75.6413 38.1833 76.0057 38.1825C76.3546 38.1868 76.7031 38.2089 77.0493 38.2493L78.6063 36.5247C78.7909 36.3207 79.0393 36.1863 79.3103 36.1437C79.5813 36.1012 79.8587 36.153 80.0964 36.2906L83.8883 38.4919C84.1257 38.63 84.309 38.8456 84.4078 39.1029C84.5067 39.3602 84.5151 39.6437 84.4317 39.9065L83.7284 42.1279C83.9455 42.4271 84.1473 42.7384 84.3301 43.061C84.5014 43.3602 84.656 43.6692 84.7939 43.9853L87.0605 44.484C87.3284 44.5431 87.5682 44.6924 87.7402 44.9073C87.9121 45.1222 88.0058 45.3897 88.0058 45.6655L88.0054 50.0687C88.0023 50.6353 87.6092 51.1263 87.0592 51.2498L84.7928 51.7497C84.5061 52.4057 84.1487 53.0281 83.7271 53.6057L84.4297 55.8292C84.5978 56.3709 84.372 56.9576 83.8855 57.2437L80.0932 59.4456C79.8555 59.5837 79.5779 59.6359 79.3067 59.5935C79.0354 59.5511 78.7867 59.4167 78.6019 59.2126L77.0401 57.4889C76.332 57.5685 75.6173 57.5686 74.9092 57.4893L73.3488 59.2076C73.1641 59.4113 72.9158 59.5455 72.6449 59.5878C72.374 59.6302 72.0969 59.5783 71.8593 59.4407ZM78.3795 43.6735C77.2743 43.0319 75.961 42.8581 74.7283 43.1902C73.4957 43.5223 72.4448 44.3331 71.8067 45.4443C71.1687 46.5555 70.9958 47.876 71.326 49.1154C71.6563 50.3548 72.4627 51.4115 73.5679 52.053C74.673 52.6946 75.9864 52.8684 77.219 52.5363C78.4516 52.2042 79.5026 51.3934 80.1406 50.2822C80.7787 49.171 80.9516 47.8505 80.6213 46.6111C80.291 45.3717 79.4846 44.315 78.3795 43.6735Z" stroke="#084387" stroke-width="2"/>
<path d="M54.794 47.2891H49.614C49.2894 47.2892 48.9746 47.1768 48.7217 46.9707C48.4688 46.7646 48.2931 46.4771 48.2236 46.156L47.6444 43.4399C46.8718 43.0969 46.1391 42.668 45.46 42.1611L42.8458 43.0045C42.5363 43.1044 42.2025 43.0942 41.8996 42.9754C41.5967 42.8566 41.3431 42.6364 41.1807 42.3514L38.585 37.8087C38.4244 37.5235 38.3641 37.1914 38.414 36.867C38.4639 36.5425 38.621 36.2448 38.8597 36.0225L40.8876 34.1483C40.7954 33.2994 40.7954 32.4427 40.8876 31.5937L38.8597 29.7239C38.6207 29.5015 38.4634 29.2035 38.4135 28.8787C38.3636 28.5539 38.4241 28.2216 38.585 27.9362L41.1751 23.3906C41.3374 23.1056 41.591 22.8855 41.8939 22.7667C42.1968 22.6479 42.5306 22.6376 42.8401 22.7376L45.4543 23.5809C45.8015 23.3214 46.163 23.0792 46.5358 22.8601C46.8959 22.6554 47.2659 22.4694 47.6444 22.3036L48.225 19.5904C48.2942 19.2692 48.4696 18.9816 48.7222 18.7752C48.9748 18.5689 49.2895 18.4562 49.614 18.4558H54.794C55.1185 18.4562 55.4332 18.5689 55.6858 18.7752C55.9384 18.9816 56.1138 19.2692 56.183 19.5904L56.7693 22.3051C57.1677 22.4838 57.5577 22.6842 57.9348 22.9077C58.2863 23.1138 58.6264 23.3402 58.9537 23.5838L61.5694 22.7404C61.8786 22.6408 62.2121 22.6513 62.5147 22.7701C62.8173 22.8889 63.0707 23.1088 63.2329 23.3935L65.823 27.9391C66.1531 28.5258 66.0393 29.2683 65.5483 29.7253L63.5204 31.5995C63.6126 32.4485 63.6126 33.3051 63.5204 34.1541L65.5483 36.0283C66.0393 36.4867 66.1531 37.2277 65.823 37.8145L63.2329 42.3601C63.0706 42.6451 62.817 42.8652 62.5141 42.984C62.2112 43.1028 61.8774 43.1131 61.5679 43.0131L58.9537 42.1698C58.2751 42.6763 57.5429 43.1047 56.7707 43.4471L56.183 46.156C56.1136 46.4769 55.938 46.7642 55.6854 46.9703C55.4328 47.1763 55.1183 47.2888 54.794 47.2891V47.2891ZM52.1983 27.1058C50.6886 27.1058 49.2407 27.7134 48.1732 28.7948C47.1057 29.8763 46.5059 31.343 46.5059 32.8725C46.5059 34.4019 47.1057 35.8686 48.1732 36.9501C49.2407 38.0316 50.6886 38.6391 52.1983 38.6391C53.708 38.6391 55.1559 38.0316 56.2234 36.9501C57.2909 35.8686 57.8907 34.4019 57.8907 32.8725C57.8907 31.343 57.2909 29.8763 56.2234 28.7948C55.1559 27.7134 53.708 27.1058 52.1983 27.1058V27.1058Z" fill="#084387"/>
</g>
<defs>
<clipPath id="clip0_113_145">
<rect width="124" height="76" fill="white"/>
</clipPath>
</defs>
</svg>
