<svg width="92" height="68" viewBox="0 0 92 68" fill="none" xmlns="http://www.w3.org/2000/svg">
<path d="M15.1967 38.1836H21.1708C22.5694 38.1836 23.7032 39.3174 23.7032 40.716H35.9836C37.1532 40.716 44.8203 45.8458 45.4701 45.8458H56.516C57.2957 45.9108 58.9851 46.625 58.9201 49.3523C58.8551 52.0795 56.516 53.3782 56.516 53.3782C57.4257 53.3782 73.5397 47.4042 73.5397 47.4042C74.1894 47.1445 76.2037 46.5601 77.5682 49.2873C78.9327 52.0146 77.3732 53.6675 76.5935 54.0275C67.172 58.3781 50.8631 66.5734 44.5604 66.8845C39.2974 67.1442 31.8902 60.517 28.9013 59.6119C26.7571 58.9625 24.5695 58.9409 23.7032 58.9625C23.7032 60.3253 22.5985 61.43 21.2357 61.43H15.1967C14.476 61.43 13.8918 60.8458 13.8918 60.1252V39.4884C13.8918 38.7678 14.476 38.1836 15.1967 38.1836Z" fill="#F36B1C"/>
<path d="M23.7032 40.716V40.716C23.7032 39.3174 22.5694 38.1836 21.1708 38.1836H15.1967C14.476 38.1836 13.8918 38.7678 13.8918 39.4884V60.1252C13.8918 60.8458 14.476 61.43 15.1967 61.43H21.2357C22.5985 61.43 23.7032 60.3253 23.7032 58.9625V58.9625M23.7032 40.716C23.7032 40.716 34.8141 40.716 35.9836 40.716C37.1532 40.716 44.8203 45.8458 45.4701 45.8458C46.1199 45.8458 56.516 45.8458 56.516 45.8458C57.2957 45.9108 58.9851 46.625 58.9201 49.3523C58.8551 52.0795 56.516 53.3782 56.516 53.3782M23.7032 40.716V58.9625M56.516 53.3782H42.5462M56.516 53.3782C57.4257 53.3782 73.5397 47.4042 73.5397 47.4042C74.1894 47.1445 76.2037 46.5601 77.5682 49.2873C78.9327 52.0146 77.3732 53.6675 76.5935 54.0275C67.172 58.3781 50.8631 66.5734 44.5604 66.8845C39.2974 67.1442 31.8902 60.517 28.9013 59.6119C26.7571 58.9625 24.5695 58.9409 23.7032 58.9625" stroke="white" stroke-width="1.78378" stroke-linecap="round" stroke-linejoin="round"/>
<path d="M47.7543 38.616H54.947H47.7543ZM38.7634 15.2548C38.7634 11.9186 40.0896 8.71904 42.4501 6.36C44.8107 4.00095 48.0123 2.67566 51.3506 2.67566C54.689 2.67566 57.8906 4.00095 60.2511 6.36C62.6117 8.71904 63.9378 11.9186 63.9378 15.2548C63.939 17.2801 63.4488 19.2756 62.5093 21.0702C61.5698 22.8648 60.2089 24.405 58.5433 25.5589L57.5687 30.17C57.4397 31.0199 57.0101 31.7955 56.3578 32.356C55.7056 32.9165 54.8739 33.2248 54.0137 33.2249H48.6875C47.8273 33.2248 46.9957 32.9165 46.3434 32.356C45.6912 31.7955 45.2616 31.0199 45.1326 30.17L44.1579 25.5786C42.4918 24.4207 41.1309 22.8769 40.1915 21.0791C39.2521 19.2813 38.7621 17.2829 38.7634 15.2548V15.2548Z" stroke="#084387" stroke-width="3.61101" stroke-linecap="round" stroke-linejoin="round"/>
<path d="M44.158 26.0369H58.5433" stroke="#084387" stroke-width="3.61101" stroke-linecap="round" stroke-linejoin="round"/>
<path d="M47.0859 14.9218C46.6284 14.4646 45.8869 14.4649 45.4297 14.9224C44.9725 15.3799 44.9727 16.1214 45.4302 16.5786L47.0859 14.9218ZM49.7572 19.2471L48.9293 20.0755C49.1534 20.2995 49.4587 20.4231 49.7755 20.4181C50.0923 20.4132 50.3935 20.2801 50.6105 20.0493L49.7572 19.2471ZM57.8421 12.3561C58.2851 11.8848 58.2622 11.1436 57.7909 10.7006C57.3196 10.2576 56.5784 10.2806 56.1354 10.7518L57.8421 12.3561ZM45.4302 16.5786L48.9293 20.0755L50.5851 18.4187L47.0859 14.9218L45.4302 16.5786ZM50.6105 20.0493L57.8421 12.3561L56.1354 10.7518L48.9039 18.445L50.6105 20.0493Z" fill="#F36B1C"/>
</svg>
