<svg width="92" height="68" viewBox="0 0 92 68" fill="none" xmlns="http://www.w3.org/2000/svg">
<path fill-rule="evenodd" clip-rule="evenodd" d="M4.78982 0H73.7693C76.3875 0 78.5591 2.1025 78.5591 4.64455V28.9369C77.076 28.4167 74.753 28.0578 73.1413 27.8746V8.72501H5.35734V47.852H50.7812C50.8417 49.3685 51.0687 51.5662 51.4547 52.9801H4.78982C2.17169 52.9801 0 50.8776 0 48.3356V4.64455C0 2.1025 2.17169 0 4.78982 0ZM71.5468 32.2721C75.9885 32.2721 80.0141 34.023 82.9349 36.8361C85.8481 39.6639 87.6491 43.5465 87.6491 47.8614C87.6491 51.0042 86.6805 53.9418 85.0309 56.3886L90.4368 62.094C91.2915 62.996 91.229 64.4267 90.2988 65.2507L88.7932 66.5843C87.9032 67.3727 86.5475 67.3103 85.7337 66.4434L80.4757 60.8427C77.9256 62.491 74.8535 63.4507 71.5619 63.4507C67.1202 63.4507 63.0946 61.6998 60.1813 58.8867C57.2605 56.059 55.4672 52.1763 55.4672 47.8687C55.4672 43.5685 57.2757 39.6712 60.1813 36.8434C63.0795 34.0083 67.0975 32.2721 71.5468 32.2721ZM80.1049 39.5686C77.9181 37.4515 74.8838 36.1328 71.5468 36.1328C68.2098 36.1328 65.1755 37.4515 62.9887 39.5686C60.8018 41.6858 59.4398 44.6234 59.4398 47.8541C59.4398 51.0848 60.8018 54.0224 62.9887 56.1396C65.1755 58.2567 68.2098 59.5753 71.5468 59.5753C74.8838 59.5753 77.9181 58.2567 80.1049 56.1396C82.2917 54.0224 83.6537 51.0848 83.6537 47.8541C83.6537 44.6234 82.2993 41.6931 80.1049 39.5686Z" fill="#F36B1C"/>
<path d="M53.5734 37.5638H45.492V40.0399H52.5595C52.8394 39.1901 53.18 38.3623 53.5734 37.5638Z" fill="#084387"/>
<path d="M58.4541 31.249H45.4845V33.7251H56.0478C56.7742 32.8387 57.5839 32.0035 58.4541 31.249Z" fill="#084387"/>
<path d="M63.259 20.0478H59.6799C59.4831 20.0478 59.3545 20.231 59.3621 20.3555V27.1612C59.3621 27.3443 59.4907 27.4689 59.6799 27.4689H63.259C63.4482 27.4689 63.5768 27.3443 63.5768 27.1612V20.3555C63.5768 20.1724 63.4482 20.0478 63.259 20.0478Z" fill="#084387"/>
<path d="M49.4495 15.9014H45.8704C45.6812 15.9014 45.4845 16.026 45.5526 16.2091V27.2344C45.5526 27.4176 45.6812 27.5421 45.8704 27.5421H49.4495C49.6387 27.5421 49.7673 27.4176 49.7673 27.2344V16.2165C49.7673 16.026 49.6387 15.9014 49.4495 15.9014Z" fill="#084387"/>
<path d="M56.3505 13.5499H52.7713C52.5822 13.5499 52.4535 13.6744 52.4535 13.8575V27.2271C52.4535 27.4103 52.5822 27.5348 52.7713 27.5348H56.3505C56.5396 27.5348 56.6683 27.4103 56.6683 27.2271V13.8575C56.6683 13.6744 56.5396 13.5499 56.3505 13.5499Z" fill="#084387"/>
<path d="M36.7901 28.3992L25.9241 28.2161L31.6749 37.7469C34.8757 35.6371 36.7901 32.172 36.7901 28.3992Z" fill="#084387"/>
<path d="M29.9497 37.996L23.7524 27.6007L23.2379 15.5938C16.5942 15.8428 11.3503 21.1614 11.3503 27.6007C11.3503 34.2232 16.912 39.6077 23.7524 39.6077C25.9241 39.6077 28.0353 39.0509 29.9497 37.996Z" fill="#084387"/>
<path d="M25.5417 26.5925L25.5417 26.5824L25.5413 26.5724L25.0939 14.3263L25.0883 14.1129L25.333 14.1241L25.333 14.1241L25.3401 14.1244C26.3173 14.1566 27.3065 14.3151 28.2494 14.535C29.1682 14.7493 30.0331 15.0781 30.9144 15.4851C35.2109 17.5235 38.2623 21.732 38.6358 26.5942L38.6356 26.5942L38.637 26.6076L38.6587 26.8223L38.4269 26.828L25.838 26.7617L25.838 26.7617L25.8351 26.7617L25.5417 26.7617L25.5417 26.5925Z" stroke="#084387" stroke-width="1.09887"/>
</svg>
