<svg width="124" height="76" viewBox="0 0 124 76" fill="none" xmlns="http://www.w3.org/2000/svg">
<g clip-path="url(#clip0_113_183)">
<path d="M110 49.9351C110 50.3028 109.854 50.6555 109.594 50.9155C109.334 51.1755 108.981 51.3216 108.613 51.3216H100.294L97.5211 54.0947V43.0023C97.5211 42.6346 97.6671 42.2819 97.9272 42.0219C98.1872 41.7619 98.5399 41.6158 98.9076 41.6158H108.613C108.981 41.6158 109.334 41.7619 109.594 42.0219C109.854 42.2819 110 42.6346 110 43.0023V49.9351Z" stroke="#084387" stroke-width="1.35188" stroke-linecap="round" stroke-linejoin="round"/>
<path d="M88.1618 44.2156C88.1618 44.6753 88.3444 45.1161 88.6695 45.4411C88.9945 45.7662 89.4353 45.9488 89.895 45.9488H100.294L103.76 49.4151V35.5497C103.76 35.09 103.578 34.6491 103.253 34.3241C102.928 33.9991 102.487 33.8165 102.027 33.8165H89.895C89.4353 33.8165 88.9945 33.9991 88.6695 34.3241C88.3444 34.6491 88.1618 35.09 88.1618 35.5497V44.2156Z" fill="#084387"/>
<path d="M21.7033 30.6146H14.4458C13.9646 30.6146 13.5031 30.8058 13.1628 31.146C12.8226 31.4863 12.6314 31.9478 12.6314 32.429V46.944C12.6314 47.4252 12.8226 47.8867 13.1628 48.2269C13.5031 48.5672 13.9646 48.7583 14.4458 48.7583H25.332C25.8132 48.7583 26.2747 48.5672 26.615 48.2269C26.9552 47.8867 27.1464 47.4252 27.1464 46.944V36.0577L21.7033 30.6146Z" fill="#084387"/>
<path d="M21.7032 30.6146V36.0577H27.1464" stroke="white" stroke-width="1.28073" stroke-linecap="round" stroke-linejoin="round"/>
<path d="M23.5176 40.5937H16.2601" stroke="white" stroke-width="1.51197" stroke-linecap="round" stroke-linejoin="round"/>
<path d="M23.5176 44.2224H16.2601" stroke="white" stroke-width="1.51197" stroke-linecap="round" stroke-linejoin="round"/>
<path d="M18.0745 36.9649H17.1673H16.2601" stroke="white" stroke-width="1.51197" stroke-linecap="round" stroke-linejoin="round"/>
<path fill-rule="evenodd" clip-rule="evenodd" d="M51.1014 65.0419C53.9104 73.3118 65.6585 73.6175 68.3022 65.0419C71.4086 67.8426 80.6121 68.3961 84.0324 70.3128C85.1147 70.9159 86.0896 71.6842 86.8827 72.7252C87.4114 73.4192 88.1137 74.708 88.6507 76.1455H30.753C31.29 74.708 31.9922 73.4192 32.521 72.7252C33.3058 71.6842 34.2889 70.9159 35.3712 70.3128C38.7916 68.3961 47.9868 67.8343 51.1014 65.0419ZM20.9381 73.13C21.376 74.1049 20.9381 75.245 19.9632 75.6829C18.9883 76.1208 17.8482 75.6829 17.4186 74.708C16.3363 72.2956 15.4524 69.7758 14.7997 67.1816C14.1635 64.637 13.7339 62.0016 13.5439 59.3C13.4696 58.2342 14.2709 57.3089 15.3367 57.2346C16.4024 57.1602 17.3277 57.9616 17.4021 59.0274C17.5756 61.4976 17.9722 63.91 18.5587 66.2398C19.1536 68.6357 19.955 70.9407 20.9381 73.13ZM31.166 24.915C30.3729 25.6255 29.1502 25.5594 28.4397 24.7662C27.7292 23.9731 27.7953 22.7504 28.5884 22.0399C30.3894 20.4289 32.5044 18.7765 34.6855 17.3555C36.6353 16.0832 38.6594 14.9762 40.5843 14.2326C41.5757 13.8526 42.6993 14.34 43.0794 15.3397C43.4594 16.3311 42.972 17.4547 41.9723 17.8347C40.3117 18.4791 38.5272 19.454 36.784 20.5941C34.7764 21.9077 32.8266 23.4361 31.166 24.915ZM76.2747 17.9008C75.2998 17.4629 74.8702 16.3146 75.3081 15.348C75.746 14.3731 76.8944 13.9435 77.861 14.3813C80.893 15.7528 83.735 17.4382 86.3622 19.3962C88.9977 21.3624 91.4266 23.6261 93.5994 26.1294C94.2934 26.9391 94.2108 28.1535 93.4012 28.8558C92.5915 29.5497 91.377 29.4671 90.6748 28.6575C88.7085 26.3855 86.4779 24.3201 84.0407 22.5025C81.6448 20.6932 79.0341 19.1483 76.2747 17.9008ZM100.523 61.5637C100.663 60.5062 101.63 59.7627 102.687 59.9031C103.745 60.0436 104.488 61.0102 104.348 62.0677C104.059 64.2487 103.621 66.3637 103.043 68.4126C102.456 70.5111 101.721 72.5435 100.853 74.4932C100.424 75.4681 99.2835 75.9142 98.3003 75.4846C97.3172 75.055 96.8793 73.9149 97.3089 72.9318C98.1103 71.1307 98.7795 69.2718 99.3165 67.3634C99.8618 65.4715 100.267 63.53 100.523 61.5637ZM48.9451 47.8989C48.3503 47.9237 47.9042 48.0476 47.6067 48.2459C47.4333 48.3616 47.3011 48.5103 47.2185 48.692C47.1276 48.8903 47.0863 49.1299 47.0945 49.4025C47.1193 50.2122 47.5407 51.2697 48.3586 52.4841L48.3751 52.5007L51.0353 56.7306C52.1011 58.4243 53.2164 60.1592 54.6126 61.4232C55.951 62.646 57.5703 63.4721 59.7101 63.4721C62.0316 63.4804 63.7335 62.6212 65.105 61.3324C66.5342 59.994 67.6661 58.1516 68.7814 56.3175L71.7721 51.3853C72.3339 50.113 72.5322 49.2621 72.4083 48.7581C72.3339 48.4607 72.0034 48.312 71.4416 48.2872C71.326 48.2789 71.2021 48.2789 71.0781 48.2789C70.946 48.2872 70.8055 48.2955 70.6568 48.3037C70.5742 48.312 70.4998 48.3037 70.4255 48.2872C70.1611 48.3037 69.8802 48.2789 69.6076 48.2459L70.632 44.1316C63.023 45.3295 57.3307 39.6786 49.2839 42.9997L49.8622 47.9237C49.5317 47.9485 49.226 47.9402 48.9451 47.8989ZM72.4578 46.9406C73.1931 47.1636 73.6723 47.6345 73.8623 48.3863C74.0771 49.2208 73.8458 50.4105 73.1353 52.0215C73.1188 52.0545 73.1105 52.0793 73.094 52.1041L70.062 57.0941C68.8971 59.0191 67.7074 60.9441 66.1211 62.4312C64.4853 63.9678 62.4612 64.984 59.7018 64.9758C57.1242 64.9675 55.1827 63.9844 53.5882 62.5303C52.0515 61.1258 50.8701 59.3083 49.7548 57.532L47.0945 53.302C46.1197 51.8562 45.6157 50.5261 45.5826 49.4356C45.5661 48.9234 45.657 48.4607 45.847 48.0476C46.0453 47.618 46.351 47.2628 46.7641 46.9819C46.9541 46.8497 47.1689 46.7423 47.4085 46.6514C47.235 44.3547 47.1689 41.8927 47.2845 39.472C47.3424 38.902 47.4498 38.3236 47.615 37.7536C48.2925 35.3247 50.0026 34.2176 52.1094 32.8709C53.2742 32.1274 54.5465 31.5739 55.8767 31.1938C56.7194 30.9542 55.1579 28.2527 56.0336 28.1618C60.2554 27.7322 67.0878 31.5821 70.0372 34.7711C71.516 36.3656 72.4413 37.6379 72.6396 40.4469L72.4578 46.9406Z" fill="#F36B1C"/>
<path d="M59.5916 22.0764C64.3071 22.0764 68.1298 18.2537 68.1298 13.5382C68.1298 8.82269 64.3071 5 59.5916 5C54.876 5 51.0533 8.82269 51.0533 13.5382C51.0533 18.2537 54.876 22.0764 59.5916 22.0764Z" fill="#084387"/>
<path d="M59.5916 8.04936V13.5382L63.2508 15.3678" stroke="white" stroke-width="1.82962" stroke-linecap="round" stroke-linejoin="round"/>
</g>
<defs>
<clipPath id="clip0_113_183">
<rect width="124" height="76" fill="white"/>
</clipPath>
</defs>
</svg>
