<svg width="92" height="69" viewBox="0 0 92 69" fill="none" xmlns="http://www.w3.org/2000/svg">
<path d="M6.33873 2.75404H85.6613C85.9842 2.75404 86.246 3.01582 86.246 3.33873V45.3476H5.75404V3.33873C5.75404 3.01582 6.01582 2.75404 6.33873 2.75404Z" stroke="#F36B1C" stroke-width="3.50809" stroke-linejoin="round"/>
<path d="M88 47.1017H4V51.695C4 52.3409 4.52354 52.8644 5.16937 52.8644H86.8306C87.4764 52.8644 88 52.3409 88 51.695V47.1017Z" fill="#F36B1C"/>
<rect x="39" y="47.1017" width="15.1667" height="2.30508" rx="1.15254" fill="white"/>
<path d="M37.8333 50.5593V64.3898H55.3333V50.5593H37.8333Z" fill="#F36B1C"/>
<rect x="30.8333" y="64.3899" width="31.5" height="4.61017" rx="1.16936" fill="#F36B1C"/>
<path d="M14 11.5082C14 9.57075 15.5706 8.00012 17.5081 8.00012H45.4919C47.4294 8.00012 49 9.57075 49 11.5082V16.1857H14V11.5082Z" fill="#084387"/>
<ellipse cx="37.9835" cy="12.6775" rx="1.1044" ry="1.16936" fill="white"/>
<ellipse cx="41.2968" cy="12.6777" rx="1.1044" ry="1.16936" fill="white"/>
<ellipse cx="44.61" cy="12.6777" rx="1.1044" ry="1.16936" fill="white"/>
<path d="M47.8306 15.1694V36.8306L15.1694 36.8306V15.1694H32.1481H47.8306Z" fill="white" stroke="#084387" stroke-width="2.33873"/>
<rect x="26.218" y="20.8792" width="8.18554" height="2.33873" rx="1.16936" fill="#084387"/>
<rect x="22.71" y="25.5566" width="15.2017" height="2.33873" rx="1.16936" fill="#084387"/>
<rect x="26" y="30" width="9" height="2" rx="1" fill="#084387"/>
<path d="M71.6261 12.5752L57.4807 25.6626C57.1692 25.9508 57.1653 26.425 57.4721 26.7178L60.9613 30.0587C61.2666 30.35 61.763 30.3502 62.0686 30.0592L75.8665 16.9178C76.1562 16.6419 76.1719 16.2001 75.9024 15.9063L72.7608 12.6194C72.4661 12.298 71.9475 12.2777 71.6261 12.5752Z" fill="#084387"/>
<path d="M75.4794 9.19956L73.2195 11.2018C72.9047 11.4807 72.8866 11.9489 73.179 12.2488L76.385 15.4698C76.679 15.7714 77.1751 15.7886 77.4916 15.5082L79.7515 13.5059C80.0663 13.227 80.0844 12.7589 79.792 12.459L76.586 9.23792C76.292 8.93635 75.7959 8.91915 75.4794 9.19956Z" fill="#084387"/>
<path d="M60.6212 30.5678L56.8907 26.9967C56.6941 26.8091 56.3599 26.8716 56.2529 27.116L54.026 32.4513C53.899 32.7416 54.2624 33.0769 54.5787 32.9843L60.4593 31.1842C60.7402 31.1019 60.8285 30.7657 60.6212 30.5678Z" fill="#084387"/>
</svg>
