<svg width="124" height="76" viewBox="0 0 124 76" fill="none" xmlns="http://www.w3.org/2000/svg">
<path d="M56.4944 25.8268C57.426 25.0859 58.5633 24.6863 59.732 24.6893C60.0599 24.6893 60.3208 24.8686 60.4724 24.9919C60.6418 25.1325 60.8003 25.3118 60.9424 25.4911C61.0431 25.6196 61.0982 25.7808 61.0981 25.9472V31.1441H59.6159C59.4548 30.6656 59.1377 30.2623 58.7208 30.0054C58.3038 29.7486 57.8138 29.6548 57.3374 29.7407C56.861 29.8265 56.4288 30.0864 56.1172 30.4745C55.8057 30.8625 55.6348 31.3537 55.6348 31.8613C55.6348 32.3688 55.8057 32.8601 56.1172 33.2481C56.4288 33.6362 56.861 33.8961 57.3374 33.9819C57.8138 34.0677 58.3038 33.974 58.7208 33.7171C59.1377 33.4603 59.4548 33.057 59.6159 32.5785H61.0981V46.0834C61.0982 46.1896 61.0758 46.2945 61.0326 46.3905C60.9893 46.4865 60.9263 46.5712 60.8481 46.6385C60.217 47.1807 59.3727 47.6397 58.3659 47.6397C56.7457 47.6397 55.5394 46.782 54.7594 45.7564C54.199 45.0256 53.8151 44.1634 53.6406 43.2433C53.1098 43.0947 52.6177 42.8226 52.2007 42.4472C51.4466 41.7687 50.8524 40.6685 50.8524 39.0333C50.8524 38.2344 50.9029 37.5128 51.0163 36.8817H55.2922C56.161 36.8817 56.8769 37.5631 56.9861 38.4438C56.5318 38.6164 56.1502 38.952 55.9087 39.3914C55.6672 39.8307 55.5813 40.3456 55.6662 40.845C55.7511 41.3444 56.0013 41.7962 56.3726 42.1207C56.744 42.4453 57.2126 42.6216 57.6957 42.6185C58.1788 42.6155 58.6454 42.4333 59.013 42.1042C59.3807 41.775 59.6257 41.3201 59.7049 40.8196C59.7841 40.3192 59.6923 39.8055 59.4458 39.3692C59.1993 38.9329 58.8139 38.6021 58.3577 38.4352C58.3001 37.6229 57.9522 36.8635 57.3836 36.3093C56.815 35.7552 56.0679 35.4472 55.2922 35.4473H51.4548C51.6638 35.0199 51.9439 34.6584 52.3086 34.4016C52.4009 34.3375 52.4977 34.2809 52.5982 34.2324C52.2103 33.0389 52.3114 31.6418 52.6857 30.5445C52.9247 29.8388 53.3045 29.1718 53.8264 28.7271C54.1706 28.4331 54.5804 28.2394 55.0285 28.2021C55.2252 27.2224 55.7785 26.412 56.4957 25.8268H56.4944ZM62.4642 42.6193H63.4888C64.304 42.6193 65.0858 42.2793 65.6622 41.674C66.2387 41.0688 66.5625 40.2479 66.5625 39.3919V36.7598C67.0183 36.5906 67.4024 36.2577 67.6469 35.8199C67.8915 35.3821 67.9808 34.8676 67.8991 34.3674C67.8174 33.8671 67.5698 33.4133 67.2003 33.0862C66.8307 32.7591 66.3628 32.5796 65.8795 32.5796C65.3961 32.5796 64.9283 32.7591 64.5587 33.0862C64.1891 33.4133 63.9416 33.8671 63.8598 34.3674C63.7781 34.8676 63.8674 35.3821 64.112 35.8199C64.3566 36.2577 64.7407 36.5906 65.1964 36.7598V39.3919C65.1964 40.3817 64.4314 41.1849 63.4888 41.1849H62.4642V25.9472C62.4642 25.7808 62.5192 25.6196 62.6199 25.4911C62.7607 25.3118 62.9205 25.1325 63.0899 24.9919C63.2402 24.8686 63.5011 24.6893 63.8303 24.6893C64.999 24.6863 66.1363 25.0859 67.068 25.8268C67.7852 26.412 68.3384 27.2224 68.5338 28.2021C68.9819 28.238 69.3917 28.4331 69.736 28.7271C70.2578 29.1718 70.6376 29.8388 70.8767 30.5445C71.251 31.6418 71.3521 33.0404 70.9641 34.2309C71.0624 34.2797 71.1594 34.3371 71.2537 34.4031C71.6294 34.6656 71.9149 35.0414 72.1253 35.4846C72.5392 36.3524 72.71 37.5631 72.71 39.0333C72.71 40.67 72.1157 41.7687 71.3616 42.4472C70.9446 42.8226 70.4525 43.0947 69.9218 43.2433C69.7851 44.0437 69.4026 44.9703 68.8029 45.7564C68.0242 46.782 66.8166 47.6397 65.1964 47.6397C64.191 47.6397 63.3453 47.1807 62.7156 46.6385C62.6371 46.5713 62.5739 46.4867 62.5304 46.3907C62.4869 46.2947 62.4643 46.1897 62.4642 46.0834V42.6193ZM57.6829 31.1441C57.5017 31.1441 57.328 31.2197 57.1999 31.3542C57.0718 31.4887 56.9998 31.6711 56.9998 31.8613C56.9998 32.0515 57.0718 32.2339 57.1999 32.3684C57.328 32.5029 57.5017 32.5785 57.6829 32.5785C57.864 32.5785 58.0378 32.5029 58.1658 32.3684C58.2939 32.2339 58.3659 32.0515 58.3659 31.8613C58.3659 31.6711 58.2939 31.4887 58.1658 31.3542C58.0378 31.2197 57.864 31.1441 57.6829 31.1441ZM57.6829 39.7505C57.5017 39.7505 57.328 39.8261 57.1999 39.9606C57.0718 40.0951 56.9998 40.2775 56.9998 40.4677C56.9998 40.6579 57.0718 40.8404 57.1999 40.9749C57.328 41.1094 57.5017 41.1849 57.6829 41.1849C57.864 41.1849 58.0378 41.1094 58.1658 40.9749C58.2939 40.8404 58.3659 40.6579 58.3659 40.4677C58.3659 40.2775 58.2939 40.0951 58.1658 39.9606C58.0378 39.8261 57.864 39.7505 57.6829 39.7505ZM65.8795 35.4473C66.0606 35.4473 66.2344 35.3717 66.3625 35.2372C66.4906 35.1027 66.5625 34.9203 66.5625 34.7301C66.5625 34.5399 66.4906 34.3575 66.3625 34.223C66.2344 34.0885 66.0606 34.0129 65.8795 34.0129C65.6983 34.0129 65.5246 34.0885 65.3965 34.223C65.2684 34.3575 65.1964 34.5399 65.1964 34.7301C65.1964 34.9203 65.2684 35.1027 65.3965 35.2372C65.5246 35.3717 65.6983 35.4473 65.8795 35.4473Z" fill="#084387"/>
<path d="M30.6544 39.4195C30.4441 39.4267 30.2344 39.3923 30.0374 39.3184C29.8404 39.2445 29.6598 39.1326 29.5061 38.9889C29.3502 38.8403 29.2253 38.6623 29.1386 38.4653C29.0519 38.2682 29.0051 38.0559 29.0009 37.8406C28.994 37.629 29.0289 37.4181 29.1038 37.22C29.1786 37.0219 29.2918 36.8406 29.437 36.6864C29.5821 36.5323 29.7562 36.4083 29.9494 36.3216C30.1425 36.2349 30.3509 36.1872 30.5625 36.1813L35.529 36.009C35.9541 35.9986 36.3664 36.1553 36.6773 36.4454C36.9084 36.6639 37.0697 36.9458 37.1411 37.2557C37.2124 37.5656 37.1906 37.8897 37.0783 38.1872C36.9661 38.4848 36.7684 38.7425 36.5101 38.928C36.2518 39.1136 35.9444 39.2186 35.6266 39.23L30.6544 39.3965V39.4195ZM54.5909 63.6832C54.2647 63.692 53.9473 63.5777 53.7017 63.3629C53.4561 63.1481 53.3004 62.8487 53.2656 62.5243C53.2309 62.2 53.3196 61.8744 53.5141 61.6124C53.7086 61.3505 53.9947 61.1715 54.3153 61.111C53.5746 56.9025 51.5479 54.5886 49.4063 52.137C47.7412 50.2308 46.013 48.25 44.6465 45.3333C43.2987 42.5517 42.5961 39.5018 42.5911 36.4109C42.6593 33.0755 43.5214 29.8044 45.1059 26.8685L45.1403 26.8111C47.1458 23.3287 50.2522 20.6121 53.9708 19.0887C56.8827 17.9184 60.0339 17.4674 63.1573 17.7739C66.2538 18.0548 69.2498 19.0175 71.9303 20.593C75.3664 22.5701 78.059 25.6197 79.5953 29.2742C80.4794 31.4176 80.9696 33.703 81.0421 36.0205C81.1006 38.7361 80.5942 41.4342 79.5551 43.9438C78.0336 47.7045 76.024 50.0413 74.1466 52.2289C72.4241 54.2384 70.805 56.1159 69.9093 58.9866C70.2012 59.0586 70.4591 59.2297 70.6389 59.4707C70.8187 59.7117 70.9092 60.0076 70.8949 60.308C70.8807 60.6083 70.7626 60.8944 70.5608 61.1173C70.3591 61.3402 70.0862 61.4861 69.7887 61.5301L69.3524 61.5933C69.272 62.2191 69.2203 62.8852 69.1974 63.6028H69.3409C69.5098 63.5795 69.6816 63.5896 69.8466 63.6326C70.0116 63.6757 70.1665 63.7508 70.3024 63.8537C70.4384 63.9566 70.5527 64.0852 70.639 64.2323C70.7252 64.3794 70.7816 64.5421 70.805 64.711C70.8284 64.8799 70.8182 65.0517 70.7752 65.2167C70.7322 65.3817 70.6571 65.5365 70.5542 65.6725C70.4513 65.8085 70.3226 65.9228 70.1755 66.009C70.0284 66.0953 69.8658 66.1517 69.6969 66.1751L69.2548 66.2382V66.4966C69.289 66.9802 69.289 67.4656 69.2548 67.9492H69.3294C69.6622 67.9265 69.9911 68.0323 70.2482 68.2448C70.5054 68.4573 70.6713 68.7603 70.7117 69.0914C70.7522 69.4225 70.6642 69.7565 70.4658 70.0247C70.2674 70.2929 69.9737 70.4747 69.6452 70.5329L68.6806 70.6477C68.0536 72.3153 66.8716 73.7163 65.3333 74.6151C64.3553 75.1841 63.2586 75.5182 62.1295 75.5912C60.9963 75.6466 59.8678 75.4114 58.8511 74.9079C57.5654 74.2656 56.5103 73.2406 55.8311 71.974C55.641 71.8781 55.4776 71.7367 55.3554 71.5624C55.2332 71.3881 55.156 71.1863 55.1306 70.975C55.1089 70.8037 55.1226 70.6298 55.1708 70.464C54.9323 69.7551 54.765 69.0242 54.6713 68.2822H54.6311C54.29 68.3294 53.9441 68.2392 53.6695 68.0314C53.5336 67.9285 53.4192 67.7998 53.333 67.6527C53.2468 67.5056 53.1904 67.343 53.167 67.1741C53.1436 67.0052 53.1537 66.8333 53.1968 66.6684C53.2398 66.5034 53.3149 66.3485 53.4178 66.2125C53.6256 65.938 53.934 65.7572 54.2751 65.71L54.5851 65.6698C54.5851 64.9636 54.5851 64.3033 54.5851 63.6775L54.5909 63.6832ZM56.7325 60.7665L67.2912 59.268C68.1983 55.4384 70.1619 53.1418 72.3093 50.6557C74.0662 48.6117 75.9437 46.4299 77.3101 43.0424C78.2286 40.8396 78.6783 38.4698 78.6307 36.0837C78.5647 34.0549 78.1309 32.0551 77.3503 30.1814C76.0169 27.0186 73.6808 24.3819 70.7016 22.6772C68.3329 21.2804 65.6835 20.4273 62.9448 20.1796C60.2027 19.9092 57.4357 20.3031 54.878 21.3279C51.6589 22.6529 48.9695 25.0071 47.2302 28.0225C45.835 30.6092 45.0735 33.4899 45.0083 36.4281C45.0151 39.1599 45.6392 41.8547 46.8341 44.3113C47.981 46.596 49.4613 48.6974 51.2263 50.5466C53.6435 53.314 55.9287 55.9321 56.7325 60.7665ZM66.8893 61.9493L57.0023 63.3502C57.0023 63.976 57.0425 64.6363 57.0023 65.331L66.7629 63.9473C66.7629 63.2411 66.8031 62.5751 66.8605 61.9493H66.8893ZM57.1286 67.9434C57.1915 68.433 57.2933 68.9169 57.4329 69.3903L66.8778 68.242C66.9415 67.722 66.9531 67.1969 66.9122 66.6746V66.5655L57.1516 67.9549L57.1286 67.9434ZM58.7765 71.8419C59.122 72.2057 59.528 72.5068 59.9764 72.7319C60.6301 73.0469 61.3536 73.1892 62.0778 73.1453C62.8287 73.0937 63.5576 72.8697 64.208 72.4907C64.8586 72.1103 65.4188 71.5931 65.85 70.975L58.7765 71.8419ZM92.5424 33.7239C92.7529 33.7016 92.9656 33.7211 93.1685 33.7813C93.3714 33.8414 93.5604 33.941 93.7247 34.0744C93.889 34.2078 94.0253 34.3722 94.1259 34.5584C94.2265 34.7446 94.2893 34.9488 94.3108 35.1593C94.3542 35.5849 94.2267 36.0102 93.9564 36.3419C93.6862 36.6735 93.2953 36.8842 92.8697 36.9277L87.9262 37.4501C87.7153 37.4724 87.5021 37.4523 87.299 37.3912C87.096 37.3301 86.9071 37.2291 86.7435 37.0942C86.4909 36.8939 86.3042 36.6225 86.2072 36.3151C86.1103 36.0076 86.1078 35.6782 86.1998 35.3693C86.2919 35.0604 86.4744 34.7861 86.7237 34.5819C86.9731 34.3776 87.278 34.2528 87.599 34.2234L92.5424 33.7067V33.7239ZM83.2412 13.6285C83.4814 13.2754 83.8503 13.0301 84.2689 12.9453C84.4759 12.9034 84.6891 12.9027 84.8963 12.9432C85.1036 12.9837 85.3008 13.0647 85.4767 13.1814C85.6527 13.2982 85.8039 13.4485 85.9218 13.6237C86.0396 13.7989 86.1218 13.9957 86.1636 14.2027C86.2051 14.4096 86.2052 14.6227 86.1638 14.8297C86.1224 15.0366 86.0404 15.2333 85.9225 15.4084L83.1608 19.5423C83.0435 19.7193 82.8922 19.8714 82.7158 19.9896C82.5394 20.1079 82.3414 20.19 82.133 20.2313C81.7143 20.3096 81.2815 20.221 80.9273 19.9844C80.7498 19.8676 80.5975 19.7165 80.4792 19.54C80.3609 19.3635 80.279 19.1652 80.2383 18.9567C80.1967 18.7494 80.197 18.5359 80.2395 18.3287C80.2819 18.1216 80.3654 17.9251 80.4852 17.7509L83.2412 13.617V13.6285ZM61.8941 6.58938C61.9003 6.15636 62.0778 5.74342 62.3879 5.44108C62.619 5.22253 62.9096 5.07718 63.2231 5.02331C63.5366 4.96943 63.859 5.00944 64.1499 5.13829C64.4407 5.26714 64.687 5.47908 64.8577 5.74749C65.0284 6.01589 65.116 6.32877 65.1094 6.6468L64.9888 11.6132C64.9963 11.8325 64.959 12.0511 64.8792 12.2555C64.7994 12.4599 64.6787 12.6458 64.5246 12.802C64.3704 12.9582 64.186 13.0812 63.9827 13.1637C63.7793 13.2462 63.5613 13.2863 63.3419 13.2816C63.1225 13.2769 62.9064 13.2275 62.7067 13.1364C62.5071 13.0453 62.3281 12.9145 62.1808 12.7519C62.0335 12.5893 61.9208 12.3983 61.8498 12.1907C61.7788 11.983 61.7509 11.7631 61.7678 11.5443L61.8941 6.57216V6.58938ZM37.0333 14.5701C36.733 14.2757 36.5596 13.8757 36.55 13.4553C36.5403 13.0349 36.6952 12.6273 36.9816 12.3194C37.2683 12.0216 37.6594 11.8467 38.0725 11.8314C38.4967 11.82 38.9086 11.9745 39.2208 12.262C40.4208 13.4103 41.6495 14.5299 42.8552 15.6553C43.0134 15.8027 43.1406 15.9802 43.2293 16.1773C43.318 16.3745 43.3665 16.5874 43.3719 16.8036C43.3815 17.2275 43.2272 17.6388 42.9413 17.9519C42.6469 18.2521 42.2469 18.4255 41.8265 18.4352C41.4061 18.4448 40.9985 18.2899 40.6906 18.0036C39.5423 16.8954 38.2505 15.6553 37.0447 14.6046L37.0333 14.5701Z" fill="#F36B1C"/>
</svg>
