<svg width="280" height="201" viewBox="0 0 280 201" fill="none" xmlns="http://www.w3.org/2000/svg">
<path d="M37 44L249 119" stroke="#084387" stroke-width="2"/>
<path d="M249 119L139 200" stroke="#084387" stroke-width="2"/>
<g filter="url(#filter0_d_165_2173)">
<circle cx="35.0767" cy="41.1225" r="16.4476" fill="#F2DD27"/>
<circle cx="35.0767" cy="41.1225" r="19.8506" stroke="white" stroke-width="6.80592"/>
</g>
<g filter="url(#filter1_d_165_2173)">
<circle cx="252.028" cy="114.792" r="16.4476" fill="#E22525"/>
<circle cx="252.028" cy="114.792" r="19.8506" stroke="white" stroke-width="6.80592"/>
</g>
<path d="M231.843 78.81C231.843 79.658 231.55 80.3646 230.966 80.93C230.391 81.4855 229.509 81.7633 228.319 81.7633H226.36V86.0178H225.03V75.8275H228.319C229.47 75.8275 230.342 76.1053 230.936 76.6609C231.541 77.2164 231.843 77.9328 231.843 78.81ZM228.319 80.6668C229.06 80.6668 229.606 80.506 229.957 80.1843C230.308 79.8627 230.483 79.4046 230.483 78.81C230.483 77.5527 229.762 76.924 228.319 76.924H226.36V80.6668H228.319ZM232.999 81.9826C232.999 81.1639 233.165 80.4475 233.496 79.8334C233.828 79.2097 234.281 78.7272 234.856 78.3861C235.441 78.0449 236.089 77.8744 236.801 77.8744C237.502 77.8744 238.112 78.0254 238.628 78.3276C239.145 78.6297 239.53 79.0098 239.783 79.4679V78.0059H241.128V86.0178H239.783V84.5265C239.52 84.9944 239.125 85.3842 238.599 85.6961C238.082 85.9983 237.478 86.1493 236.786 86.1493C236.074 86.1493 235.431 85.9739 234.856 85.623C234.281 85.2721 233.828 84.7799 233.496 84.1464C233.165 83.5128 232.999 82.7916 232.999 81.9826ZM239.783 81.9972C239.783 81.3929 239.661 80.8666 239.418 80.4183C239.174 79.9699 238.843 79.6288 238.423 79.3948C238.014 79.1512 237.561 79.0293 237.064 79.0293C236.567 79.0293 236.113 79.1463 235.704 79.3802C235.295 79.6141 234.968 79.9553 234.725 80.4036C234.481 80.852 234.359 81.3783 234.359 81.9826C234.359 82.5967 234.481 83.1327 234.725 83.5908C234.968 84.0392 235.295 84.3852 235.704 84.6288C236.113 84.8628 236.567 84.9797 237.064 84.9797C237.561 84.9797 238.014 84.8628 238.423 84.6288C238.843 84.3852 239.174 84.0392 239.418 83.5908C239.661 83.1327 239.783 82.6015 239.783 81.9972ZM246.213 86.1493C245.599 86.1493 245.048 86.047 244.561 85.8423C244.073 85.6279 243.688 85.3355 243.406 84.9651C243.123 84.585 242.967 84.1513 242.938 83.6639H244.312C244.351 84.0635 244.536 84.3901 244.868 84.6435C245.209 84.8969 245.652 85.0236 246.198 85.0236C246.705 85.0236 247.105 84.9115 247.397 84.6873C247.689 84.4632 247.836 84.1805 247.836 83.8394C247.836 83.4885 247.68 83.2302 247.368 83.0645C247.056 82.8891 246.573 82.7185 245.92 82.5528C245.326 82.3968 244.838 82.2409 244.458 82.0849C244.088 81.9193 243.766 81.6805 243.493 81.3686C243.23 81.0469 243.099 80.6278 243.099 80.1112C243.099 79.7019 243.221 79.3266 243.464 78.9855C243.708 78.6443 244.054 78.3763 244.502 78.1814C244.951 77.9767 245.462 77.8744 246.037 77.8744C246.924 77.8744 247.641 78.0985 248.186 78.5469C248.732 78.9952 249.025 79.6093 249.064 80.389H247.733C247.704 79.9699 247.533 79.6336 247.222 79.3802C246.919 79.1268 246.51 79.0001 245.993 79.0001C245.516 79.0001 245.136 79.1024 244.853 79.3071C244.57 79.5118 244.429 79.7798 244.429 80.1112C244.429 80.3744 244.512 80.5937 244.678 80.7691C244.853 80.9348 245.068 81.0713 245.321 81.1785C245.584 81.276 245.945 81.3881 246.403 81.5148C246.978 81.6707 247.446 81.8267 247.806 81.9826C248.167 82.1288 248.474 82.353 248.727 82.6551C248.991 82.9573 249.127 83.352 249.137 83.8394C249.137 84.278 249.015 84.6727 248.771 85.0236C248.528 85.3745 248.182 85.6523 247.733 85.8569C247.295 86.0519 246.788 86.1493 246.213 86.1493ZM253.851 86.1493C253.237 86.1493 252.686 86.047 252.199 85.8423C251.712 85.6279 251.327 85.3355 251.044 84.9651C250.761 84.585 250.606 84.1513 250.576 83.6639H251.951C251.99 84.0635 252.175 84.3901 252.506 84.6435C252.847 84.8969 253.291 85.0236 253.837 85.0236C254.343 85.0236 254.743 84.9115 255.035 84.6873C255.328 84.4632 255.474 84.1805 255.474 83.8394C255.474 83.4885 255.318 83.2302 255.006 83.0645C254.694 82.8891 254.212 82.7185 253.559 82.5528C252.964 82.3968 252.477 82.2409 252.097 82.0849C251.726 81.9193 251.405 81.6805 251.132 81.3686C250.869 81.0469 250.737 80.6278 250.737 80.1112C250.737 79.7019 250.859 79.3266 251.103 78.9855C251.346 78.6443 251.692 78.3763 252.141 78.1814C252.589 77.9767 253.101 77.8744 253.676 77.8744C254.563 77.8744 255.279 78.0985 255.825 78.5469C256.371 78.9952 256.663 79.6093 256.702 80.389H255.372C255.342 79.9699 255.172 79.6336 254.86 79.3802C254.558 79.1268 254.148 79.0001 253.632 79.0001C253.154 79.0001 252.774 79.1024 252.492 79.3071C252.209 79.5118 252.068 79.7798 252.068 80.1112C252.068 80.3744 252.15 80.5937 252.316 80.7691C252.492 80.9348 252.706 81.0713 252.959 81.1785C253.223 81.276 253.583 81.3881 254.041 81.5148C254.616 81.6707 255.084 81.8267 255.445 81.9826C255.805 82.1288 256.112 82.353 256.366 82.6551C256.629 82.9573 256.765 83.352 256.775 83.8394C256.775 84.278 256.653 84.6727 256.41 85.0236C256.166 85.3745 255.82 85.6523 255.372 85.8569C254.933 86.0519 254.426 86.1493 253.851 86.1493ZM259.34 76.7047C259.087 76.7047 258.873 76.617 258.697 76.4416C258.522 76.2661 258.434 76.0517 258.434 75.7983C258.434 75.5449 258.522 75.3305 258.697 75.155C258.873 74.9796 259.087 74.8918 259.34 74.8918C259.584 74.8918 259.789 74.9796 259.955 75.155C260.13 75.3305 260.218 75.5449 260.218 75.7983C260.218 76.0517 260.13 76.2661 259.955 76.4416C259.789 76.617 259.584 76.7047 259.34 76.7047ZM259.984 78.0059V86.0178H258.653V78.0059H259.984ZM265.745 86.1493C264.995 86.1493 264.313 85.9788 263.699 85.6376C263.094 85.2965 262.617 84.814 262.266 84.1902C261.925 83.5567 261.754 82.8257 261.754 81.9972C261.754 81.1785 261.93 80.4572 262.281 79.8334C262.641 79.1999 263.128 78.7174 263.743 78.3861C264.357 78.0449 265.044 77.8744 265.804 77.8744C266.564 77.8744 267.251 78.0449 267.865 78.3861C268.479 78.7174 268.962 79.195 269.313 79.8188C269.673 80.4426 269.854 81.1688 269.854 81.9972C269.854 82.8257 269.669 83.5567 269.298 84.1902C268.938 84.814 268.445 85.2965 267.822 85.6376C267.198 85.9788 266.506 86.1493 265.745 86.1493ZM265.745 84.9797C266.223 84.9797 266.671 84.8676 267.091 84.6435C267.51 84.4193 267.846 84.083 268.099 83.6347C268.362 83.1863 268.494 82.6405 268.494 81.9972C268.494 81.3539 268.367 80.8081 268.114 80.3598C267.861 79.9114 267.529 79.58 267.12 79.3656C266.71 79.1414 266.267 79.0293 265.789 79.0293C265.302 79.0293 264.854 79.1414 264.444 79.3656C264.045 79.58 263.723 79.9114 263.479 80.3598C263.236 80.8081 263.114 81.3539 263.114 81.9972C263.114 82.6503 263.231 83.201 263.465 83.6493C263.708 84.0977 264.03 84.4339 264.43 84.6581C264.829 84.8725 265.268 84.9797 265.745 84.9797ZM275.507 77.8597C276.481 77.8597 277.271 78.157 277.875 78.7516C278.479 79.3364 278.781 80.1843 278.781 81.2955V86.0178H277.466V81.4855C277.466 80.6863 277.266 80.0771 276.866 79.658C276.467 79.2292 275.921 79.0147 275.229 79.0147C274.527 79.0147 273.967 79.234 273.547 79.6726C273.138 80.1112 272.933 80.7496 272.933 81.5879V86.0178H271.603V78.0059H272.933V79.1463C273.197 78.7369 273.552 78.4202 274.001 78.196C274.459 77.9718 274.961 77.8597 275.507 77.8597Z" fill="#032F61"/>
<path d="M7.5813 7.24594C7.5813 6.25177 7.80548 5.35994 8.25383 4.57045C8.70218 3.77122 9.31135 3.14743 10.0813 2.69908C10.8611 2.25073 11.7237 2.02655 12.6691 2.02655C13.7802 2.02655 14.75 2.29459 15.5785 2.83066C16.407 3.36673 17.0113 4.12698 17.3914 5.1114H15.7978C15.5152 4.49735 15.1058 4.02464 14.5697 3.69325C14.0434 3.36186 13.4099 3.19616 12.6691 3.19616C11.9576 3.19616 11.3192 3.36186 10.7539 3.69325C10.1886 4.02464 9.74508 4.49735 9.42344 5.1114C9.10179 5.7157 8.94097 6.42721 8.94097 7.24594C8.94097 8.05492 9.10179 8.76643 9.42344 9.38047C9.74508 9.98477 10.1886 10.4526 10.7539 10.784C11.3192 11.1154 11.9576 11.2811 12.6691 11.2811C13.4099 11.2811 14.0434 11.1203 14.5697 10.7986C15.1058 10.4672 15.5152 9.99452 15.7978 9.38047H17.3914C17.0113 10.3551 16.407 11.1105 15.5785 11.6466C14.75 12.1729 13.7802 12.4361 12.6691 12.4361C11.7237 12.4361 10.8611 12.2168 10.0813 11.7782C9.31135 11.3298 8.70218 10.7109 8.25383 9.92142C7.80548 9.13193 7.5813 8.2401 7.5813 7.24594ZM23.3485 4.19033C23.9528 4.19033 24.4986 4.32191 24.986 4.58507C25.4733 4.83849 25.8534 5.22349 26.1264 5.74006C26.409 6.25664 26.5503 6.88531 26.5503 7.62606V12.3484H25.2345V7.81612C25.2345 7.01689 25.0347 6.40771 24.6351 5.9886C24.2355 5.55975 23.6897 5.34532 22.9976 5.34532C22.2959 5.34532 21.7354 5.56462 21.3163 6.00323C20.907 6.44183 20.7023 7.08024 20.7023 7.91846V12.3484H19.3719V1.52947H20.7023V5.4769C20.9655 5.06754 21.3261 4.75077 21.7842 4.52659C22.252 4.30242 22.7735 4.19033 23.3485 4.19033ZM28.2265 8.3132C28.2265 7.49448 28.3922 6.77809 28.7236 6.16405C29.055 5.54025 29.5082 5.05779 30.0833 4.71665C30.6681 4.37552 31.3162 4.20495 32.0277 4.20495C32.7295 4.20495 33.3387 4.35602 33.8553 4.65817C34.3718 4.96032 34.7568 5.34045 35.0102 5.79854V4.33653H36.3553V12.3484H35.0102V10.8571C34.7471 11.3249 34.3523 11.7148 33.826 12.0267C33.3094 12.3289 32.7051 12.4799 32.0131 12.4799C31.3016 12.4799 30.6583 12.3045 30.0833 11.9536C29.5082 11.6027 29.055 11.1105 28.7236 10.477C28.3922 9.84344 28.2265 9.12218 28.2265 8.3132ZM35.0102 8.32782C35.0102 7.72353 34.8884 7.1972 34.6447 6.74885C34.4011 6.3005 34.0697 5.95936 33.6506 5.72544C33.2412 5.48177 32.788 5.35994 32.2909 5.35994C31.7938 5.35994 31.3406 5.4769 30.9312 5.71082C30.5219 5.94474 30.1954 6.28588 29.9517 6.73423C29.708 7.18258 29.5862 7.70891 29.5862 8.3132C29.5862 8.92725 29.708 9.46332 29.9517 9.92142C30.1954 10.3698 30.5219 10.7158 30.9312 10.9594C31.3406 11.1934 31.7938 11.3103 32.2909 11.3103C32.788 11.3103 33.2412 11.1934 33.6506 10.9594C34.0697 10.7158 34.4011 10.3698 34.6447 9.92142C34.8884 9.46332 35.0102 8.93212 35.0102 8.32782ZM39.934 5.63772C40.168 5.17962 40.4993 4.82387 40.9282 4.57045C41.3668 4.31704 41.898 4.19033 42.5218 4.19033V5.56462H42.1709C40.6797 5.56462 39.934 6.3736 39.934 7.99156V12.3484H38.6036V4.33653H39.934V5.63772ZM44.7447 3.03534C44.4913 3.03534 44.2769 2.94762 44.1015 2.77218C43.926 2.59674 43.8383 2.38231 43.8383 2.12889C43.8383 1.87548 43.926 1.66105 44.1015 1.48561C44.2769 1.31017 44.4913 1.22244 44.7447 1.22244C44.9884 1.22244 45.1931 1.31017 45.3588 1.48561C45.5342 1.66105 45.6219 1.87548 45.6219 2.12889C45.6219 2.38231 45.5342 2.59674 45.3588 2.77218C45.1931 2.94762 44.9884 3.03534 44.7447 3.03534ZM45.388 4.33653V12.3484H44.0576V4.33653H45.388ZM49.2783 5.43304V10.1553C49.2783 10.5452 49.3612 10.823 49.5269 10.9887C49.6926 11.1446 49.9801 11.2226 50.3895 11.2226H51.369V12.3484H50.1702C49.4294 12.3484 48.8739 12.1778 48.5035 11.8367C48.1331 11.4955 47.9479 10.9351 47.9479 10.1553V5.43304H46.9099V4.33653H47.9479V2.31895H49.2783V4.33653H51.369V5.43304H49.2783ZM59.8817 4.33653L55.0571 16.1203H53.6828L55.2617 12.2606L52.0307 4.33653H53.5073L56.022 10.8279L58.5074 4.33653H59.8817Z" fill="#032F61"/>
<defs>
<filter id="filter0_d_165_2173" x="7.28584" y="15.6003" width="55.5816" height="55.5817" filterUnits="userSpaceOnUse" color-interpolation-filters="sRGB">
<feFlood flood-opacity="0" result="BackgroundImageFix"/>
<feColorMatrix in="SourceAlpha" type="matrix" values="0 0 0 0 0 0 0 0 0 0 0 0 0 0 0 0 0 0 127 0" result="hardAlpha"/>
<feOffset dy="2.26864"/>
<feGaussianBlur stdDeviation="2.26864"/>
<feComposite in2="hardAlpha" operator="out"/>
<feColorMatrix type="matrix" values="0 0 0 0 0 0 0 0 0 0 0 0 0 0 0 0 0 0 0.16 0"/>
<feBlend mode="normal" in2="BackgroundImageFix" result="effect1_dropShadow_165_2173"/>
<feBlend mode="normal" in="SourceGraphic" in2="effect1_dropShadow_165_2173" result="shape"/>
</filter>
<filter id="filter1_d_165_2173" x="224.237" y="89.2697" width="55.5816" height="55.5817" filterUnits="userSpaceOnUse" color-interpolation-filters="sRGB">
<feFlood flood-opacity="0" result="BackgroundImageFix"/>
<feColorMatrix in="SourceAlpha" type="matrix" values="0 0 0 0 0 0 0 0 0 0 0 0 0 0 0 0 0 0 127 0" result="hardAlpha"/>
<feOffset dy="2.26864"/>
<feGaussianBlur stdDeviation="2.26864"/>
<feComposite in2="hardAlpha" operator="out"/>
<feColorMatrix type="matrix" values="0 0 0 0 0 0 0 0 0 0 0 0 0 0 0 0 0 0 0.16 0"/>
<feBlend mode="normal" in2="BackgroundImageFix" result="effect1_dropShadow_165_2173"/>
<feBlend mode="normal" in="SourceGraphic" in2="effect1_dropShadow_165_2173" result="shape"/>
</filter>
</defs>
</svg>
